<?xml version="1.0" encoding="UTF-8"?>
<svg version="1.1" xmlns="http://www.w3.org/2000/svg" width="603" height="172">
<path d="M0 0 C4.91071662 3.71986784 8.09710894 8.88635384 9.25 14.93359375 C10.04836641 24.71031031 9.1978711 31.99875488 3 39.74609375 C-4.41514699 45.64450612 -11.70450093 47.46768803 -21.171875 46.75 C-28.44918545 45.53293256 -33.49514548 41.66315448 -38.125 36.05859375 C-42.01090293 28.5857035 -42.71635295 21.19917204 -40.6875 12.99609375 C-38.60108256 6.64990738 -35.21542361 2.02347443 -29.45703125 -1.44921875 C-19.90132298 -5.79410359 -9.04082414 -5.50925221 0 0 Z M-25.75 12.93359375 C-28.0054616 16.90750228 -28.21680798 20.42111658 -27.75 24.93359375 C-26.43668873 28.28456838 -24.80152505 31.09962561 -21.9375 33.37109375 C-17.64907255 34.47383224 -14.08521191 34.51016253 -10 32.74609375 C-6.65171681 30.04886562 -5.05288569 27.92398543 -4.39453125 23.59765625 C-4.14567116 19.11817461 -4.21784853 15.93192425 -7.125 12.37109375 C-10.99859507 8.77418404 -13.36655055 8.58641916 -18.4921875 8.65234375 C-21.9007503 9.07693981 -23.49615278 10.40655293 -25.75 12.93359375 Z " fill="#CC2127" transform="translate(547.75,68.06640625)"/>
<path d="M0 0 C11 0 11 0 13.98046875 2.4921875 C14.75266132 3.59510661 15.48774279 4.72476012 16.1875 5.875 C17.00005236 7.06465663 17.81387239 8.25344833 18.62890625 9.44140625 C19.02094238 10.03840332 19.41297852 10.63540039 19.81689453 11.25048828 C21.60378041 13.89283748 23.60892821 16.34290064 25.625 18.8125 C27.295625 20.8853125 27.295625 20.8853125 29 23 C29.33 15.41 29.66 7.82 30 0 C34.29 0 38.58 0 43 0 C43 16.17 43 32.34 43 49 C31 49 31 49 27.4140625 45.78125 C26.44335406 44.38174623 25.51375809 42.95292627 24.625 41.5 C24.15707031 40.80390625 23.68914062 40.1078125 23.20703125 39.390625 C22.31622413 38.06545738 21.44192291 36.72888591 20.59228516 35.37695312 C18.2069426 31.81612897 15.57156723 28.4287563 13 25 C12.67 32.92 12.34 40.84 12 49 C8.04 49 4.08 49 0 49 C0 32.83 0 16.66 0 0 Z " fill="#CC2127" transform="translate(418,65)"/>
<path d="M0 0 C0.01981934 1.1552417 0.03963867 2.3104834 0.06005859 3.50073242 C0.13626941 7.79668561 0.22496289 12.09230692 0.31738281 16.38793945 C0.35560866 18.24529456 0.39047263 20.10272208 0.421875 21.96020508 C0.46766461 24.63388912 0.52563579 27.30707742 0.5859375 29.98046875 C0.59748871 30.80773972 0.60903992 31.63501068 0.62094116 32.48735046 C0.72733924 36.66640066 0.82305611 40.30101329 3 44 C6.05272465 44.89830839 6.05272465 44.89830839 9 45 C9 47.64 9 50.28 9 53 C-4.2 53 -17.4 53 -31 53 C-31 50.36 -31 47.72 -31 45 C-29.88625 44.896875 -28.7725 44.79375 -27.625 44.6875 C-26.42875 44.460625 -25.2325 44.23375 -24 44 C-21.71838205 40.57757307 -21.75332105 39.32840656 -21.76953125 35.30859375 C-21.77243164 33.64473633 -21.77243164 33.64473633 -21.77539062 31.94726562 C-21.78763672 30.78904297 -21.79988281 29.63082031 -21.8125 28.4375 C-21.81314453 27.27541016 -21.81378906 26.11332031 -21.81445312 24.91601562 C-21.56624215 19.2839128 -21.56624215 19.2839128 -23 14 C-24.88764903 13.31527335 -24.88764903 13.31527335 -27.0625 12.875 C-28.16271484 12.62363281 -28.16271484 12.62363281 -29.28515625 12.3671875 C-29.85105469 12.24601562 -30.41695313 12.12484375 -31 12 C-31 9.69 -31 7.38 -31 5 C-5.03333333 0 -5.03333333 0 0 0 Z " fill="#CC2127" transform="translate(114,61)"/>
<path d="M0 0 C10.56 0 21.12 0 32 0 C32 3.63 32 7.26 32 11 C25.4 11 18.8 11 12 11 C12 14.3 12 17.6 12 21 C17.94 21 23.88 21 30 21 C30 24.63 30 28.26 30 32 C24.06 32 18.12 32 12 32 C12 37.61 12 43.22 12 49 C8.04 49 4.08 49 0 49 C0 32.83 0 16.66 0 0 Z " fill="#CC2127" transform="translate(470,65)"/>
<path d="M0 0 C26.8 0 26.8 0 34 7 C39.00596616 13.2932146 40.6874959 20.0250476 40 28 C38.63686004 35.54683848 35.82157853 40.94409881 30 46 C21.30609788 51.28452874 9.72873235 50 0 50 C0 33.5 0 17 0 0 Z M5 4 C5 17.53 5 31.06 5 45 C19.36862183 46.06099248 19.36862183 46.06099248 29.4453125 39.57421875 C34.49724839 33.98822107 35.40653544 28.94102523 35.25 21.65234375 C34.67410659 15.54247459 31.46869291 11.93670566 27 8 C19.17019538 2.78013026 16.00266966 4 5 4 Z " fill="#3A383A" transform="translate(292,65)"/>
<path d="M0 0 C4.29 0 8.58 0 13 0 C13 16.17 13 32.34 13 49 C8.71 49 4.42 49 0 49 C0 32.83 0 16.66 0 0 Z " fill="#CC2127" transform="translate(396,65)"/>
<path d="M0 0 C20.77777778 0 20.77777778 0 27.375 4.6875 C29.67625268 7.96235958 30.17562541 11.08501689 30 15 C28.32864121 20.89891337 26.08434433 22.82659649 21 26 C21.36351562 26.62044189 21.72703125 27.24088379 22.1015625 27.88012695 C23.74110256 30.68705107 25.37064141 33.4996546 27 36.3125 C27.57234375 37.28896484 28.1446875 38.26542969 28.734375 39.27148438 C29.27578125 40.20927734 29.8171875 41.14707031 30.375 42.11328125 C31.12910156 43.40939331 31.12910156 43.40939331 31.8984375 44.73168945 C33 47 33 47 33 50 C31.35 50 29.7 50 28 50 C27.69408936 49.3387915 27.38817871 48.67758301 27.07299805 47.99633789 C25.65440482 44.99566061 24.17256702 42.03080289 22.6875 39.0625 C22.20732422 38.02158203 21.72714844 36.98066406 21.23242188 35.90820312 C20.72646484 34.91884766 20.22050781 33.92949219 19.69921875 32.91015625 C19.25408936 31.99371338 18.80895996 31.07727051 18.3503418 30.13305664 C15.16362648 26.81072313 15.16362648 26.81072313 5 27 C5 34.59 5 42.18 5 50 C3.35 50 1.7 50 0 50 C0 33.5 0 17 0 0 Z M5 4 C5 10.27 5 16.54 5 23 C15.4674238 23.14212662 15.4674238 23.14212662 24.0625 18.25 C25.47250133 14.86599681 24.89005304 12.49663695 24 9 C21.81836063 5.67012939 18.77472328 4.89220732 15 4 C11.6461742 3.84459103 8.36116211 3.90915778 5 4 Z " fill="#3A383A" transform="translate(217,65)"/>
<path d="M0 0 C9.24 0 18.48 0 28 0 C28 1.32 28 2.64 28 4 C20.41 4 12.82 4 5 4 C5 10.27 5 16.54 5 23 C11.93 23 18.86 23 26 23 C26 24.32 26 25.64 26 27 C19.07 27 12.14 27 5 27 C5 32.94 5 38.88 5 45 C12.59 45 20.18 45 28 45 C28 46.65 28 48.3 28 50 C18.76 50 9.52 50 0 50 C0 33.5 0 17 0 0 Z " fill="#3A383A" transform="translate(256,65)"/>
<path d="M0 0 C3.1875 1.6875 3.1875 1.6875 4.1875 4.6875 C3.8575 5.3475 3.5275 6.0075 3.1875 6.6875 C0.57382586 6.23944158 -1.65535343 5.7617081 -4.0625 4.625 C-10.16589176 2.54429826 -15.29385378 3.13774119 -21.125 5.8125 C-26.62851766 8.85010044 -28.82497545 12.19517614 -31.125 18 C-32.3604535 24.62652333 -31.77620099 29.6405725 -28.3125 35.5 C-24.93801491 40.10669564 -21.32944744 42.31739716 -15.8125 43.6875 C-9.4023913 44.6250329 -4.7054362 43.12595636 1.1875 40.6875 C2.1775 40.6875 3.1675 40.6875 4.1875 40.6875 C4.6825 42.6675 4.6825 42.6675 5.1875 44.6875 C-2.43703794 49.3159458 -10.06708684 49.74105191 -18.8125 48.6875 C-26.25424569 46.56826271 -31.0537795 42.39224467 -34.8125 35.6875 C-37.96939424 29.21042389 -38.06811186 21.05838667 -36.08984375 14.171875 C-32.99475502 7.60577583 -27.94276906 3.41896812 -21.8125 -0.3125 C-15.16626259 -2.52791247 -6.62445848 -2.30049376 0 0 Z " fill="#3A383A" transform="translate(203.8125,66.3125)"/>
<path d="M0 0 C3.12578143 1.6720747 5.39281175 3.7856235 7 7 C7.53118173 10.79415519 7.85089348 14.46331178 5.953125 17.890625 C3.53960565 20.81524257 1.63977201 22.79355388 -2.171875 23.2734375 C-9.98876369 23.58137554 -9.98876369 23.58137554 -13.5625 20.625 C-17.12191441 16.79178448 -17.39215852 14.40957028 -17.359375 9.328125 C-16.75455722 5.40995764 -14.83123243 3.69641184 -12 1 C-8.27533151 -0.86233425 -4.05504687 -0.57130829 0 0 Z " fill="#CC2127" transform="translate(107,30)"/>
<path d="M0 0 C3.07452647 1.25803977 3.81011048 2.24860034 6 5 C7.36476091 9.28814082 7.53677126 12.70044854 5.8125 16.875 C3.37979293 19.72713933 1.38803686 21.72514122 -2.3671875 22.46875 C-6.82426247 22.52428988 -10.0126954 22.53016696 -13.5625 19.625 C-16.86092467 16.07285035 -17.39498317 13.99269051 -17.359375 9.10546875 C-16.72418186 5.38406547 -14.66020984 3.59687151 -12 1 C-8.25801853 -0.87099073 -4.07499757 -0.53043613 0 0 Z " fill="#A7A9AC" transform="translate(139,41)"/>
<path d="M0 0 C12.54 0 25.08 0 38 0 C38 1.32 38 2.64 38 4 C32.72 4 27.44 4 22 4 C22 18.85 22 33.7 22 49 C20.35 49 18.7 49 17 49 C17 34.15 17 19.3 17 4 C11.39 4 5.78 4 0 4 C0 2.68 0 1.36 0 0 Z " fill="#3A383A" transform="translate(351,65)"/>
<path d="M0 0 C2.84064179 1.69936849 3.34854524 2.91728444 5 6 C5.91506578 10.22908777 5.4917442 13.22960075 3.125 16.9375 C-0.3839575 20.34325286 -3.01818439 20.33097275 -7.73828125 20.29296875 C-11.0542278 19.86344199 -12.74987627 18.39075646 -15 16 C-16.60086627 12.79826746 -16.49917089 9.47422941 -16 6 C-11.90548749 -0.41473627 -7.2838668 -1.1777681 0 0 Z " fill="#A7A9AC" transform="translate(77,42)"/>
<path d="M0 0 C2.875 1.5625 2.875 1.5625 5 4 C6.14009771 7.91908586 6.40888632 10.03158504 4.8125 13.8125 C2.83401433 16.20032753 1.98653732 17.19282775 -1 18 C-5.3482291 18.15241215 -8.13693543 17.73360489 -11.5 14.875 C-13.39565124 11.24166845 -13.58860004 9.04662526 -13 5 C-9.17726824 0.1578731 -6.07612323 -0.5149257 0 0 Z " fill="#A7A9AC" transform="translate(59,66)"/>
<path d="M0 0 C1.65 0 3.3 0 5 0 C5 16.17 5 32.34 5 49 C3.35 49 1.7 49 0 49 C0 32.83 0 16.66 0 0 Z " fill="#3A383A" transform="translate(340,65)"/>
<path d="M0 0 C2.4375 1 2.4375 1 4 3 C4.56153595 7.42209561 4.79893062 9.72171101 2.4375 13.5 C-0.9238388 15.56851618 -3.11959911 15.48505011 -7 15 C-9.375 13.875 -9.375 13.875 -11 12 C-12.19308162 8.34121638 -12.32667744 6.70002308 -10.6875 3.1875 C-7.65244276 -0.74683346 -4.77406587 -0.32924592 0 0 Z " fill="#A7A9AC" transform="translate(58,92)"/>
<path d="M0 0 C3 2 3 2 3.875 4.3125 C4.04238515 7.91128079 3.39085682 9.31028608 1 12 C-2.66204371 13.06532181 -4.87578939 13.46121461 -8.4375 12 C-10 10 -10 10 -10.4375 6.5 C-10 3 -10 3 -8.9375 1.0625 C-5.91362524 -0.5957539 -3.37613017 -0.30144019 0 0 Z " fill="#A7A9AC" transform="translate(69,113)"/>
<path d="M0 0 C3.5 0.25 3.5 0.25 5.5 2.25 C5.8125 5.75 5.8125 5.75 5.5 9.25 C2.02957297 11.56361802 0.58165827 11.76020728 -3.5 11.25 C-5.4375 9.5625 -5.4375 9.5625 -6.5 7.25 C-6.14950973 2.34313629 -5.13596028 0.36685431 0 0 Z " fill="#A7A9AC" transform="translate(83.5,125.75)"/>
<path d="M0 0 C2.4375 0.9375 2.4375 0.9375 3.8125 3.3125 C4.4375 5.9375 4.4375 5.9375 3.4375 8.9375 C0.64886993 10.33181504 -1.48328868 10.19410094 -4.5625 9.9375 C-6.5625 6.9375 -6.5625 6.9375 -6.375 4.375 C-5.21221299 0.88663896 -3.65698087 -0.08919466 0 0 Z " fill="#A7A9AC" transform="translate(103.5625,130.0625)"/>
<path d="M0 0 C3.125 0.375 3.125 0.375 6 1 C6.75 2.75 6.75 2.75 7 5 C5.0625 7.25 5.0625 7.25 3 9 C0.525 8.01 0.525 8.01 -2 7 C-2.125 4.625 -2.125 4.625 -2 2 C-1.34 1.34 -0.68 0.68 0 0 Z " fill="#A7A9AC" transform="translate(118,128)"/>
<path d="M0 0 C2.625 0.375 2.625 0.375 5 1 C5.6875 2.8125 5.6875 2.8125 6 5 C4.8125 6.8125 4.8125 6.8125 3 8 C0.8125 7.6875 0.8125 7.6875 -1 7 C-1.625 4.625 -1.625 4.625 -2 2 C-1.34 1.34 -0.68 0.68 0 0 Z " fill="#A7A9AC" transform="translate(132,121)"/>
<path d="M0 0 C1.65 0 3.3 0 5 0 C5.38218767 1.65614657 5.71395102 3.32457024 6 5 C5 6 5 6 2.4375 6.0625 C1.2309375 6.0315625 1.2309375 6.0315625 0 6 C-1.125 2.25 -1.125 2.25 0 0 Z " fill="#A7A9AC" transform="translate(141,112)"/>
</svg>
