<?xml version="1.0" encoding="UTF-8"?>
<svg version="1.1" xmlns="http://www.w3.org/2000/svg" width="300" height="136">
<path d="M0 0 C0.66 0 1.32 0 2 0 C9.51456187 14.43986925 16.9991179 28.89447282 24.3125 43.4375 C25.12883911 45.05084229 25.12883911 45.05084229 25.96166992 46.69677734 C26.46545166 47.70305176 26.9692334 48.70932617 27.48828125 49.74609375 C27.92696533 50.61935303 28.36564941 51.4926123 28.81762695 52.39233398 C31.65914241 58.65915757 32.86919538 64.15787227 32 71 C29.75461513 76.05211595 26.8350084 78.00020119 22 80.23828125 C17.44327059 81.97375437 13.23616403 82.13332308 8.390625 82.09765625 C7.66381531 82.0962413 6.93700562 82.09482635 6.18817139 82.09336853 C3.87540506 82.08778792 1.56273688 82.07523904 -0.75 82.0625 C-2.32161318 82.05748249 -3.89322789 82.05292002 -5.46484375 82.04882812 C-9.30993343 82.03782485 -13.1549501 82.02057361 -17 82 C-15.52437428 72.4263586 -13.57062033 62.97866981 -11.5234375 53.515625 C-11.18975156 51.96341029 -10.85631071 50.41114287 -10.52310181 48.85882568 C-9.65424727 44.81425203 -8.78211129 40.77039313 -7.90924072 36.72668457 C-7.01559794 32.58384935 -6.12512846 28.44033223 -5.234375 24.296875 C-3.49265161 16.19725392 -1.74745372 8.09838671 0 0 Z " fill="#D7181F" transform="translate(230,16)"/>
<path d="M0 0 C1.11714134 0.00424484 1.11714134 0.00424484 2.2568512 0.00857544 C4.61020726 0.01967333 6.96316734 0.0447574 9.31640625 0.0703125 C10.9225205 0.08035578 12.52864079 0.08947926 14.13476562 0.09765625 C18.04962921 0.11957843 21.96420085 0.15403489 25.87890625 0.1953125 C20.31232081 27.5501042 14.66892014 54.88690195 8.87890625 82.1953125 C5.87890625 81.1953125 5.87890625 81.1953125 4.13647461 78.26220703 C3.48706414 76.95585233 2.84859595 75.64402418 2.21875 74.328125 C1.87232452 73.62555573 1.52589905 72.92298645 1.16897583 72.1991272 C0.04244904 69.91048517 -1.07047156 67.61549949 -2.18359375 65.3203125 C-3.71342589 62.2011419 -5.24959344 59.08510243 -6.78515625 55.96875 C-7.16093307 55.20357056 -7.5367099 54.43839111 -7.9238739 53.65002441 C-11.22486923 46.94161286 -14.67528676 40.31998972 -18.25219727 33.75439453 C-22.36983662 26.10907272 -23.96721469 19.84161088 -23.12109375 11.1953125 C-21.42553622 7.0010386 -18.87954625 4.67247438 -15.12109375 2.1953125 C-10.01544364 0.41871486 -5.35929217 -0.07818439 0 0 Z " fill="#D7181F" transform="translate(274.12109375,-0.1953125)"/>
<path d="M0 0 C2.00378386 -0.00960932 4.00742712 -0.04076003 6.01098633 -0.07226562 C14.11942706 -0.10497744 20.89787998 -0.1041734 27.41137695 5.24023438 C30.38110034 9.0414803 30.35691056 12.56722439 29.97387695 17.24023438 C27.89391821 23.29924463 24.79991406 27.32721582 18.97387695 30.24023438 C19.92262695 30.83835937 20.87137695 31.43648437 21.84887695 32.05273438 C24.97387695 34.24023438 24.97387695 34.24023438 26.97387695 37.24023438 C27.95252607 44.28423208 27.26379495 50.46972521 22.97387695 56.24023438 C18.41726228 61.31595705 12.7996597 64.6139553 5.94744873 65.5032196 C3.87678933 65.58343675 1.82677986 65.5788699 -0.24487305 65.53320312 C-0.98821899 65.52895828 -1.73156494 65.52471344 -2.49743652 65.52033997 C-4.84072162 65.50372519 -7.18310382 65.46610892 -9.52612305 65.42773438 C-11.12767301 65.41266516 -12.72923663 65.3989807 -14.33081055 65.38671875 C-18.22958888 65.35387864 -22.12770361 65.30222001 -26.02612305 65.24023438 C-23.25607422 49.46114007 -20.15053565 33.77490286 -16.77612305 18.11523438 C-16.59791016 17.28238922 -16.41969727 16.44954407 -16.23608398 15.59146118 C-15.72776713 13.22080779 -15.21395879 10.85142196 -14.69799805 8.48242188 C-14.46702423 7.40457176 -14.46702423 7.40457176 -14.23138428 6.3049469 C-12.3853587 -2.07821514 -7.84358877 0.02274878 0 0 Z M-0.02612305 10.24023438 C-1.95521247 15.47633425 -3.01020884 20.77158981 -4.02612305 26.24023438 C3.20765664 26.62622657 7.70910617 26.0834149 13.84887695 21.99023438 C15.76114082 19.01560169 15.46131277 16.65228512 14.97387695 13.24023438 C12.60008052 10.78731139 10.7873382 10.2948791 7.4152832 10.06835938 C4.92625263 10.05423722 2.4591826 10.1099368 -0.02612305 10.24023438 Z M-6.02612305 36.24023438 C-6.69688793 39.01013402 -7.36288621 41.78103179 -8.02612305 44.55273438 C-8.2169043 45.33841797 -8.40768555 46.12410156 -8.60424805 46.93359375 C-8.7847168 47.69091797 -8.96518555 48.44824219 -9.15112305 49.22851562 C-9.40249023 50.2732605 -9.40249023 50.2732605 -9.65893555 51.33911133 C-10.12094189 53.40845176 -10.12094189 53.40845176 -10.02612305 56.24023438 C-2.35390164 56.60557825 4.60641549 56.27916302 10.53637695 50.92773438 C12.29246054 47.64462157 12.58606064 45.91333649 11.97387695 42.24023438 C9.82297244 38.90262392 8.76974896 37.50552504 4.97387695 36.24023438 C3.07916879 36.17168488 1.18219356 36.15543065 -0.71362305 36.17773438 C-1.70749023 36.18675781 -2.70135742 36.19578125 -3.7253418 36.20507812 C-4.48459961 36.21667969 -5.24385742 36.22828125 -6.02612305 36.24023438 Z " fill="#D8181F" transform="translate(99.026123046875,32.759765625)"/>
<path d="M0 0 C4.29 0 8.58 0 13 0 C12.34924993 9.5965042 10.52594859 18.79673891 8.50854492 28.18334961 C5.06267215 41.31147013 5.06267215 41.31147013 8 54 C10.52768693 55.81677498 12.29671887 56.05667891 15.375 55.80859375 C20.48485258 54.9645556 24.58944207 54.11273162 28 50 C32.43963273 40.57142994 34.09774296 30.07003985 36.1875 19.9375 C36.71849091 17.39225629 37.25176397 14.84752107 37.78791809 12.30335999 C38.11855385 10.73151406 38.44590277 9.15897229 38.76957703 7.5856781 C39.88925779 2.22148442 39.88925779 2.22148442 41 0 C45.29 0 49.58 0 54 0 C53.36315663 5.60706789 52.46136747 11.07461374 51.29296875 16.59375 C51.04296867 17.78019104 51.04296867 17.78019104 50.78791809 18.99060059 C50.43599662 20.65153637 50.08210295 22.31205541 49.72631836 23.97216797 C49.18939402 26.49111435 48.66787038 29.01295452 48.14648438 31.53515625 C47.80042714 33.15905647 47.45345217 34.78276145 47.10546875 36.40625 C46.95426071 37.14919312 46.80305267 37.89213623 46.64726257 38.65759277 C44.58313231 48.07109376 40.31616089 56.35760822 32.0625 61.75 C25.75971528 65.63261892 19.86495205 66.36361643 12.625 66.375 C11.81289063 66.39949219 11.00078125 66.42398438 10.1640625 66.44921875 C4.29449216 66.47743784 -0.0970398 65.28702231 -5 62 C-9.9219827 56.95181262 -10.34194783 52.33028144 -10.27636719 45.52685547 C-9.73585654 38.62913741 -8.1698929 31.90312523 -6.69189453 25.15454102 C-6.1214758 22.5463861 -5.56926618 19.93485036 -5.01953125 17.32226562 C-4.66250953 15.6534206 -4.30447311 13.98479226 -3.9453125 12.31640625 C-3.78064484 11.54035538 -3.61597717 10.7643045 -3.44631958 9.96473694 C-2.63423974 6.28543621 -1.70125566 3.40251131 0 0 Z " fill="#D8181F" transform="translate(18,33)"/>
<path d="M0 0 C0.763125 0.226875 1.52625 0.45375 2.3125 0.6875 C5.83134407 12.98024788 9.01371892 25.32837445 11.9621582 37.77001953 C12.63623455 40.60982996 13.3188678 43.44750091 14.00195312 46.28515625 C14.43540487 48.10404544 14.86836672 49.92305145 15.30078125 51.7421875 C15.50383377 52.58377411 15.70688629 53.42536072 15.91609192 54.29244995 C16.19219551 55.46615646 16.19219551 55.46615646 16.47387695 56.66357422 C16.63644485 57.34652557 16.79901276 58.02947693 16.96650696 58.73312378 C17.3125 60.6875 17.3125 60.6875 17.3125 64.6875 C12.3625 64.6875 7.4125 64.6875 2.3125 64.6875 C1.17485649 60.42133684 0.3125 57.12263689 0.3125 52.6875 C-4.04334221 52.53522295 -8.39169336 52.50670853 -12.75 52.5 C-14.59368164 52.43329102 -14.59368164 52.43329102 -16.47460938 52.36523438 C-20.17930128 52.39519145 -23.15707173 52.54332017 -26.6875 53.6875 C-29.04111131 56.38022872 -30.54360584 59.06123309 -32.18188477 62.23168945 C-33.6875 64.6875 -33.6875 64.6875 -37.21484375 65.76171875 C-38.34019531 65.63410156 -39.46554688 65.50648437 -40.625 65.375 C-41.76839844 65.27574219 -42.91179687 65.17648438 -44.08984375 65.07421875 C-44.94707031 64.94660156 -45.80429688 64.81898437 -46.6875 64.6875 C-45.13939413 60.13831738 -42.62341247 56.45302194 -39.875 52.5625 C-38.87334704 51.12524447 -37.87205987 49.68773396 -36.87109375 48.25 C-36.34757324 47.50105469 -35.82405273 46.75210938 -35.28466797 45.98046875 C-32.64500805 42.19084998 -30.04238394 38.37606608 -27.4375 34.5625 C-26.90680908 33.7876123 -26.37611816 33.01272461 -25.8293457 32.21435547 C-22.75044365 27.71698041 -19.68571952 23.21037848 -16.6328125 18.6953125 C-15.95508789 17.69516113 -15.27736328 16.69500977 -14.57910156 15.66455078 C-13.25800485 13.71425377 -11.93954444 11.76216777 -10.62402344 9.80810547 C-10.02364258 8.92268066 -9.42326172 8.03725586 -8.8046875 7.125 C-8.27472168 6.33996094 -7.74475586 5.55492187 -7.19873047 4.74609375 C-3.42244 -0.39795814 -3.42244 -0.39795814 0 0 Z M-7.6875 23.6875 C-8.54732994 24.80323171 -9.36166186 25.95409058 -10.15625 27.1171875 C-10.64480469 27.83003906 -11.13335937 28.54289062 -11.63671875 29.27734375 C-12.40435547 30.40849609 -12.40435547 30.40849609 -13.1875 31.5625 C-13.69925781 32.30886719 -14.21101563 33.05523437 -14.73828125 33.82421875 C-17.39451041 37.64743362 -17.39451041 37.64743362 -19.6875 41.6875 C-14.0775 41.6875 -8.4675 41.6875 -2.6875 41.6875 C-4.0075 35.7475 -5.3275 29.8075 -6.6875 23.6875 C-7.0175 23.6875 -7.3475 23.6875 -7.6875 23.6875 Z " fill="#D8181F" transform="translate(174.6875,33.3125)"/>
<path d="M0 0 C1.9375 1.25 1.9375 1.25 3 3 C2.73904456 5.67479327 2.1995243 7.60095141 1 10 C1.2475 10.763125 1.495 11.52625 1.75 12.3125 C2 15 2 15 0.125 17.8125 C-4.02573936 20.71801755 -7.09267226 20.48111056 -12 20 C-10.90657878 4.6057802 -10.90657878 4.6057802 -9 0 C-5.45026831 -1.1832439 -3.60040463 -0.90010116 0 0 Z M-6 3 C-6 4.65 -6 6.3 -6 8 C-4.35 7.34 -2.7 6.68 -1 6 C-1.33 5.01 -1.66 4.02 -2 3 C-3.32 3 -4.64 3 -6 3 Z M-7 11 C-7.33 12.98 -7.66 14.96 -8 17 C-6.35 16.67 -4.7 16.34 -3 16 C-2.67 14.68 -2.34 13.36 -2 12 C-3.65 11.67 -5.3 11.34 -7 11 Z " fill="#DB181F" transform="translate(110,116)"/>
<path d="M0 0 C0.99 0 1.98 0 3 0 C3.12462322 5.73266804 2.6416966 11.30494264 2 17 C3.65 16.67 5.3 16.34 7 16 C8.32 10.72 9.64 5.44 11 0 C12.32 0.33 13.64 0.66 15 1 C14.6014867 3.40013691 14.18205687 5.79337044 13.75 8.1875 C13.64042969 8.86103516 13.53085938 9.53457031 13.41796875 10.22851562 C12.5716424 14.79422358 11.3875745 17.78488384 8 21 C5.09460258 21.78390911 3.06663719 21.34623323 0 21 C-2 19 -2 19 -2.265625 16.6796875 C-2.23267756 10.76562173 -1.71071256 5.66673537 0 0 Z " fill="#DB181F" transform="translate(2,115)"/>
<path d="M0 0 C1.32 0 2.64 0 4 0 C3.41523944 7.09406894 2.36766005 14.01563899 1 21 C-0.79093191 21.08086147 -2.58289628 21.13912702 -4.375 21.1875 C-5.87160156 21.23970703 -5.87160156 21.23970703 -7.3984375 21.29296875 C-8.25695312 21.19628906 -9.11546875 21.09960938 -10 21 C-12 18 -12 18 -11.9375 14.625 C-10.81504687 10.28484791 -9.60012564 8.64009213 -6 6 C-2.6875 5.6875 -2.6875 5.6875 0 6 C0 4.02 0 2.04 0 0 Z M-6.8125 10.6875 C-8.29757762 13.57949326 -7.93131785 14.95205066 -7 18 C-5.68 17.67 -4.36 17.34 -3 17 C-2.34 14.36 -1.68 11.72 -1 9 C-4.92481262 8.54572098 -4.92481262 8.54572098 -6.8125 10.6875 Z " fill="#DB181F" transform="translate(84,115)"/>
<path d="M0 0 C1.32 0.33 2.64 0.66 4 1 C5.25841946 7.74153283 6.26404456 14.13484138 6 21 C5.01 21 4.02 21 3 21 C2.67 19.02 2.34 17.04 2 15 C0.02 15 -1.96 15 -4 15 C-4.66 16.98 -5.32 18.96 -6 21 C-7.32 21 -8.64 21 -10 21 C-8.51991304 15.99886406 -6.3681664 11.67084403 -3.875 7.125 C-3.50246094 6.43664062 -3.12992188 5.74828125 -2.74609375 5.0390625 C-1.83500474 3.35705202 -0.91809685 1.67819564 0 0 Z M0 7 C-0.66 8.65 -1.32 10.3 -2 12 C-0.68 11.67 0.64 11.34 2 11 C1.34 9.68 0.68 8.36 0 7 Z " fill="#DC181F" transform="translate(230,115)"/>
<path d="M0 0 C1.32 0 2.64 0 4 0 C3.67 2.97 3.34 5.94 3 9 C3.99 8.01 4.98 7.02 6 6 C8.6875 5.8125 8.6875 5.8125 11 6 C10.13375 6.86625 9.2675 7.7325 8.375 8.625 C6.95002769 10.21782896 6.95002769 10.21782896 6 12 C6.48762261 15.21316523 6.48762261 15.21316523 8 18 C8.33 18.99 8.66 19.98 9 21 C6.625 20.75 6.625 20.75 4 20 C2.6875 17.9375 2.6875 17.9375 2 16 C1.01 18.475 1.01 18.475 0 21 C-1.32 21 -2.64 21 -4 21 C-3.52380865 18.06198921 -3.04417738 15.12461186 -2.5625 12.1875 C-2.42779297 11.35412109 -2.29308594 10.52074219 -2.15429688 9.66210938 C-2.02216797 8.85966797 -1.89003906 8.05722656 -1.75390625 7.23046875 C-1.63345947 6.49207764 -1.5130127 5.75368652 -1.38891602 4.99291992 C-1 3 -1 3 0 0 Z " fill="#DC181F" transform="translate(154,115)"/>
<path d="M0 0 C-0.66 4.95 -1.32 9.9 -2 15 C-10.3984375 15.1953125 -10.3984375 15.1953125 -13 15 C-15 13 -15 13 -15.375 10.25 C-14.91024367 6.22211178 -13.49246304 4.15223267 -11 1 C-7.57067929 -0.71466036 -3.78283935 -0.05404056 0 0 Z M-7 3 C-10.28814599 5.72606304 -10.28814599 5.72606304 -11.25 9.75 C-11.1675 10.4925 -11.085 11.235 -11 12 C-9.06890419 12.04289755 -9.06890419 12.04289755 -7 11 C-5.20728609 7.51202512 -5.20728609 7.51202512 -4 4 C-4.99 3.67 -5.98 3.34 -7 3 Z " fill="#DB181F" transform="translate(130,121)"/>
<path d="M0 0 C-0.14120714 1.93784265 -0.28812873 3.87526955 -0.4375 5.8125 C-0.51871094 6.89144531 -0.59992188 7.97039062 -0.68359375 9.08203125 C-1 12 -1 12 -2 15 C-3.81242052 15.02687279 -5.62495233 15.04633715 -7.4375 15.0625 C-8.44683594 15.07410156 -9.45617187 15.08570313 -10.49609375 15.09765625 C-13 15 -13 15 -14 14 C-14.58968059 6.92383292 -14.58968059 6.92383292 -12.125 3.0625 C-8.20365454 -0.74351177 -5.25644418 -0.08478136 0 0 Z M-8.6875 4.125 C-10.53521368 6.76459098 -10.20946395 8.85804073 -10 12 C-8.04105639 11.88693303 -8.04105639 11.88693303 -6 11 C-4.47835901 8.10888212 -4 6.28176588 -4 3 C-6.92199528 2.7226499 -6.92199528 2.7226499 -8.6875 4.125 Z " fill="#DC181F" transform="translate(300,121)"/>
<path d="M0 0 C1.72265625 1.2421875 1.72265625 1.2421875 3 3 C3.40242276 7.03886114 2.90423873 10.85231238 0.375 14.0625 C-3.00376516 15.39622309 -5.40765643 15.5225227 -9 15 C-11.0625 12.9375 -11.0625 12.9375 -12 10 C-11.41200879 6.58965099 -10.62111506 4.01339826 -8.8125 1.0625 C-5.84337415 -0.67802205 -3.34771886 -0.35868416 0 0 Z M-5 3 C-7.46823846 6.34401469 -7.46823846 6.34401469 -7.6875 10.3125 C-7.460625 10.869375 -7.23375 11.42625 -7 12 C-5.35 11.67 -3.7 11.34 -2 11 C-1.67 8.69 -1.34 6.38 -1 4 C-2.32 3.67 -3.64 3.34 -5 3 Z " fill="#DC181F" transform="translate(196,121)"/>
<path d="M0 0 C1.60875 -0.04125 3.2175 -0.0825 4.875 -0.125 C6.23238281 -0.15980469 6.23238281 -0.15980469 7.6171875 -0.1953125 C10 0 10 0 12 2 C12.01171875 4.27734375 12.01171875 4.27734375 11.6875 6.9375 C11.58824219 7.81277344 11.48898438 8.68804687 11.38671875 9.58984375 C11 12 11 12 10 15 C8.68 15 7.36 15 6 15 C6.66 11.04 7.32 7.08 8 3 C3.92097496 4.47657938 3.92097496 4.47657938 3.171875 7.1640625 C2.96304688 8.38222656 2.96304688 8.38222656 2.75 9.625 C2.60046875 10.44226563 2.4509375 11.25953125 2.296875 12.1015625 C2.19890625 12.72804687 2.1009375 13.35453125 2 14 C0.35 14.33 -1.3 14.66 -3 15 C-2.01 10.05 -1.02 5.1 0 0 Z " fill="#DC181F" transform="translate(135,121)"/>
<path d="M0 0 C1.62418745 -0.08090971 3.24951745 -0.13914995 4.875 -0.1875 C5.77992187 -0.22230469 6.68484375 -0.25710937 7.6171875 -0.29296875 C8.79667969 -0.14794922 8.79667969 -0.14794922 10 0 C12.50356732 3.75535098 11.9608592 4.86889414 11.125 9.1875 C10.92132813 10.27417969 10.71765625 11.36085937 10.5078125 12.48046875 C10.25644531 13.72763672 10.25644531 13.72763672 10 15 C8.68 15 7.36 15 6 15 C6.33 11.37 6.66 7.74 7 4 C6.01 4.33 5.02 4.66 4 5 C2.97299556 7.32891096 2.97299556 7.32891096 2.3125 10.0625 C2.06113281 10.98160156 1.80976563 11.90070313 1.55078125 12.84765625 C1.36902344 13.55792969 1.18726563 14.26820313 1 15 C-0.32 15 -1.64 15 -3 15 C-2.69163768 12.87439563 -2.37818386 10.74952935 -2.0625 8.625 C-1.88847656 7.44164062 -1.71445312 6.25828125 -1.53515625 5.0390625 C-1 2 -1 2 0 0 Z " fill="#DB181F" transform="translate(21,121)"/>
<path d="M0 0 C0.66 0.66 1.32 1.32 2 2 C1.8125 4.5 1.8125 4.5 1 7 C-1.91765 8.9451 -3.62537285 9.45276317 -7 10 C-7 10.66 -7 11.32 -7 12 C-3.535 11.505 -3.535 11.505 0 11 C-0.33 12.32 -0.66 13.64 -1 15 C-7.0546875 15.1953125 -7.0546875 15.1953125 -9 15 C-11 13 -11 13 -11.4375 9.1875 C-11.34337753 5.74261745 -10.98819656 4.98333633 -8.875 2 C-5.5419102 -0.31867116 -3.97475764 -0.61829563 0 0 Z M-5 3 C-5.99 4.485 -5.99 4.485 -7 6 C-5.35 5.67 -3.7 5.34 -2 5 C-2 4.34 -2 3.68 -2 3 C-2.99 3 -3.98 3 -5 3 Z " fill="#DC1820" transform="translate(68,121)"/>
<path d="M0 0 C0.78375 0.04125 1.5675 0.0825 2.375 0.125 C2.0625 2.0625 2.0625 2.0625 1.375 4.125 C0.385 4.455 -0.605 4.785 -1.625 5.125 C-1.955 5.785 -2.285 6.445 -2.625 7.125 C-1.635 7.125 -0.645 7.125 0.375 7.125 C0.045 8.115 -0.285 9.105 -0.625 10.125 C-1.615 10.125 -2.605 10.125 -3.625 10.125 C-3.68558594 10.82367188 -3.74617187 11.52234375 -3.80859375 12.2421875 C-3.89238281 13.15226562 -3.97617188 14.06234375 -4.0625 15 C-4.14371094 15.90492188 -4.22492188 16.80984375 -4.30859375 17.7421875 C-4.625 20.125 -4.625 20.125 -5.625 22.125 C-6.945 22.125 -8.265 22.125 -9.625 22.125 C-9.295 17.175 -8.965 12.225 -8.625 7.125 C-7.965 7.125 -7.305 7.125 -6.625 7.125 C-6.33625 6.34125 -6.0475 5.5575 -5.75 4.75 C-4.32247696 1.4191129 -3.72550733 0.17740511 0 0 Z " fill="#DB181F" transform="translate(249.625,113.875)"/>
<path d="M0 0 C0.763125 0.20625 1.52625 0.4125 2.3125 0.625 C1.9825 1.615 1.6525 2.605 1.3125 3.625 C-0.0075 3.625 -1.3275 3.625 -2.6875 3.625 C-2.6875 4.285 -2.6875 4.945 -2.6875 5.625 C-2.0275 5.955 -1.3675 6.285 -0.6875 6.625 C-0.6875 7.615 -0.6875 8.605 -0.6875 9.625 C-1.6775 9.625 -2.6675 9.625 -3.6875 9.625 C-4.3475 13.585 -5.0075 17.545 -5.6875 21.625 C-7.0075 21.625 -8.3275 21.625 -9.6875 21.625 C-9.54581863 20.18708484 -9.39898957 18.7496763 -9.25 17.3125 C-9.16878906 16.51199219 -9.08757812 15.71148437 -9.00390625 14.88671875 C-8.6875 12.625 -8.6875 12.625 -7.6875 9.625 C-8.3475 9.625 -9.0075 9.625 -9.6875 9.625 C-9.3575 8.635 -9.0275 7.645 -8.6875 6.625 C-8.0275 6.625 -7.3675 6.625 -6.6875 6.625 C-6.584375 5.84125 -6.48125 5.0575 -6.375 4.25 C-5.38413718 0.46670561 -3.87337283 -0.54047063 0 0 Z " fill="#DB181F" transform="translate(183.6875,114.375)"/>
<path d="M0 0 C0 0.99 0 1.98 0 3 C0.66 3.33 1.32 3.66 2 4 C2 4.99 2 5.98 2 7 C1.01 7.33 0.02 7.66 -1 8 C-1.80212628 9.87387216 -1.80212628 9.87387216 -2.1875 12.0625 C-2.34605469 12.79597656 -2.50460938 13.52945313 -2.66796875 14.28515625 C-2.77753906 14.85105469 -2.88710938 15.41695312 -3 16 C-2.01 16 -1.02 16 0 16 C0 16.99 0 17.98 0 19 C-1.98 19 -3.96 19 -6 19 C-7.36884358 14.48281619 -6.47075246 11.41225737 -5 7 C-5.66 7 -6.32 7 -7 7 C-7 6.01 -7 5.02 -7 4 C-6.01 4 -5.02 4 -4 4 C-4 3.01 -4 2.02 -4 1 C-2 0 -2 0 0 0 Z " fill="#DB191F" transform="translate(53,117)"/>
<path d="M0 0 C0 0.99 0 1.98 0 3 C-2.31 3.66 -4.62 4.32 -7 5 C-7.33 7.31 -7.66 9.62 -8 12 C-6.02 11.67 -4.04 11.34 -2 11 C-2 12.32 -2 13.64 -2 15 C-7.21210461 15.42722169 -7.21210461 15.42722169 -10 15 C-12.125 12.9375 -12.125 12.9375 -13 10 C-12.42635538 6.3031791 -11.78493275 3.90121908 -9.3125 1.0625 C-6.14094996 -0.39469867 -3.44315277 -0.19864343 0 0 Z " fill="#DC181F" transform="translate(284,121)"/>
<path d="M0 0 C2.64 0 5.28 0 8 0 C7.6875 1.875 7.6875 1.875 7 4 C6.01 4.66 5.02 5.32 4 6 C3.20562077 8.18505129 3.20562077 8.18505129 2.8125 10.625 C2.65394531 11.44226563 2.49539062 12.25953125 2.33203125 13.1015625 C2.22246094 13.72804687 2.11289063 14.35453125 2 15 C0.68 15 -0.64 15 -2 15 C-1.03644647 4.44191344 -1.03644647 4.44191344 0 0 Z " fill="#DB181F" transform="translate(204,121)"/>
<path d="M0 0 C2.64 0 5.28 0 8 0 C8 0.99 8 1.98 8 3 C6.68 3.33 5.36 3.66 4 4 C3.34 7.3 2.68 10.6 2 14 C0.68 14.33 -0.64 14.66 -2 15 C-1.85816304 13.24967156 -1.71136571 11.49974466 -1.5625 9.75 C-1.48128906 8.77546875 -1.40007812 7.8009375 -1.31640625 6.796875 C-1.04925416 4.43538247 -0.64628032 2.28098935 0 0 Z " fill="#DB181F" transform="translate(253,121)"/>
<path d="M0 0 C1.32 0 2.64 0 4 0 C3.01 4.95 2.02 9.9 1 15 C-0.32 15 -1.64 15 -3 15 C-2.69257097 12.68682039 -2.37892298 10.37446648 -2.0625 8.0625 C-1.88847656 6.77472656 -1.71445312 5.48695312 -1.53515625 4.16015625 C-1 1 -1 1 0 0 Z " fill="#DB181F" transform="translate(39,121)"/>
<path d="M0 0 C1.32 0 2.64 0 4 0 C3.01 4.95 2.02 9.9 1 15 C-0.32 15 -1.64 15 -3 15 C-2.69163768 12.87439563 -2.37818386 10.74952935 -2.0625 8.625 C-1.88847656 7.44164062 -1.71445312 6.25828125 -1.53515625 5.0390625 C-1 2 -1 2 0 0 Z " fill="#DB181F" transform="translate(265,121)"/>
<path d="M0 0 C0.99 0.33 1.98 0.66 3 1 C2.67 2.32 2.34 3.64 2 5 C0.68 4.67 -0.64 4.34 -2 4 C-1.34 2.68 -0.68 1.36 0 0 Z " fill="#DA181E" transform="translate(267,115)"/>
<path d="M0 0 C0.99 0.66 1.98 1.32 3 2 C2.67 2.99 2.34 3.98 2 5 C0.68 4.67 -0.64 4.34 -2 4 C-2 3.01 -2 2.02 -2 1 C-1.34 0.67 -0.68 0.34 0 0 Z " fill="#DA181E" transform="translate(41,115)"/>
</svg>
