<?xml version="1.0" encoding="UTF-8"?>
<svg version="1.1" xmlns="http://www.w3.org/2000/svg" width="300" height="210">
<path d="M0 0 C17.19190665 14.23850497 27.22770948 31.32274343 29.375 53.75 C29.4471875 54.4925 29.519375 55.235 29.59375 56 C30.46162589 75.09326958 22.25433619 92.93172867 10.28515625 107.25 C-2.68940992 121.1668531 -20.99368251 129.40426872 -39.92602539 130.08447266 C-58.39724181 130.40658863 -76.1546077 124.49450678 -90.625 112.75 C-105.58500805 98.23091851 -113.56557942 79.43587419 -114.875 58.8125 C-114.51763447 38.08529951 -106.59344614 21.04146626 -92.4375 6.0625 C-67.66209052 -17.85976177 -27.7506374 -20.61891765 0 0 Z " fill="#CDCED3" transform="translate(192.625,13.25)"/>
<path d="M0 0 C0.69287109 0.00451172 1.38574219 0.00902344 2.09960938 0.01367188 C3.79561068 0.02536844 5.49156703 0.04330076 7.1875 0.0625 C5.1875 2.0625 5.1875 2.0625 2.375 3.4375 C-4.7446728 7.06713711 -8.44468864 11.8995417 -11.8125 19.0625 C-12.76191717 22.37421108 -13.39080703 25.64533284 -13.8125 29.0625 C-13.10996094 29.17078125 -12.40742188 29.2790625 -11.68359375 29.390625 C-3.27293332 31.35883397 5.85965453 36.20738245 10.8046875 43.421875 C17.13955029 53.66677272 18.46777224 62.13865305 17.1875 74.0625 C14.66320944 84.35123788 8.6080435 91.857889 0.1875 98.0625 C-0.59625 98.76375 -1.38 99.465 -2.1875 100.1875 C-9.40800896 105.3450064 -19.28305833 105.08569753 -27.8125 104.0625 C-39.19231025 101.12577477 -47.57629933 94.49270393 -54.20703125 84.98046875 C-58.75568446 76.71320854 -60.51295344 69.69641857 -60.375 60.25 C-60.36476807 59.19337158 -60.35453613 58.13674316 -60.34399414 57.0480957 C-60.11872672 48.75404291 -58.91457546 42.37943358 -54.8125 35.0625 C-54.31621094 34.12792969 -53.81992188 33.19335938 -53.30859375 32.23046875 C-44.13719097 16.42913624 -29.95557807 6.56465503 -12.8125 1.0625 C-8.54846479 -0.05741789 -4.37991257 -0.05448695 0 0 Z " fill="#D01F25" transform="translate(171.8125,7.9375)"/>
<path d="M0 0 C2.36955901 0.57044634 2.36955901 0.57044634 4.35546875 -0.66015625 C11.22747442 -1.25391311 17.47073872 -1.35286633 23.671875 1.87890625 C27.16927256 4.91377096 29.18525082 8.08663711 29.80957031 12.68310547 C29.78862305 13.86662598 29.76767578 15.05014648 29.74609375 16.26953125 C29.73320312 17.55859375 29.7203125 18.84765625 29.70703125 20.17578125 C29.67361781 21.52214643 29.63975812 22.8685006 29.60546875 24.21484375 C29.58538231 25.58460944 29.5671353 26.95440341 29.55078125 28.32421875 C29.50374935 31.66348361 29.43802739 35.00129937 29.35546875 38.33984375 C25.72546875 38.33984375 22.09546875 38.33984375 18.35546875 38.33984375 C18.30648437 36.56996094 18.2575 34.80007812 18.20703125 32.9765625 C18.13200543 30.66014016 18.05645752 28.3437347 17.98046875 26.02734375 C17.94953125 24.86009766 17.91859375 23.69285156 17.88671875 22.49023438 C17.82871094 20.8128418 17.82871094 20.8128418 17.76953125 19.1015625 C17.73811035 18.06990967 17.70668945 17.03825684 17.67431641 15.9753418 C17.52872246 13.11141139 17.52872246 13.11141139 15.35546875 10.33984375 C13.16092194 9.75990676 13.16092194 9.75990676 10.73046875 9.65234375 C9.91320312 9.58660156 9.0959375 9.52085937 8.25390625 9.453125 C7.31417969 9.39705078 7.31417969 9.39705078 6.35546875 9.33984375 C6.85046875 10.82484375 6.85046875 10.82484375 7.35546875 12.33984375 C7.44966563 14.24688625 7.48618074 16.15703994 7.48828125 18.06640625 C7.48957031 19.18015625 7.49085938 20.29390625 7.4921875 21.44140625 C7.48832031 22.60414063 7.48445313 23.766875 7.48046875 24.96484375 C7.48626953 26.72054687 7.48626953 26.72054687 7.4921875 28.51171875 C7.49089844 29.62289062 7.48960937 30.7340625 7.48828125 31.87890625 C7.48715332 32.90193848 7.48602539 33.9249707 7.48486328 34.97900391 C7.35546875 37.33984375 7.35546875 37.33984375 6.35546875 38.33984375 C2.72546875 38.33984375 -0.90453125 38.33984375 -4.64453125 38.33984375 C-5.13953125 24.47984375 -5.13953125 24.47984375 -5.64453125 10.33984375 C-8.94453125 10.00984375 -12.24453125 9.67984375 -15.64453125 9.33984375 C-15.64453125 18.90984375 -15.64453125 28.47984375 -15.64453125 38.33984375 C-19.27453125 38.33984375 -22.90453125 38.33984375 -26.64453125 38.33984375 C-26.64453125 26.45984375 -26.64453125 14.57984375 -26.64453125 2.33984375 C-17.19373673 -2.38555351 -10.19370713 -2.15122371 0 0 Z " fill="#DB1E27" transform="translate(270.64453125,171.66015625)"/>
<path d="M0 0 C3.63 0 7.26 0 11 0 C11 17.16 11 34.32 11 52 C6.63041839 53.4565272 2.3908797 53.26542961 -2.1875 53.3125 C-3.56905273 53.35600586 -3.56905273 53.35600586 -4.97851562 53.40039062 C-11.93005865 53.46452835 -17.42314418 52.27558038 -22.65795898 47.48168945 C-25.93692344 43.86152659 -26.92748488 38.94179387 -27.10546875 34.17578125 C-26.71889982 27.58612954 -25.39122297 23.25805976 -20.5078125 18.56640625 C-16.15993238 14.74849162 -13.10386722 13.85990981 -7.4375 13.875 C-6.46683594 13.87242187 -5.49617188 13.86984375 -4.49609375 13.8671875 C-2 14 -2 14 0 15 C0 10.05 0 5.1 0 0 Z M-13 26 C-15.32177479 29.69373263 -15.20465074 32.95750127 -14.55078125 37.1328125 C-13.73456007 39.8998602 -12.26321242 41.28544514 -10 43 C-7.18010841 44.59628479 -7.18010841 44.59628479 0 44 C0 37.73 0 31.46 0 25 C-5.93370707 22.62651717 -7.9449869 22.2411441 -13 26 Z " fill="#DC1F27" transform="translate(110,157)"/>
<path d="M0 0 C1.16144531 -0.00515625 2.32289063 -0.0103125 3.51953125 -0.015625 C7.1875 0.25 7.1875 0.25 15.1875 2.25 C15.1875 14.46 15.1875 26.67 15.1875 39.25 C11.8875 39.25 8.5875 39.25 5.1875 39.25 C4.8575 38.59 4.5275 37.93 4.1875 37.25 C3.1975 37.91 2.2075 38.57 1.1875 39.25 C-1.5546875 39.515625 -1.5546875 39.515625 -4.6875 39.5 C-6.23050781 39.50773437 -6.23050781 39.50773437 -7.8046875 39.515625 C-11.90966906 39.15310715 -14.66364074 38.42935995 -17.578125 35.4375 C-21.94362926 29.0041253 -23.58600165 23.62056257 -22.46875 15.86328125 C-20.84565534 9.57378946 -17.16118491 5.78640156 -11.8125 2.25 C-7.80351207 0.22871798 -4.46619204 -0.01969655 0 0 Z M-7.8125 12.25 C-10.48559907 16.2596486 -10.8125 18.42156286 -10.8125 23.25 C-9.23819236 26.87090756 -8.12367074 28.04255284 -4.8125 30.25 C0.22751408 30.01787034 0.22751408 30.01787034 4.1875 27.25 C4.33267744 24.3406442 4.37380796 21.530054 4.3125 18.625 C4.30347656 17.82320312 4.29445312 17.02140625 4.28515625 16.1953125 C4.26156223 14.21341477 4.22569065 12.23167019 4.1875 10.25 C-0.55820218 9.78473508 -3.74687948 9.53958632 -7.8125 12.25 Z " fill="#DC1F27" transform="translate(146.8125,170.75)"/>
<path d="M0 0 C5.41531837 3.83034714 8.53845934 7.42079265 10.5625 13.8125 C11.56456857 20.48481023 10.16656702 26.12534838 6.5625 31.8125 C3.07882524 35.63271775 -0.30176501 37.62253628 -5.51171875 38.0859375 C-17.44572416 38.42137981 -17.44572416 38.42137981 -22.88671875 34.30859375 C-27.73097671 29.63516604 -29.25554543 25.54181848 -29.6875 19.0625 C-29.56308478 13.47418325 -28.42497977 8.95732192 -24.5625 4.7890625 C-17.37899787 -1.6813714 -9.34272305 -3.22748615 0 0 Z M-13.1875 8.9375 C-15.56860387 10.92175322 -16.53858186 11.8705861 -17.4375 14.8125 C-17.76531817 19.31999989 -17.61340896 22.80424665 -15.4375 26.8125 C-11.94625983 29.13999345 -10.54527749 29.31549316 -6.4375 28.8125 C-3.58969381 26.58043569 -2.58752334 25.26257001 -1.4375 21.8125 C-1.07204868 16.87890723 -1.1481052 13.65012726 -4.4375 9.8125 C-7.95910919 7.97513868 -9.46608296 7.41510212 -13.1875 8.9375 Z " fill="#DC1F27" transform="translate(229.4375,172.1875)"/>
<path d="M0 0 C4.60844041 2.66705243 7.55521475 6.409599 9.5625 11.3125 C10.21938222 17.91544598 10.71533968 24.82003462 6.5625 30.3125 C1.32626412 35.42752672 -1.73361013 37.46814696 -9.1875 37.5625 C-10.39921875 37.58828125 -11.6109375 37.6140625 -12.859375 37.640625 C-17.58518418 37.20725385 -20.80825226 35.81537003 -24.30078125 32.59375 C-24.77902344 32.0059375 -25.25726563 31.418125 -25.75 30.8125 C-26.24113281 30.2246875 -26.73226562 29.636875 -27.23828125 29.03125 C-30.61023129 24.19848772 -29.94975477 17.92595855 -29.4375 12.3125 C-27.84856828 6.94985545 -25.20041624 3.33288591 -20.4375 0.3125 C-13.89824345 -2.71574632 -6.61729225 -3.06080746 0 0 Z M-15.4375 9.3125 C-18.16955993 13.73258267 -18.21818284 18.27058999 -17.4375 23.3125 C-15.60098401 26.65071811 -15.60098401 26.65071811 -12.4375 28.3125 C-8.79924137 28.56661568 -8.79924137 28.56661568 -5.4375 27.3125 C-3.36962454 25.16821343 -2.51570826 23.83725221 -2.07421875 20.875 C-2.09097656 20.029375 -2.10773438 19.18375 -2.125 18.3125 C-2.12886719 17.466875 -2.13273437 16.62125 -2.13671875 15.75 C-2.45635468 13.15970362 -3.06130715 11.51831265 -4.4375 9.3125 C-8.40941896 6.74997164 -11.46558104 6.74997164 -15.4375 9.3125 Z " fill="#DC1F27" transform="translate(70.4375,172.6875)"/>
<path d="M0 0 C4.29 0 8.58 0 13 0 C14.17286739 2.9351605 15.33849007 5.87284842 16.5 8.8125 C16.83386719 9.64587891 17.16773437 10.47925781 17.51171875 11.33789062 C17.82753906 12.14033203 18.14335937 12.94277344 18.46875 13.76953125 C18.90864258 14.87711792 18.90864258 14.87711792 19.35742188 16.00708008 C20 18 20 18 20 21 C20.66 21 21.32 21 22 21 C22.10183594 20.34644531 22.20367188 19.69289062 22.30859375 19.01953125 C23.2079296 15.09192327 24.61632302 11.44219151 26.0625 7.6875 C26.34416016 6.94693359 26.62582031 6.20636719 26.91601562 5.44335938 C27.60718575 3.62757345 28.30311689 1.81360101 29 0 C33.29 0 37.58 0 42 0 C39.42635209 8.22664297 36.13647525 16.11978478 32.8125 24.0625 C32.24775709 25.41849914 31.68330172 26.77461807 31.11914062 28.13085938 C29.74940424 31.42195985 28.37579019 34.71142484 27 38 C23.04 38 19.08 38 15 38 C13.18431017 33.81948674 11.36956077 29.63856698 9.55566406 25.45727539 C8.93905762 24.03626604 8.32219882 22.61536617 7.70507812 21.19458008 C6.81573444 19.14693795 5.92731284 17.09889786 5.0390625 15.05078125 C4.76502594 14.4203743 4.49098938 13.78996735 4.20864868 13.14045715 C3.4670995 11.42927264 2.73328671 9.71474145 2 8 C1.60731934 7.09145264 1.21463867 6.18290527 0.81005859 5.24682617 C0 3 0 3 0 0 Z " fill="#DB1F27" transform="translate(0,172)"/>
<path d="M0 0 C1.11246094 -0.00515625 2.22492188 -0.0103125 3.37109375 -0.015625 C6.509509 0.24558949 8.73085425 0.91621546 11.5625 2.25 C10.6875 10 10.6875 10 9.5625 12.25 C8.9953125 12.09144531 8.428125 11.93289062 7.84375 11.76953125 C3.06841727 10.68199828 -1.65140751 10.24804567 -6 12.6875 C-8.15150957 16.52279967 -8.06115149 19.95548846 -7.4375 24.25 C-6.64176487 26.86760705 -6.64176487 26.86760705 -4.4375 28.25 C0.58728988 29.32085686 4.51040333 29.38672175 9.5625 28.25 C12.5625 33.875 12.5625 33.875 12.5625 37.25 C8.48225282 39.1859963 5.12396694 39.54784538 0.625 39.5625 C-0.55964844 39.57925781 -1.74429688 39.59601563 -2.96484375 39.61328125 C-9.281542 38.9524793 -13.40862622 36.04109314 -17.4375 31.25 C-20.56968205 25.52566728 -21.32279157 20.48504347 -20.00390625 14.17578125 C-18.07305441 7.87952524 -14.05432121 4.53185716 -8.6171875 1.1015625 C-5.67475589 -0.04798963 -3.15131396 -0.01457255 0 0 Z " fill="#DC1F27" transform="translate(186.4375,170.75)"/>
<path d="M0 0 C-0.33 0.99 -0.66 1.98 -1 3 C-1.66 3 -2.32 3 -3 3 C-3.33 4.32 -3.66 5.64 -4 7 C-4.66 7 -5.32 7 -6 7 C-6.309375 7.8353125 -6.309375 7.8353125 -6.625 8.6875 C-8 11 -8 11 -10.9375 13.4375 C-13.8835363 15.90255078 -15.12385425 17.73713783 -17 21 C-19.5625 23.8125 -19.5625 23.8125 -22 26 C-22.66 26 -23.32 26 -24 26 C-24.12906738 26.58555664 -24.25813477 27.17111328 -24.39111328 27.77441406 C-24.97663285 29.91458905 -25.72230285 31.64574016 -26.7421875 33.609375 C-27.25845703 34.61871094 -27.25845703 34.61871094 -27.78515625 35.6484375 C-28.50367738 37.03397288 -29.22242222 38.41939227 -29.94140625 39.8046875 C-32.31421995 44.44446448 -34.24950053 49.08979394 -36 54 C-36.66 54 -37.32 54 -38 54 C-38.20710863 48.35785885 -37.68801342 43.58691469 -35.9375 38.1875 C-35.71416992 37.49317871 -35.49083984 36.79885742 -35.26074219 36.08349609 C-30.7745816 22.89052178 -15.83662317 0 0 0 Z " fill="#F48668" transform="translate(151,16)"/>
<path d="M0 0 C-0.50789063 0.38929687 -1.01578125 0.77859375 -1.5390625 1.1796875 C-7.84851012 6.30759062 -12.4074107 12.2222321 -15 20 C-17.34432548 21.35327565 -19.62026711 22.5439716 -22.0625 23.6875 C-22.72572266 24.00783203 -23.38894531 24.32816406 -24.07226562 24.65820312 C-25.71050858 25.4478598 -27.35471454 26.22512362 -29 27 C-29 26.01 -29 25.02 -29 24 C-28.01 23.34 -27.02 22.68 -26 22 C-25.566875 21.236875 -25.13375 20.47375 -24.6875 19.6875 C-22.6045455 16.37020209 -20.0577883 14.42074907 -17 12 C-14.59172444 9.84085639 -14.0588097 9.17642911 -13 6 C-11.4375 4.3125 -11.4375 4.3125 -10 3 C-10.66 2.67 -11.32 2.34 -12 2 C-10.56656 1.46809459 -9.12804633 0.94984742 -7.6875 0.4375 C-6.88699219 0.14746094 -6.08648437 -0.14257812 -5.26171875 -0.44140625 C-3 -1 -3 -1 0 0 Z " fill="#F2674C" transform="translate(161,13)"/>
<path d="M0 0 C-2.97 0.66 -5.94 1.32 -9 2 C-9 2.66 -9 3.32 -9 4 C-9.75023437 4.3403125 -10.50046875 4.680625 -11.2734375 5.03125 C-25.97037222 11.9910075 -39.32705528 22.94926593 -44.98046875 38.73828125 C-45.48513672 39.85783203 -45.48513672 39.85783203 -46 41 C-47.485 41.495 -47.485 41.495 -49 42 C-44.61498572 26.265537 -33.8817867 13.83048157 -19.91015625 5.5078125 C-6.25950197 -1.56487549 -6.25950197 -1.56487549 0 0 Z " fill="#CE2B30" transform="translate(163,10)"/>
<path d="M0 0 C-2 2 -2 2 -4.8125 3.375 C-11.37987061 6.72307129 -14.18383223 10.59158813 -17.66796875 16.953125 C-18.10753906 17.62859375 -18.54710937 18.3040625 -19 19 C-19.66 19 -20.32 19 -21 19 C-20.9278125 18.38511719 -20.855625 17.77023438 -20.78125 17.13671875 C-20.6884375 16.32847656 -20.595625 15.52023438 -20.5 14.6875 C-20.4071875 13.88699219 -20.314375 13.08648437 -20.21875 12.26171875 C-19.95186537 9.88103445 -19.95186537 9.88103445 -20 7 C-19.67 6.34 -19.34 5.68 -19 5 C-20.98 5 -22.96 5 -25 5 C-16.72788984 -0.51474011 -9.62059054 -0.33430624 0 0 Z " fill="#D82229" transform="translate(179,8)"/>
<path d="M0 0 C0.66 0.33 1.32 0.66 2 1 C-3.81099591 11.77056385 -10.30106547 18.10035516 -22 22 C-23.72795352 22.06802967 -25.45835365 22.08495645 -27.1875 22.0625 C-28.53908203 22.04896484 -28.53908203 22.04896484 -29.91796875 22.03515625 C-30.60503906 22.02355469 -31.29210937 22.01195313 -32 22 C-28.81141458 18.81141458 -24.60389626 18.85155269 -20.26171875 18.07421875 C-16.31780397 16.77532466 -14.75543457 15.06845194 -12 12 C-9.12697081 9.38208952 -6.22912098 6.79388195 -3.328125 4.20703125 C-0.96864581 2.22182243 -0.96864581 2.22182243 0 0 Z " fill="#90181B" transform="translate(183,86)"/>
<path d="M0 0 C0.66 0.33 1.32 0.66 2 1 C-0.6516491 5.88461676 -3.57961219 10.19320406 -9 12 C-9.71617538 13.64599971 -10.37147417 15.31857872 -11 17 C-12.34324417 19.30077766 -13.70454117 21.56134882 -15.125 23.8125 C-15.49753906 24.40998047 -15.87007813 25.00746094 -16.25390625 25.62304688 C-17.1657048 27.08426251 -18.08235976 28.54244585 -19 30 C-19.8944862 27.53594369 -20.09724895 26.30290655 -19.28515625 23.7734375 C-14.45374789 14.29585049 -8.34258113 6.60454339 0 0 Z " fill="#FCCFBE" transform="translate(137,23)"/>
<path d="M0 0 C0.66 0.33 1.32 0.66 2 1 C1.63648437 1.54785156 1.27296875 2.09570312 0.8984375 2.66015625 C-3.80295479 10.07389024 -6.92466039 17.8209053 -10 26 C-10.66 26 -11.32 26 -12 26 C-12.36608293 19.53253493 -11.90722245 12.89382299 -9 7 C-6.53125 5.84375 -6.53125 5.84375 -4 5 C-1.70422757 2.48593689 -1.70422757 2.48593689 0 0 Z " fill="#F04E3D" transform="translate(125,44)"/>
<path d="M0 0 C6.625 0.75 6.625 0.75 10 3 C12.20841938 3.63078339 12.20841938 3.63078339 14.5625 4.0625 C16.94015535 4.53490771 18.82870329 4.91435164 21 6 C28.5413741 7.54255379 37.29168258 8.06232232 44.8046875 6.3671875 C45.52914062 6.24601563 46.25359375 6.12484375 47 6 C47.66 6.66 48.32 7.32 49 8 C32.08609421 11.28140444 15.34355629 8.67177815 0 1 C0 0.67 0 0.34 0 0 Z " fill="#A7ACB5" transform="translate(116,134)"/>
<path d="M0 0 C-3.22618988 4.94010325 -6.59903601 8.64666811 -11.1328125 12.421875 C-13.01839037 13.95719891 -13.01839037 13.95719891 -14.6171875 15.703125 C-16 17 -16 17 -18 17 C-18.268125 17.78375 -18.53625 18.5675 -18.8125 19.375 C-20 22 -20 22 -23 24 C-21.59449154 19.52792762 -19.3635857 17.19950835 -16 14 C-15.443125 13.236875 -14.88625 12.47375 -14.3125 11.6875 C-13.6628125 10.8521875 -13.6628125 10.8521875 -13 10 C-12.34 10 -11.68 10 -11 10 C-10.690625 8.39125 -10.690625 8.39125 -10.375 6.75 C-8.53700153 1.73727689 -5.54465688 -1.84821896 0 0 Z " fill="#F6997E" transform="translate(147,19)"/>
<path d="M0 0 C0.66 0.33 1.32 0.66 2 1 C1.05141656 4.86781559 0.19648434 5.87819856 -3.2578125 8.01953125 C-4.53906972 8.63374218 -5.82855741 9.23102624 -7.125 9.8125 C-7.78371094 10.12380859 -8.44242188 10.43511719 -9.12109375 10.75585938 C-10.74053724 11.51864073 -12.36941305 12.26133986 -14 13 C-14 12.01 -14 11.02 -14 10 C-10.66666667 7 -10.66666667 7 -8 7 C-7.67 6.01 -7.34 5.02 -7 4 C-4.78406817 2.28945613 -2.53809348 1.24678276 0 0 Z " fill="#EF4737" transform="translate(146,27)"/>
<path d="M0 0 C0.66 0.33 1.32 0.66 2 1 C-0.26426005 4.4008298 -2.30423236 7.44051204 -6.296875 8.7578125 C-10.57579109 9.30316455 -12.2938193 9.47078713 -16 7 C-14.42032193 6.32471777 -12.83608097 5.66010306 -11.25 5 C-10.36828125 4.62875 -9.4865625 4.2575 -8.578125 3.875 C-6 3 -6 3 -2 3 C-2 2.34 -2 1.68 -2 1 C-1.34 0.67 -0.68 0.34 0 0 Z " fill="#B21E23" transform="translate(160,95)"/>
<path d="M0 0 C0.33 0 0.66 0 1 0 C2.51652154 10.4260856 1.79937745 19.60538208 0 30 C-1.0625 28.1875 -1.0625 28.1875 -2 26 C-1.505 24.515 -1.505 24.515 -1 23 C-1 21.865625 -1 20.73125 -1 19.5625 C-1 16 -1 16 -0.50390625 14.16796875 C0.15682502 11.32528769 0.09418114 8.66466533 0.0625 5.75 C0.05347656 4.67234375 0.04445312 3.5946875 0.03515625 2.484375 C0.02355469 1.66453125 0.01195312 0.8446875 0 0 Z " fill="#A3A2AC" transform="translate(220,59)"/>
<path d="M0 0 C-2.80804268 2.96404505 -5.18315774 5.44499019 -9 7 C-9 7.66 -9 8.32 -9 9 C-13.31818182 13.65909091 -13.31818182 13.65909091 -16 15 C-14.71191248 9.96474879 -12.78504829 7.50116967 -9 4 C-8.34 3.01 -7.68 2.02 -7 1 C-2.5 -1.25 -2.5 -1.25 0 0 Z " fill="#F37B5F" transform="translate(136,35)"/>
<path d="M0 0 C2.66666667 1.33333333 5.33333333 2.66666667 8 4 C8 4.66 8 5.32 8 6 C8.66 6.33 9.32 6.66 10 7 C10 7.99 10 8.98 10 10 C7.00779732 8.63629701 4.70973471 7.05091917 2.25 4.875 C1.63640625 4.33617188 1.0228125 3.79734375 0.390625 3.2421875 C-0.06828125 2.83226563 -0.5271875 2.42234375 -1 2 C-0.67 1.34 -0.34 0.68 0 0 Z " fill="#D0242B" transform="translate(122,96)"/>
<path d="M0 0 C-2.97 0.66 -5.94 1.32 -9 2 C-9 2.66 -9 3.32 -9 4 C-15.96428571 7.34821429 -15.96428571 7.34821429 -20 6 C-5.67310167 -1.41827542 -5.67310167 -1.41827542 0 0 Z " fill="#AE454D" transform="translate(163,10)"/>
<path d="M0 0 C0.33 0.99 0.66 1.98 1 3 C-0.11878383 4.17262904 -1.24523051 5.33795138 -2.375 6.5 C-3.00148437 7.1496875 -3.62796875 7.799375 -4.2734375 8.46875 C-6 10 -6 10 -8 10 C-8.268125 10.78375 -8.53625 11.5675 -8.8125 12.375 C-10 15 -10 15 -13 17 C-11.59449154 12.52792762 -9.3635857 10.19950835 -6 7 C-5.443125 6.236875 -4.88625 5.47375 -4.3125 4.6875 C-3.6628125 3.8521875 -3.6628125 3.8521875 -3 3 C-2.34 3 -1.68 3 -1 3 C-0.67 2.01 -0.34 1.02 0 0 Z " fill="#F8AB91" transform="translate(137,26)"/>
<path d="M0 0 C-0.83144531 0.72316406 -0.83144531 0.72316406 -1.6796875 1.4609375 C-2.40414062 2.09257812 -3.12859375 2.72421875 -3.875 3.375 C-4.59429687 4.00148438 -5.31359375 4.62796875 -6.0546875 5.2734375 C-7.4076598 6.47426834 -8.7208345 7.7208345 -10 9 C-9.42415568 6.61435923 -8.77772405 4.33317216 -8 2 C-8.66 1.67 -9.32 1.34 -10 1 C-3.375 -1.125 -3.375 -1.125 0 0 Z " fill="#F0503D" transform="translate(161,13)"/>
<path d="M0 0 C0.33 0.66 0.66 1.32 1 2 C0.67 2.66 0.34 3.32 0 4 C-0.66 4 -1.32 4 -2 4 C-2.04898438 4.61488281 -2.09796875 5.22976562 -2.1484375 5.86328125 C-2.22320312 6.67152344 -2.29796875 7.47976562 -2.375 8.3125 C-2.44460937 9.11300781 -2.51421875 9.91351563 -2.5859375 10.73828125 C-3 13 -3 13 -5 16 C-5.1921227 10.52450293 -4.99186369 6.13691161 -3 1 C-2.01 0.67 -1.02 0.34 0 0 Z " fill="#F58D74" transform="translate(119,50)"/>
<path d="M0 0 C5.56261684 1.30885102 8.1146132 5.38885971 11 10 C11.33 10.99 11.66 11.98 12 13 C11.01 13.495 11.01 13.495 10 14 C9.61328125 13.40832031 9.2265625 12.81664062 8.828125 12.20703125 C6.04615051 7.98586699 3.25370649 3.87941928 0 0 Z " fill="#BD2026" transform="translate(174,45)"/>
<path d="M0 0 C1.48484412 0.39595843 2.9628831 0.81750706 4.4375 1.25 C5.26121094 1.48203125 6.08492187 1.7140625 6.93359375 1.953125 C9 3 9 3 9.78515625 5.109375 C9.85605469 5.73328125 9.92695313 6.3571875 10 7 C6.66666667 5.66666667 3.33333333 4.33333333 0 3 C0 2.01 0 1.02 0 0 Z " fill="#C0C1C7" transform="translate(165,37)"/>
<path d="M0 0 C0.66 0.33 1.32 0.66 2 1 C1.00310315 4.68851835 0.31080309 5.80574807 -3 7.875 C-3.99 8.24625 -4.98 8.6175 -6 9 C-6.66 8.67 -7.32 8.34 -8 8 C-7.071875 7.6596875 -7.071875 7.6596875 -6.125 7.3125 C-3.37739861 5.61545208 -3.06789821 3.97485929 -2 1 C-1.34 0.67 -0.68 0.34 0 0 Z " fill="#EE352F" transform="translate(146,27)"/>
<path d="M0 0 C0 3.44360632 -0.79591532 4.74795392 -2.5 7.6875 C-2.9640625 8.49574219 -3.428125 9.30398437 -3.90625 10.13671875 C-4.2671875 10.75160156 -4.628125 11.36648437 -5 12 C-6.01932926 8.81803974 -6.06554055 8.16385138 -4.75 4.875 C-3 2 -3 2 0 0 Z " fill="#FBC6B6" transform="translate(123,41)"/>
<path d="M0 0 C0.8125 1.6875 0.8125 1.6875 1 4 C-1.1613627 6.51185394 -3.01962439 8.50981219 -6 10 C-4.6302836 6.00499382 -2.74277578 3.19990508 0 0 Z " fill="#FDE0D2" transform="translate(127,33)"/>
<path d="M0 0 C0.66 0 1.32 0 2 0 C1.57405412 1.44096586 1.13373367 2.87768712 0.6875 4.3125 C0.44386719 5.11300781 0.20023438 5.91351563 -0.05078125 6.73828125 C-1.04182023 9.09964573 -2.08074943 10.33879993 -4 12 C-4.33 11.34 -4.66 10.68 -5 10 C-4.00390625 7.6171875 -4.00390625 7.6171875 -2.5625 4.875 C-1.85287109 3.50988281 -1.85287109 3.50988281 -1.12890625 2.1171875 C-0.75636719 1.41851562 -0.38382813 0.71984375 0 0 Z " fill="#A6A1AA" transform="translate(215,96)"/>
<path d="M0 0 C0.33 0 0.66 0 1 0 C1 3.63 1 7.26 1 11 C-2 7 -2 7 -1.75 4.375 C-1 2 -1 2 0 0 Z " fill="#CC2C33" transform="translate(115,77)"/>
<path d="M0 0 C0.66 0.66 1.32 1.32 2 2 C0.02 4.64 -1.96 7.28 -4 10 C-4.66 9.34 -5.32 8.68 -6 8 C-4.02 5.36 -2.04 2.72 0 0 Z " fill="#A0A6B0" transform="translate(209,108)"/>
<path d="M0 0 C2.64752004 2.57784846 4.94432065 4.91648098 7 8 C5.68 8.33 4.36 8.66 3 9 C0 3.375 0 3.375 0 0 Z " fill="#BC1E24" transform="translate(118,83)"/>
<path d="M0 0 C0.66 0.33 1.32 0.66 2 1 C1.34 4.63 0.68 8.26 0 12 C-2.61577816 6.76844369 -1.6207859 5.40261966 0 0 Z " fill="#E21B23" transform="translate(157,26)"/>
<path d="M0 0 C0.66 0.33 1.32 0.66 2 1 C-0.625 5.875 -0.625 5.875 -4 7 C-4.33 6.01 -4.66 5.02 -5 4 C-3.35 2.68 -1.7 1.36 0 0 Z " fill="#FAC0AD" transform="translate(137,23)"/>
<path d="M0 0 C5.78461538 3.44615385 5.78461538 3.44615385 6.875 6.25 C6.936875 7.11625 6.936875 7.11625 7 8 C3.83282717 6.41641358 2.26731682 5.54736301 0.6875 2.3125 C0.460625 1.549375 0.23375 0.78625 0 0 Z " fill="#D4D6DA" transform="translate(177,43)"/>
<path d="M0 0 C2.99324263 1.0975223 3.84610901 1.67682892 5.25 4.625 C5.4975 5.40875 5.745 6.1925 6 7 C2.63279613 5.60667426 1.0140476 4.0210714 -1 1 C-0.67 0.67 -0.34 0.34 0 0 Z " fill="#C33037" transform="translate(122,96)"/>
<path d="M0 0 C0.33 0 0.66 0 1 0 C1.36923077 5.53846154 1.36923077 5.53846154 -0.5 7.875 C-1.2425 8.431875 -1.2425 8.431875 -2 9 C-2.33 8.34 -2.66 7.68 -3 7 C-2.06421005 4.64018187 -1.06652192 2.30368736 0 0 Z " fill="#C53136" transform="translate(117,43)"/>
<path d="M0 0 C0.99 0.33 1.98 0.66 3 1 C1.35 2.65 -0.3 4.3 -2 6 C-2.99 5.67 -3.98 5.34 -5 5 C-3.35 3.35 -1.7 1.7 0 0 Z " fill="#D21E24" transform="translate(131,25)"/>
<path d="M0 0 C0.99 0.33 1.98 0.66 3 1 C1.35 2.65 -0.3 4.3 -2 6 C-2.33 4.68 -2.66 3.36 -3 2 C-2.01 1.34 -1.02 0.68 0 0 Z " fill="#F8AC94" transform="translate(141,20)"/>
</svg>
