<svg width="712" height="712" viewBox="0 0 712 712" fill="none" xmlns="http://www.w3.org/2000/svg">
    <circle cx="351" cy="314" r="242.5" stroke="#15046E" stroke-width="27"/>
    <path d="M537.258 219.367V273.127H531.984C528.859 260.725 525.393 251.838 521.584 246.467C517.775 240.998 512.551 236.652 505.91 233.43C502.199 231.672 495.705 230.793 486.428 230.793H471.633V384.016C471.633 394.172 472.17 400.52 473.244 403.059C474.416 405.598 476.613 407.844 479.836 409.797C483.156 411.652 487.648 412.58 493.312 412.58H499.904V418H395.9V412.58H402.492C408.254 412.58 412.893 411.555 416.408 409.504C418.947 408.137 420.949 405.793 422.414 402.473C423.488 400.129 424.025 393.977 424.025 384.016V230.793H409.67C396.291 230.793 386.574 233.625 380.52 239.289C372.023 247.199 366.652 258.479 364.406 273.127H358.84V219.367H537.258Z" fill="#FF1717"/>
    <path d="M537.258 219.367H542.258V214.367H537.258V219.367ZM537.258 273.127V278.127H542.258V273.127H537.258ZM531.984 273.127L527.136 274.349L528.088 278.127H531.984V273.127ZM521.584 246.467L517.481 249.324L517.493 249.342L517.505 249.359L521.584 246.467ZM505.91 233.43L508.093 228.931L508.072 228.921L508.051 228.911L505.91 233.43ZM471.633 230.793V225.793H466.633V230.793H471.633ZM473.244 403.059L468.639 405.007L468.671 405.081L468.704 405.154L473.244 403.059ZM479.836 409.797L477.244 414.073L477.32 414.119L477.397 414.162L479.836 409.797ZM499.904 412.58H504.904V407.58H499.904V412.58ZM499.904 418V423H504.904V418H499.904ZM395.9 418H390.9V423H395.9V418ZM395.9 412.58V407.58H390.9V412.58H395.9ZM416.408 409.504L414.038 405.102L413.963 405.142L413.889 405.185L416.408 409.504ZM422.414 402.473L417.869 400.389L417.854 400.422L417.839 400.454L422.414 402.473ZM424.025 230.793H429.025V225.793H424.025V230.793ZM380.52 239.289L383.927 242.949L383.935 242.94L380.52 239.289ZM364.406 273.127V278.127H368.698L369.348 273.885L364.406 273.127ZM358.84 273.127H353.84V278.127H358.84V273.127ZM358.84 219.367V214.367H353.84V219.367H358.84ZM532.258 219.367V273.127H542.258V219.367H532.258ZM537.258 268.127H531.984V278.127H537.258V268.127ZM536.833 271.905C533.672 259.36 530.026 249.728 525.663 243.575L517.505 249.359C520.759 253.948 524.047 262.089 527.136 274.349L536.833 271.905ZM525.687 243.609C521.338 237.365 515.419 232.487 508.093 228.931L503.727 237.928C509.683 240.818 514.213 244.631 517.481 249.324L525.687 243.609ZM508.051 228.911C503.239 226.632 495.74 225.793 486.428 225.793V235.793C495.67 235.793 501.159 236.712 503.77 237.948L508.051 228.911ZM486.428 225.793H471.633V235.793H486.428V225.793ZM466.633 230.793V384.016H476.633V230.793H466.633ZM466.633 384.016C466.633 389.163 466.768 393.444 467.053 396.815C467.324 400.008 467.764 402.938 468.639 405.007L477.849 401.11C477.65 400.64 477.285 399.127 477.018 395.972C476.766 392.995 476.633 389.025 476.633 384.016H466.633ZM468.704 405.154C470.416 408.863 473.459 411.779 477.244 414.073L482.427 405.521C479.767 403.909 478.416 402.332 477.784 400.963L468.704 405.154ZM477.397 414.162C481.74 416.589 487.181 417.58 493.312 417.58V407.58C488.116 407.58 484.573 406.716 482.275 405.432L477.397 414.162ZM493.312 417.58H499.904V407.58H493.312V417.58ZM494.904 412.58V418H504.904V412.58H494.904ZM499.904 413H395.9V423H499.904V413ZM400.9 418V412.58H390.9V418H400.9ZM395.9 417.58H402.492V407.58H395.9V417.58ZM402.492 417.58C408.791 417.58 414.394 416.467 418.928 413.823L413.889 405.185C411.391 406.642 407.717 407.58 402.492 407.58V417.58ZM418.779 413.906C422.527 411.888 425.193 408.561 426.989 404.491L417.839 400.454C416.706 403.025 415.368 404.385 414.038 405.102L418.779 413.906ZM426.959 404.556C427.894 402.517 428.336 399.606 428.604 396.535C428.89 393.255 429.025 389.065 429.025 384.016H419.025C419.025 388.927 418.892 392.794 418.642 395.666C418.516 397.101 418.367 398.224 418.207 399.069C418.127 399.488 418.051 399.808 417.983 400.044C417.95 400.16 417.922 400.246 417.9 400.307C417.879 400.368 417.867 400.393 417.869 400.389L426.959 404.556ZM429.025 384.016V230.793H419.025V384.016H429.025ZM424.025 225.793H409.67V235.793H424.025V225.793ZM409.67 225.793C395.762 225.793 384.511 228.708 377.104 235.638L383.935 242.94C388.637 238.542 396.82 235.793 409.67 235.793V225.793ZM377.112 235.63C367.588 244.497 361.833 256.92 359.464 272.369L369.348 273.885C371.472 260.037 376.459 249.901 383.927 242.949L377.112 235.63ZM364.406 268.127H358.84V278.127H364.406V268.127ZM363.84 273.127V219.367H353.84V273.127H363.84ZM358.84 224.367H537.258V214.367H358.84V224.367Z" fill="#FF1717"/>
    <path d="M331.244 214.826V283.674H325.531C321.234 265.705 313.227 251.936 301.508 242.365C289.789 232.795 276.508 228.01 261.664 228.01C249.262 228.01 237.885 231.574 227.533 238.703C217.182 245.832 209.613 255.158 204.828 266.682C198.676 281.428 195.6 297.834 195.6 315.9C195.6 333.674 197.846 349.885 202.338 364.533C206.83 379.084 213.861 390.119 223.432 397.639C233.002 405.061 245.404 408.771 260.639 408.771C273.139 408.771 284.564 406.037 294.916 400.568C305.365 395.1 316.352 385.676 327.875 372.297V389.436C316.742 401.057 305.121 409.504 293.012 414.777C281 419.953 266.938 422.541 250.824 422.541C229.633 422.541 210.785 418.293 194.281 409.797C177.875 401.301 165.18 389.094 156.195 373.176C147.309 357.258 142.865 340.314 142.865 322.346C142.865 303.4 147.797 285.432 157.66 268.439C167.621 251.447 181 238.264 197.797 228.889C214.691 219.514 232.611 214.826 251.557 214.826C265.521 214.826 280.268 217.854 295.795 223.908C304.779 227.424 310.492 229.182 312.934 229.182C316.059 229.182 318.744 228.059 320.99 225.812C323.334 223.469 324.848 219.807 325.531 214.826H331.244Z" fill="#15046E"/>
    <path d="M331.244 214.826H336.244V209.826H331.244V214.826ZM331.244 283.674V288.674H336.244V283.674H331.244ZM325.531 283.674L320.668 284.837L321.586 288.674H325.531V283.674ZM204.828 266.682L209.443 268.607L209.446 268.599L204.828 266.682ZM202.338 364.533L197.558 365.999L197.56 366.008L202.338 364.533ZM223.432 397.639L220.343 401.57L220.355 401.58L220.368 401.59L223.432 397.639ZM294.916 400.568L292.598 396.138L292.589 396.143L292.58 396.147L294.916 400.568ZM327.875 372.297H332.875V358.83L324.087 369.034L327.875 372.297ZM327.875 389.436L331.486 392.894L332.875 391.444V389.436H327.875ZM293.012 414.777L294.99 419.369L294.999 419.365L295.008 419.362L293.012 414.777ZM194.281 409.797L191.982 414.237L191.993 414.242L194.281 409.797ZM156.195 373.176L151.83 375.613L151.835 375.623L151.841 375.633L156.195 373.176ZM157.66 268.439L153.347 265.911L153.341 265.92L153.336 265.929L157.66 268.439ZM197.797 228.889L195.371 224.517L195.36 224.523L197.797 228.889ZM295.795 223.908L297.617 219.252L297.611 219.25L295.795 223.908ZM325.531 214.826V209.826H321.171L320.578 214.146L325.531 214.826ZM326.244 214.826V283.674H336.244V214.826H326.244ZM331.244 278.674H325.531V288.674H331.244V278.674ZM330.394 282.511C325.9 263.718 317.411 248.898 304.67 238.493L298.345 246.238C309.042 254.973 316.568 267.692 320.668 284.837L330.394 282.511ZM304.67 238.493C292.078 228.208 277.684 223.01 261.664 223.01V233.01C275.331 233.01 287.5 237.381 298.345 246.238L304.67 238.493ZM261.664 223.01C248.234 223.01 235.871 226.89 224.697 234.585L230.369 242.821C239.899 236.258 250.289 233.01 261.664 233.01V223.01ZM224.697 234.585C213.558 242.256 205.368 252.344 200.21 264.764L209.446 268.599C213.859 257.972 220.805 249.408 230.369 242.821L224.697 234.585ZM200.214 264.756C193.776 280.187 190.6 297.259 190.6 315.9H200.6C200.6 298.409 203.576 282.668 209.443 268.607L200.214 264.756ZM190.6 315.9C190.6 334.093 192.899 350.807 197.558 365.999L207.118 363.067C202.793 348.963 200.6 333.255 200.6 315.9H190.6ZM197.56 366.008C202.277 381.285 209.792 393.281 220.343 401.57L226.521 393.707C217.931 386.958 211.383 376.883 207.115 363.058L197.56 366.008ZM220.368 401.59C231.02 409.851 244.586 413.771 260.639 413.771V403.771C246.223 403.771 234.984 400.27 226.496 393.688L220.368 401.59ZM260.639 413.771C273.896 413.771 286.132 410.864 297.252 404.989L292.58 396.147C282.997 401.21 272.381 403.771 260.639 403.771V413.771ZM297.235 404.998C308.449 399.129 319.913 389.202 331.663 375.56L324.087 369.034C312.79 382.149 302.282 391.07 292.598 396.138L297.235 404.998ZM322.875 372.297V389.436H332.875V372.297H322.875ZM324.264 385.977C313.492 397.221 302.4 405.235 291.015 410.193L295.008 419.362C307.842 413.773 319.992 404.892 331.486 392.894L324.264 385.977ZM291.033 410.185C279.773 415.037 266.411 417.541 250.824 417.541V427.541C267.464 427.541 282.227 424.869 294.99 419.369L291.033 410.185ZM250.824 417.541C230.315 417.541 212.271 413.434 196.57 405.351L191.993 414.242C209.299 423.152 228.95 427.541 250.824 427.541V417.541ZM196.581 405.357C181.028 397.303 169.051 385.78 160.55 370.718L151.841 375.633C161.309 392.408 174.722 405.299 191.982 414.237L196.581 405.357ZM160.561 370.738C152.084 355.554 147.865 339.448 147.865 322.346H137.865C137.865 341.181 142.533 358.961 151.83 375.613L160.561 370.738ZM147.865 322.346C147.865 304.316 152.547 287.209 161.984 270.95L153.336 265.929C143.047 283.655 137.865 302.485 137.865 322.346H147.865ZM161.974 270.968C171.495 254.725 184.234 242.185 200.234 233.255L195.36 224.523C177.766 234.343 163.747 248.169 153.347 265.911L161.974 270.968ZM200.223 233.261C216.391 224.289 233.478 219.826 251.557 219.826V209.826C231.745 209.826 212.992 214.738 195.371 224.517L200.223 233.261ZM251.557 219.826C264.792 219.826 278.921 222.695 293.978 228.567L297.611 219.25C281.614 213.012 266.25 209.826 251.557 209.826V219.826ZM293.973 228.564C298.52 230.344 302.323 231.712 305.347 232.642C308.189 233.516 310.879 234.182 312.934 234.182V224.182C312.547 224.182 311.16 223.968 308.288 223.084C305.6 222.257 302.054 220.988 297.617 219.252L293.973 228.564ZM312.934 234.182C317.409 234.182 321.359 232.514 324.526 229.348L317.455 222.277C316.129 223.603 314.708 224.182 312.934 224.182V234.182ZM324.526 229.348C327.949 225.925 329.725 221.038 330.485 215.506L320.578 214.146C319.97 218.575 318.719 221.012 317.455 222.277L324.526 229.348ZM325.531 219.826H331.244V209.826H325.531V219.826Z" fill="#15046E"/>
    <path d="M129.479 638.187V639H113.901V638.187H114.89C115.754 638.187 116.45 638.033 116.977 637.726C117.358 637.521 117.651 637.169 117.856 636.671C118.017 636.319 118.098 635.396 118.098 633.902V614.303C118.098 612.779 118.017 611.827 117.856 611.446C117.695 611.065 117.365 610.736 116.867 610.458C116.384 610.165 115.725 610.018 114.89 610.018H113.901V609.205H129.479V610.018H128.491C127.626 610.018 126.931 610.172 126.403 610.479C126.022 610.685 125.722 611.036 125.502 611.534C125.341 611.886 125.261 612.809 125.261 614.303V633.902C125.261 635.426 125.341 636.378 125.502 636.759C125.678 637.14 126.008 637.477 126.491 637.77C126.989 638.048 127.656 638.187 128.491 638.187H129.479ZM154.115 609.205L168.815 627.684V614.874C168.815 613.087 168.559 611.878 168.046 611.249C167.343 610.399 166.164 609.989 164.508 610.018V609.205H174.352V610.018C173.092 610.179 172.243 610.392 171.803 610.655C171.378 610.904 171.042 611.322 170.792 611.908C170.558 612.479 170.441 613.468 170.441 614.874V639.681H169.694L149.545 614.874V633.814C149.545 635.528 149.933 636.686 150.709 637.286C151.5 637.887 152.401 638.187 153.412 638.187H154.115V639H143.546V638.187C145.187 638.172 146.33 637.835 146.974 637.176C147.619 636.517 147.941 635.396 147.941 633.814V612.787L147.304 611.996C146.674 611.205 146.117 610.685 145.634 610.436C145.15 610.187 144.455 610.047 143.546 610.018V609.205H154.115ZM208.941 608.524L209.183 618.456H208.282C207.857 615.965 206.81 613.966 205.14 612.457C203.485 610.934 201.69 610.172 199.757 610.172C198.263 610.172 197.076 610.575 196.197 611.38C195.333 612.171 194.901 613.087 194.901 614.127C194.901 614.786 195.055 615.372 195.362 615.885C195.787 616.573 196.468 617.254 197.406 617.928C198.094 618.412 199.684 619.269 202.174 620.499C205.66 622.213 208.011 623.832 209.227 625.355C210.428 626.878 211.029 628.622 211.029 630.584C211.029 633.075 210.055 635.221 208.106 637.022C206.173 638.81 203.712 639.703 200.724 639.703C199.786 639.703 198.9 639.608 198.065 639.417C197.23 639.227 196.183 638.868 194.923 638.341C194.22 638.048 193.641 637.901 193.187 637.901C192.806 637.901 192.403 638.048 191.979 638.341C191.554 638.634 191.209 639.081 190.946 639.681H190.133V628.431H190.946C191.59 631.595 192.828 634.012 194.659 635.682C196.505 637.337 198.49 638.165 200.614 638.165C202.254 638.165 203.558 637.718 204.525 636.825C205.506 635.931 205.997 634.891 205.997 633.705C205.997 633.001 205.807 632.32 205.426 631.661C205.06 631.002 204.496 630.379 203.734 629.793C202.972 629.193 201.625 628.417 199.691 627.464C196.981 626.131 195.033 624.996 193.846 624.059C192.66 623.121 191.744 622.074 191.1 620.917C190.47 619.759 190.155 618.485 190.155 617.093C190.155 614.72 191.026 612.699 192.77 611.029C194.513 609.359 196.71 608.524 199.361 608.524C200.328 608.524 201.266 608.641 202.174 608.875C202.862 609.051 203.697 609.381 204.679 609.864C205.675 610.333 206.371 610.567 206.766 610.567C207.147 610.567 207.447 610.45 207.667 610.216C207.887 609.981 208.092 609.417 208.282 608.524H208.941ZM253.616 609.205V617.269H252.825C252.356 615.409 251.836 614.076 251.265 613.27C250.694 612.45 249.91 611.798 248.914 611.314C248.357 611.051 247.383 610.919 245.992 610.919H243.772V633.902C243.772 635.426 243.853 636.378 244.014 636.759C244.19 637.14 244.52 637.477 245.003 637.77C245.501 638.048 246.175 638.187 247.024 638.187H248.013V639H232.413V638.187H233.401C234.266 638.187 234.961 638.033 235.489 637.726C235.87 637.521 236.17 637.169 236.39 636.671C236.551 636.319 236.631 635.396 236.631 633.902V610.919H234.478C232.471 610.919 231.014 611.344 230.105 612.193C228.831 613.38 228.025 615.072 227.688 617.269H226.854V609.205H253.616ZM282.998 630.519H272.473L271.221 633.419C270.811 634.386 270.605 635.184 270.605 635.814C270.605 636.649 270.942 637.264 271.616 637.66C272.012 637.894 272.986 638.07 274.539 638.187V639H264.629V638.187C265.698 638.026 266.577 637.586 267.266 636.869C267.954 636.136 268.804 634.635 269.814 632.364L280.471 608.59H280.889L291.633 633.023C292.659 635.338 293.501 636.795 294.16 637.396C294.658 637.85 295.361 638.114 296.27 638.187V639H281.855V638.187H282.449C283.606 638.187 284.419 638.026 284.888 637.704C285.21 637.469 285.371 637.132 285.371 636.693C285.371 636.429 285.327 636.158 285.239 635.88C285.21 635.748 284.99 635.199 284.58 634.232L282.998 630.519ZM282.251 628.893L277.812 618.631L273.242 628.893H282.251ZM320.378 609.205L335.078 627.684V614.874C335.078 613.087 334.821 611.878 334.309 611.249C333.605 610.399 332.426 609.989 330.771 610.018V609.205H340.615V610.018C339.355 610.179 338.505 610.392 338.066 610.655C337.641 610.904 337.304 611.322 337.055 611.908C336.821 612.479 336.704 613.468 336.704 614.874V639.681H335.957L315.808 614.874V633.814C315.808 635.528 316.196 636.686 316.972 637.286C317.763 637.887 318.664 638.187 319.675 638.187H320.378V639H309.809V638.187C311.45 638.172 312.592 637.835 313.237 637.176C313.881 636.517 314.204 635.396 314.204 633.814V612.787L313.566 611.996C312.937 611.205 312.38 610.685 311.896 610.436C311.413 610.187 310.717 610.047 309.809 610.018V609.205H320.378ZM382.455 609.205V617.269H381.664C381.195 615.409 380.675 614.076 380.104 613.27C379.533 612.45 378.749 611.798 377.753 611.314C377.196 611.051 376.222 610.919 374.831 610.919H372.611V633.902C372.611 635.426 372.692 636.378 372.853 636.759C373.029 637.14 373.358 637.477 373.842 637.77C374.34 638.048 375.014 638.187 375.863 638.187H376.852V639H361.251V638.187H362.24C363.104 638.187 363.8 638.033 364.328 637.726C364.708 637.521 365.009 637.169 365.229 636.671C365.39 636.319 365.47 635.396 365.47 633.902V610.919H363.317C361.31 610.919 359.853 611.344 358.944 612.193C357.67 613.38 356.864 615.072 356.527 617.269H355.692V609.205H382.455ZM449.283 608.524V618.851H448.426C447.781 616.156 446.58 614.09 444.822 612.655C443.064 611.219 441.072 610.501 438.846 610.501C436.985 610.501 435.279 611.036 433.726 612.105C432.173 613.175 431.038 614.574 430.32 616.302C429.397 618.514 428.936 620.975 428.936 623.685C428.936 626.351 429.273 628.783 429.947 630.98C430.621 633.163 431.675 634.818 433.111 635.946C434.546 637.059 436.407 637.616 438.692 637.616C440.567 637.616 442.281 637.206 443.833 636.385C445.401 635.565 447.049 634.151 448.777 632.145V634.715C447.107 636.458 445.364 637.726 443.548 638.517C441.746 639.293 439.637 639.681 437.22 639.681C434.041 639.681 431.214 639.044 428.738 637.77C426.277 636.495 424.373 634.664 423.025 632.276C421.692 629.889 421.026 627.347 421.026 624.652C421.026 621.81 421.766 619.115 423.245 616.566C424.739 614.017 426.746 612.04 429.266 610.633C431.8 609.227 434.488 608.524 437.33 608.524C439.424 608.524 441.636 608.978 443.965 609.886C445.313 610.414 446.17 610.677 446.536 610.677C447.005 610.677 447.408 610.509 447.745 610.172C448.096 609.82 448.323 609.271 448.426 608.524H449.283ZM482.861 630.519H472.336L471.084 633.419C470.674 634.386 470.469 635.184 470.469 635.814C470.469 636.649 470.806 637.264 471.479 637.66C471.875 637.894 472.849 638.07 474.402 638.187V639H464.492V638.187C465.562 638.026 466.44 637.586 467.129 636.869C467.817 636.136 468.667 634.635 469.678 632.364L480.334 608.59H480.752L491.497 633.023C492.522 635.338 493.364 636.795 494.023 637.396C494.521 637.85 495.225 638.114 496.133 638.187V639H481.719V638.187H482.312C483.469 638.187 484.282 638.026 484.751 637.704C485.073 637.469 485.234 637.132 485.234 636.693C485.234 636.429 485.19 636.158 485.103 635.88C485.073 635.748 484.854 635.199 484.443 634.232L482.861 630.519ZM482.114 628.893L477.676 618.631L473.105 628.893H482.114ZM530.173 608.524L530.415 618.456H529.514C529.089 615.965 528.042 613.966 526.372 612.457C524.716 610.934 522.922 610.172 520.988 610.172C519.494 610.172 518.308 610.575 517.429 611.38C516.564 612.171 516.132 613.087 516.132 614.127C516.132 614.786 516.286 615.372 516.594 615.885C517.019 616.573 517.7 617.254 518.637 617.928C519.326 618.412 520.915 619.269 523.405 620.499C526.892 622.213 529.243 623.832 530.458 625.355C531.66 626.878 532.26 628.622 532.26 630.584C532.26 633.075 531.286 635.221 529.338 637.022C527.404 638.81 524.943 639.703 521.955 639.703C521.018 639.703 520.131 639.608 519.296 639.417C518.461 639.227 517.414 638.868 516.154 638.341C515.451 638.048 514.873 637.901 514.418 637.901C514.038 637.901 513.635 638.048 513.21 638.341C512.785 638.634 512.441 639.081 512.177 639.681H511.364V628.431H512.177C512.822 631.595 514.06 634.012 515.891 635.682C517.736 637.337 519.721 638.165 521.845 638.165C523.486 638.165 524.79 637.718 525.756 636.825C526.738 635.931 527.229 634.891 527.229 633.705C527.229 633.001 527.038 632.32 526.657 631.661C526.291 631.002 525.727 630.379 524.965 629.793C524.204 629.193 522.856 628.417 520.922 627.464C518.212 626.131 516.264 624.996 515.078 624.059C513.891 623.121 512.976 622.074 512.331 620.917C511.701 619.759 511.386 618.485 511.386 617.093C511.386 614.72 512.258 612.699 514.001 611.029C515.744 609.359 517.941 608.524 520.593 608.524C521.56 608.524 522.497 608.641 523.405 608.875C524.094 609.051 524.929 609.381 525.91 609.864C526.906 610.333 527.602 610.567 527.998 610.567C528.378 610.567 528.679 610.45 528.898 610.216C529.118 609.981 529.323 609.417 529.514 608.524H530.173ZM558.764 624.674V633.902C558.764 635.426 558.844 636.378 559.005 636.759C559.181 637.14 559.511 637.477 559.994 637.77C560.492 638.048 561.159 638.187 561.994 638.187H562.982V639H547.404V638.187H548.393C549.257 638.187 549.953 638.033 550.48 637.726C550.861 637.521 551.154 637.169 551.359 636.671C551.52 636.319 551.601 635.396 551.601 633.902V614.303C551.601 612.779 551.52 611.827 551.359 611.446C551.198 611.065 550.868 610.736 550.37 610.458C549.887 610.165 549.228 610.018 548.393 610.018H547.404V609.205H562.982V610.018H561.994C561.129 610.018 560.434 610.172 559.906 610.479C559.525 610.685 559.225 611.036 559.005 611.534C558.844 611.886 558.764 612.809 558.764 614.303V622.74H569.289V614.303C569.289 612.779 569.208 611.827 569.047 611.446C568.886 611.065 568.556 610.736 568.058 610.458C567.56 610.165 566.894 610.018 566.059 610.018H565.092V609.205H580.648V610.018H579.682C578.803 610.018 578.107 610.172 577.594 610.479C577.213 610.685 576.913 611.036 576.693 611.534C576.532 611.886 576.452 612.809 576.452 614.303V633.902C576.452 635.426 576.532 636.378 576.693 636.759C576.854 637.14 577.184 637.477 577.682 637.77C578.18 638.048 578.847 638.187 579.682 638.187H580.648V639H565.092V638.187H566.059C566.938 638.187 567.633 638.033 568.146 637.726C568.527 637.521 568.827 637.169 569.047 636.671C569.208 636.319 569.289 635.396 569.289 633.902V624.674H558.764Z" fill="black"/>
</svg>
