<?xml version="1.0" encoding="UTF-8"?>
<svg version="1.1" xmlns="http://www.w3.org/2000/svg" width="610" height="409">
<path d="M0 0 C3.26472652 1.44255358 4.29193548 1.10376344 7.6875 0.1875 C9.70360641 -0.6060738 11.70342289 -1.44193555 13.6875 -2.3125 C20.62740918 -5.35756219 26.44541478 -6.01560119 33.9375 -6.0625 C34.74574219 -6.083125 35.55398437 -6.10375 36.38671875 -6.125 C44.00334241 -6.17374639 50.80009685 -4.40660425 57.25 -0.25 C57.91128906 0.16378906 58.57257813 0.57757813 59.25390625 1.00390625 C59.72699219 1.39449219 60.20007813 1.78507813 60.6875 2.1875 C60.6875 2.8475 60.6875 3.5075 60.6875 4.1875 C61.3475 4.1875 62.0075 4.1875 62.6875 4.1875 C62.6875 4.8475 62.6875 5.5075 62.6875 6.1875 C63.3475 6.1875 64.0075 6.1875 64.6875 6.1875 C66.08984375 8.09375 66.08984375 8.09375 67.625 10.6875 C68.38103516 11.94046875 68.38103516 11.94046875 69.15234375 13.21875 C75.58832179 25.66491619 77.72119604 41.57858224 73.75 55.10546875 C73.399375 56.12253906 73.04875 57.13960937 72.6875 58.1875 C72.27043204 59.4751305 71.85378562 60.76289761 71.4375 62.05078125 C68.12294408 71.96977796 68.12294408 71.96977796 65.6875 73.1875 C65.6875 74.5075 65.6875 75.8275 65.6875 77.1875 C65.0275 77.1875 64.3675 77.1875 63.6875 77.1875 C63.33171875 78.21423828 63.33171875 78.21423828 62.96875 79.26171875 C61.42241106 82.79284028 59.38369934 85.85304983 57.1875 89 C56.78402344 89.59748047 56.38054687 90.19496094 55.96484375 90.81054688 C54.92710218 92.30893611 53.81274203 93.75365614 52.6875 95.1875 C52.0275 95.1875 51.3675 95.1875 50.6875 95.1875 C50.6875 95.8475 50.6875 96.5075 50.6875 97.1875 C50.0275 97.1875 49.3675 97.1875 48.6875 97.1875 C48.6875 97.8475 48.6875 98.5075 48.6875 99.1875 C48.0275 99.1875 47.3675 99.1875 46.6875 99.1875 C46.6875 99.8475 46.6875 100.5075 46.6875 101.1875 C33.30385468 112.45182622 17.27604598 119.34528944 -0.3125 118.1875 C-1.12976563 118.17847656 -1.94703125 118.16945313 -2.7890625 118.16015625 C-10.62080365 117.84127428 -17.33953297 114.47303346 -24.3125 111.1875 C-24.3125 110.5275 -24.3125 109.8675 -24.3125 109.1875 C-24.88484375 109.08566406 -25.4571875 108.98382813 -26.046875 108.87890625 C-33.37178872 106.64354465 -40.47454111 98.92186544 -45.3125 93.1875 C-45.3125 92.5275 -45.3125 91.8675 -45.3125 91.1875 C-45.9725 91.1875 -46.6325 91.1875 -47.3125 91.1875 C-48.54912862 89.44338699 -49.70352135 87.64043515 -50.8125 85.8125 C-53.25466507 81.75806853 -53.25466507 81.75806853 -56.3125 78.1875 C-59.09387707 72.7317219 -61.62879895 67.08045367 -63.3125 61.1875 C-63.5703125 60.4553125 -63.828125 59.723125 -64.09375 58.96875 C-67.96438929 46.49669007 -68.98714602 30.45774544 -63.375 18.4375 C-62.37771273 16.67397546 -61.36211854 14.92038823 -60.3125 13.1875 C-59.9825 12.1975 -59.6525 11.2075 -59.3125 10.1875 C-58.6525 10.1875 -57.9925 10.1875 -57.3125 10.1875 C-57.08691406 9.44757813 -56.86132812 8.70765625 -56.62890625 7.9453125 C-53.90492779 2.23869887 -47.44521272 -1.36701209 -41.83203125 -3.95703125 C-27.49830667 -8.96520008 -13.11778401 -7.1776554 0 0 Z M-41.3125 10.1875 C-41.3125 10.8475 -41.3125 11.5075 -41.3125 12.1875 C-41.91964844 12.44789063 -42.52679688 12.70828125 -43.15234375 12.9765625 C-47.66303456 15.50515952 -49.61957466 20.23521035 -51.296875 24.9609375 C-53.92896279 34.42155493 -54.68288086 43.82533096 -51.3125 53.1875 C-50.25146345 56.37060964 -49.22937622 59.50337037 -48.375 62.75 C-47.35765887 66.04139778 -46.17749751 68.31827306 -44.3125 71.1875 C-43.69375 72.30125 -43.075 73.415 -42.4375 74.5625 C-40.3164185 78.30316698 -37.8574152 81.72358764 -35.3125 85.1875 C-33.95248787 82.46747573 -34.26824909 80.40682714 -34.35546875 77.3671875 C-34.37673828 76.1915625 -34.39800781 75.0159375 -34.41992188 73.8046875 C-34.472812 71.33304177 -34.53768719 68.86162002 -34.61523438 66.390625 C-34.72172207 59.14946157 -34.16822191 54.3173014 -30.3125 48.1875 C-29.6402901 46.5732325 -28.98960761 44.94956542 -28.375 43.3125 C-23.1846374 30.0596374 -23.1846374 30.0596374 -19.3125 26.1875 C-19.3125 25.1975 -19.3125 24.2075 -19.3125 23.1875 C-18.3225 22.8575 -17.3325 22.5275 -16.3125 22.1875 C-14.68718352 20.38814272 -13.13171756 18.52477432 -11.625 16.625 C-10.81675781 15.61308594 -10.00851563 14.60117188 -9.17578125 13.55859375 C-8.56089844 12.77613281 -7.94601563 11.99367187 -7.3125 11.1875 C-17.68757277 4.27078482 -30.64104669 4.2852641 -41.3125 10.1875 Z M1.6875 20.1875 C1.6875 20.8475 1.6875 21.5075 1.6875 22.1875 C1.0275 22.1875 0.3675 22.1875 -0.3125 22.1875 C-0.3125 22.8475 -0.3125 23.5075 -0.3125 24.1875 C-0.9725 24.1875 -1.6325 24.1875 -2.3125 24.1875 C-6.24614826 28.06546088 -6.24614826 28.06546088 -7.3125 33.1875 C-8.3025 33.5175 -9.2925 33.8475 -10.3125 34.1875 C-11.36476728 36.16050116 -12.36038888 38.16426387 -13.3125 40.1875 C-14.03759766 41.11755859 -14.03759766 41.11755859 -14.77734375 42.06640625 C-22.3369598 52.51137194 -23.27638717 67.78454016 -22.3125 80.1875 C-21.41233495 82.92481239 -21.41233495 82.92481239 -20.3125 85.1875 C-19.95391484 86.51426508 -19.6106424 87.84585921 -19.3125 89.1875 C-18.6525 89.1875 -17.9925 89.1875 -17.3125 89.1875 C-17.6425 90.1775 -17.9725 91.1675 -18.3125 92.1875 C-17.07736718 94.41774131 -17.07736718 94.41774131 -15.3125 96.1875 C-14.6525 96.1875 -13.9925 96.1875 -13.3125 96.1875 C-13.3125 96.8475 -13.3125 97.5075 -13.3125 98.1875 C-10.55026511 100.94770432 -10.55026511 100.94770432 -7.3125 103.1875 C-5.8275 102.6925 -5.8275 102.6925 -4.3125 102.1875 C-4.3125 102.8475 -4.3125 103.5075 -4.3125 104.1875 C2.33089562 106.40196521 9.56442727 106.05032474 15.9375 103.1875 C17.19919079 102.54323236 18.45443469 101.88499149 19.6875 101.1875 C19.6875 100.5275 19.6875 99.8675 19.6875 99.1875 C20.3475 99.1875 21.0075 99.1875 21.6875 99.1875 C21.6875 98.5275 21.6875 97.8675 21.6875 97.1875 C22.3475 97.1875 23.0075 97.1875 23.6875 97.1875 C30.98616597 83.5930382 32.80518646 71.30715726 28.63671875 56.19921875 C28.32347656 55.53535156 28.01023438 54.87148437 27.6875 54.1875 C26.6975 53.8575 25.7075 53.5275 24.6875 53.1875 C24.6875 53.8475 24.6875 54.5075 24.6875 55.1875 C23.58921875 55.3421875 23.58921875 55.3421875 22.46875 55.5 C19.429776 56.25120706 17.69872479 57.34829311 15.1875 59.1875 C12.0019633 61.52056913 9.61411307 62.63445591 5.6875 63.1875 C5.6875 62.5275 5.6875 61.8675 5.6875 61.1875 C5.0275 61.1875 4.3675 61.1875 3.6875 61.1875 C3.0275 58.2175 2.3675 55.2475 1.6875 52.1875 C2.368125 51.94 3.04875 51.6925 3.75 51.4375 C8.0932192 49.58932162 12.32173737 47.55326263 15.6875 44.1875 C17.04265095 43.44189486 18.42020034 42.73619338 19.8125 42.0625 C20.53695312 41.70929688 21.26140625 41.35609375 22.0078125 40.9921875 C22.83925781 40.59386719 22.83925781 40.59386719 23.6875 40.1875 C23.6875 39.5275 23.6875 38.8675 23.6875 38.1875 C24.6775 37.8575 25.6675 37.5275 26.6875 37.1875 C26.6875 36.5275 26.6875 35.8675 26.6875 35.1875 C28.0075 35.1875 29.3275 35.1875 30.6875 35.1875 C30.6875 34.5275 30.6875 33.8675 30.6875 33.1875 C31.3475 33.1875 32.0075 33.1875 32.6875 33.1875 C32.955625 33.88875 33.22375 34.59 33.5 35.3125 C34.7556449 38.3524824 36.18985123 41.2602774 37.6875 44.1875 C38.3475 44.1875 39.0075 44.1875 39.6875 44.1875 C39.3575 45.1775 39.0275 46.1675 38.6875 47.1875 C39.31790043 48.53835807 39.99001417 49.87002676 40.6875 51.1875 C41.05192233 52.84764616 41.38722883 54.51456064 41.6875 56.1875 C42.0175 57.1775 42.3475 58.1675 42.6875 59.1875 C42.76989169 61.03360532 42.79493359 62.88255164 42.78515625 64.73046875 C42.78032227 66.34018555 42.78032227 66.34018555 42.77539062 67.98242188 C42.76282227 69.66174805 42.76282227 69.66174805 42.75 71.375 C42.74548828 72.50615234 42.74097656 73.63730469 42.73632812 74.80273438 C42.72453498 77.59770927 42.7080765 80.3925782 42.6875 83.1875 C51.45683431 79.07905003 55.24779718 67.70387265 58.6875 59.1875 C60.33007822 54.23134702 61.10790849 49.50733596 61.375 44.3125 C61.41262451 43.60923584 61.45024902 42.90597168 61.48901367 42.18139648 C61.99617735 31.11449739 60.52237513 22.59814988 53.375 13.8125 C48.76076706 8.83190092 43.17510257 6.59053166 36.42578125 5.984375 C23.38951302 5.73246644 11.57530876 11.9611673 1.6875 20.1875 Z " fill="#030202" transform="translate(66.3125,147.8125)"/>
<path d="M0 0 C0.86383301 -0.01385742 1.72766602 -0.02771484 2.61767578 -0.04199219 C7.78160548 -0.00401477 11.24925954 0.60480741 15.75 3.375 C16.5234375 3.81199219 17.296875 4.24898437 18.09375 4.69921875 C24.5447006 8.7778089 29.72091876 13.25867503 31.625 20.875 C31.66625 21.7 31.7075 22.525 31.75 23.375 C21.3859584 28.5339896 21.3859584 28.5339896 16.75 27.375 C15.38350365 25.73609752 14.28910023 23.99182834 13.1328125 22.19921875 C10.62854775 18.89557005 7.71502326 17.43107478 3.75 16.375 C-2.49230878 15.77869723 -8.5644666 15.41814233 -14.25 18.375 C-16.24589729 20.11085682 -16.24589729 20.11085682 -17.9375 22.1875 C-18.51886719 22.85394531 -19.10023438 23.52039063 -19.69921875 24.20703125 C-23.96173852 30.16596946 -23.89702711 36.28583341 -23.25 43.375 C-22.48396475 45.94321067 -21.49746446 47.98402645 -20.25 50.375 C-20.25 51.035 -20.25 51.695 -20.25 52.375 C-19.63125 52.49875 -19.0125 52.6225 -18.375 52.75 C-16.25 53.375 -16.25 53.375 -14.25 55.375 C-13.92 56.035 -13.59 56.695 -13.25 57.375 C-10.18129015 57.92529979 -10.18129015 57.92529979 -6.5625 58.125 C-5.34175781 58.22296875 -4.12101562 58.3209375 -2.86328125 58.421875 C0.82349557 58.37404654 3.34296441 57.71848354 6.75 56.375 C8.75 55.70833333 10.75 55.04166667 12.75 54.375 C12.75 53.715 12.75 53.055 12.75 52.375 C12.12351563 52.39820313 11.49703125 52.42140625 10.8515625 52.4453125 C10.03429687 52.46335938 9.21703125 52.48140625 8.375 52.5 C7.56289062 52.52320313 6.75078125 52.54640625 5.9140625 52.5703125 C3.75 52.375 3.75 52.375 1.75 50.375 C1.51953125 48.24609375 1.51953125 48.24609375 1.5625 45.8125 C1.56894531 45.00683594 1.57539063 44.20117188 1.58203125 43.37109375 C1.75 41.375 1.75 41.375 2.75 40.375 C4.96855264 40.28716458 7.18988496 40.26805391 9.41015625 40.27734375 C10.40685585 40.27946617 10.40685585 40.27946617 11.4236908 40.28163147 C13.55333899 40.28724482 15.68288339 40.29979946 17.8125 40.3125 C19.25325369 40.31751329 20.69400903 40.32207649 22.13476562 40.32617188 C25.67321102 40.33721855 29.21159539 40.35449208 32.75 40.375 C35.03128029 44.93756058 33.93502621 51.30307179 33.9375 56.3125 C33.94974609 57.61380859 33.96199219 58.91511719 33.97460938 60.25585938 C33.97654297 61.50044922 33.97847656 62.74503906 33.98046875 64.02734375 C33.98457764 65.17195068 33.98868652 66.31655762 33.99291992 67.49584961 C33.75 70.375 33.75 70.375 31.75 73.375 C29.1484375 73.66796875 29.1484375 73.66796875 26.125 73.5625 C25.12210937 73.53542969 24.11921875 73.50835937 23.0859375 73.48046875 C22.31507813 73.44566406 21.54421875 73.41085938 20.75 73.375 C20.09 71.065 19.43 68.755 18.75 66.375 C18.08613281 66.78492188 17.42226562 67.19484375 16.73828125 67.6171875 C15.85527344 68.15601563 14.97226563 68.69484375 14.0625 69.25 C13.19238281 69.78367187 12.32226562 70.31734375 11.42578125 70.8671875 C3.53413914 75.31415663 -5.68303559 76.68099402 -14.546875 74.6015625 C-23.66414056 71.08220351 -32.62364743 65.20712763 -37.25 56.375 C-37.25 55.715 -37.25 55.055 -37.25 54.375 C-37.91 54.045 -38.57 53.715 -39.25 53.375 C-42.79349834 43.5924135 -43.22803634 31.32853124 -38.8125 21.8125 C-33.14836388 12.15802684 -24.49680588 3.95476861 -13.5703125 0.9140625 C-9.03905973 0.17840029 -4.58510756 0.0447813 0 0 Z " fill="#020101" transform="translate(208.25,166.625)"/>
<path d="M0 0 C1.25 1.3671875 1.25 1.3671875 1.25 3.3671875 C1.91 3.3671875 2.57 3.3671875 3.25 3.3671875 C9.12937767 15.57475029 11.92194122 24.66843786 7.625 37.9296875 C3.74544698 47.73941443 -2.2178547 53.93409043 -11.75 58.3671875 C-21.56586037 61.89656041 -31.23939519 61.72648996 -41.5 61.5546875 C-43.08332048 61.53960053 -44.66665501 61.52591928 -46.25 61.51367188 C-50.08368777 61.48101324 -53.91668359 61.42945813 -57.75 61.3671875 C-58.46889118 43.92834056 -58.8571883 26.5087329 -58.875 9.0546875 C-58.87874634 7.75070511 -58.87874634 7.75070511 -58.88256836 6.42037964 C-58.88841951 3.9481805 -58.88699488 1.47610653 -58.8828125 -0.99609375 C-58.88479645 -1.74054749 -58.8867804 -2.48500122 -58.88882446 -3.25201416 C-58.8653129 -8.40218669 -58.8653129 -8.40218669 -57.75 -10.6328125 C-53.57395361 -10.85337697 -49.39761142 -11.0494377 -45.21948242 -11.22485352 C-43.80447172 -11.28747595 -42.3897181 -11.3562771 -40.9753418 -11.43188477 C-25.54984162 -12.24778804 -11.96751274 -10.31129446 0 0 Z M-41.75 4.3671875 C-41.75 18.2271875 -41.75 32.0871875 -41.75 46.3671875 C-24.09164079 47.78336389 -24.09164079 47.78336389 -14.75 42.3671875 C-14.75 41.7071875 -14.75 41.0471875 -14.75 40.3671875 C-14.09 40.3671875 -13.43 40.3671875 -12.75 40.3671875 C-7.59525707 33.49419693 -7.12763506 27.7810828 -7.75 19.3671875 C-9.4608109 12.95164662 -13.35610683 9.03213602 -18.75 5.3671875 C-26.19478587 3.50599103 -34.07609038 4.3671875 -41.75 4.3671875 Z " fill="#030202" transform="translate(361.75,178.6328125)"/>
<path d="M0 0 C1.77503906 0.03480469 1.77503906 0.03480469 3.5859375 0.0703125 C5.36871094 0.09738281 5.36871094 0.09738281 7.1875 0.125 C8.10273437 0.14820313 9.01796875 0.17140625 9.9609375 0.1953125 C11.64327815 3.5599938 11.35778726 7.36295116 11.5234375 11.0703125 C11.5651709 11.98852783 11.6069043 12.90674316 11.64990234 13.8527832 C12.29687374 29.79600685 12.35154993 45.81749659 11.5859375 61.7578125 C11.53977295 62.84582153 11.53977295 62.84582153 11.49267578 63.95581055 C11.28232652 67.51909216 10.99210783 69.14855701 8.9609375 72.1953125 C6.24609375 72.59375 6.24609375 72.59375 3.0234375 72.5703125 C1.96253906 72.57804687 0.90164063 72.58578125 -0.19140625 72.59375 C-3.28942184 72.1602828 -4.18328361 71.63950908 -6.0390625 69.1953125 C-7.4003125 70.1853125 -7.4003125 70.1853125 -8.7890625 71.1953125 C-13.962724 74.13370037 -19.26118272 73.94258495 -25.0390625 73.1953125 C-32.37240721 71.09474427 -37.64691284 65.62406035 -41.9140625 59.5078125 C-45.17025859 52.81452054 -45.25189898 43.98070874 -42.9765625 36.9453125 C-39.87699878 29.99302004 -34.8137936 25.01153457 -27.93359375 21.88671875 C-21.48009443 19.53152415 -15.42203294 19.43902981 -9.0390625 22.1953125 C-8.00944409 23.16478965 -7.00299563 24.16050193 -6.0390625 25.1953125 C-6.01924316 24.50904785 -5.99942383 23.8227832 -5.97900391 23.11572266 C-5.88395305 20.01685471 -5.77419403 16.91867956 -5.6640625 13.8203125 C-5.633125 12.74007812 -5.6021875 11.65984375 -5.5703125 10.546875 C-5.53164063 9.515625 -5.49296875 8.484375 -5.453125 7.421875 C-5.4217041 6.46877441 -5.3902832 5.51567383 -5.35791016 4.53369141 C-4.84618695 0.78079336 -3.69165868 0.23725313 0 0 Z M-24.0390625 37.1953125 C-26.87322955 41.00372448 -27.5816381 44.58343341 -27.39453125 49.234375 C-26.65716635 53.30203629 -24.4406434 56.16748651 -21.1640625 58.5703125 C-18.22797422 59.43386788 -16.09391324 59.56189459 -13.0390625 59.1953125 C-9.3812407 57.15537342 -7.36960076 55.69111988 -5.0390625 52.1953125 C-4.26239031 46.91394162 -4.07243234 42.58839714 -7.1640625 38.1328125 C-13.26778692 34.019433 -17.69222622 33.23029116 -24.0390625 37.1953125 Z " fill="#020101" transform="translate(533.0390625,167.8046875)"/>
<path d="M0 0 C4.62 0 9.24 0 14 0 C14.02255261 9.23997871 14.04091601 18.47993928 14.05181217 27.71993923 C14.05704061 32.00999915 14.06413753 36.30003933 14.07543945 40.59008789 C14.08626975 44.726794 14.09227714 48.86348108 14.09487724 53.00020027 C14.09673124 54.58192304 14.10035136 56.16364471 14.10573006 57.74535942 C14.1129424 59.95322838 14.11399086 62.16101773 14.11352539 64.36889648 C14.115746 65.62798325 14.11796661 66.88707001 14.12025452 68.18431091 C14 71 14 71 13 72 C10.98035801 72.07244053 8.95832876 72.08377188 6.9375 72.0625 C5.83277344 72.05347656 4.72804688 72.04445313 3.58984375 72.03515625 C2.73519531 72.02355469 1.88054687 72.01195312 1 72 C0.34 70.68 -0.32 69.36 -1 68 C-1.99 68.33 -2.98 68.66 -4 69 C-4 69.66 -4 70.32 -4 71 C-9.2316087 74.17451984 -15.09567539 73.54577791 -21 73 C-28.08172675 71.24429736 -32.86338226 65.75824958 -37 60 C-40.14583048 53.77167791 -40.66835295 45.9045733 -40 39 C-37.50135394 31.58924294 -31.93401518 25.56451777 -25.0234375 21.97265625 C-18.17553849 19.1039418 -12.49706699 19.48154643 -5.69921875 22.24609375 C-4.45183207 22.79953198 -3.22057933 23.38971033 -2 24 C-2 24.66 -2 25.32 -2 26 C-1.34 26 -0.68 26 0 26 C0 17.42 0 8.84 0 0 Z M-21.65625 39.30078125 C-24.04162503 42.31717118 -23.45796787 45.63718201 -23.35546875 49.33203125 C-22.87619754 52.92919868 -21.73469225 54.64512612 -19 57 C-15.52283389 59.51794788 -12.18944931 59.29924638 -8 59 C-4.86300162 58.10371475 -3.90982414 56.89479483 -1.75 54.375 C0.50094246 50.03389668 0.46846274 47.84078166 0 43 C-0.86265968 40.59442147 -0.86265968 40.59442147 -2 39 C-2.66 39 -3.32 39 -4 39 C-4 38.34 -4 37.68 -4 37 C-11.72655212 32.78551703 -14.94958424 34.03351781 -21.65625 39.30078125 Z " fill="#010101" transform="translate(471,168)"/>
<path d="M0 0 C0.66 0.66 1.32 1.32 2 2 C2.66 1.01 3.32 0.02 4 -1 C7.22265625 -1.328125 7.22265625 -1.328125 11.0625 -1.25 C12.33222656 -1.23453125 13.60195313 -1.2190625 14.91015625 -1.203125 C18 -1 18 -1 19 0 C19.2838015 2.40600607 19.48284617 4.77115066 19.625 7.1875 C19.67003662 7.9511084 19.71507324 8.7147168 19.76147461 9.50146484 C20.35529246 22.31360966 19.55848317 35.19667831 19 48 C16.29437257 49.35281371 14.08106345 49.20609362 11.0625 49.25 C9.47115234 49.28867188 9.47115234 49.28867188 7.84765625 49.328125 C5 49 5 49 3.12109375 47.484375 C2.75113281 46.99453125 2.38117188 46.5046875 2 46 C1.236875 46.639375 0.47375 47.27875 -0.3125 47.9375 C-4.79876569 50.91416918 -9.72364233 51.19997857 -15 51 C-21.88682688 48.85492277 -28.8739184 44.9347482 -32.38671875 38.43359375 C-36.41316335 29.15947061 -37.64284549 21.65354054 -34 12 C-31.13311556 5.46350348 -27.2742275 2.33418201 -21 -1 C-13.24090093 -3.94310654 -7.27054576 -3.70655274 0 0 Z M-15 14 C-17.4656856 16.04056739 -17.95657975 16.86973924 -19 20 C-19.39441267 25.22596788 -18.90549127 28.59166842 -16 33 C-13.24631394 35.23271843 -11.51741376 35.93532328 -8 36.375 C-4.57050987 35.94631373 -2.77653821 35.02612248 0 33 C0.5775 32.5875 1.155 32.175 1.75 31.75 C3.75827949 28.93840871 3.82692429 26.40382226 4 23 C3.03379361 18.52031584 1.67364617 15.78005656 -2 13 C-7.4393453 10.68324182 -10.05728006 10.74229822 -15 14 Z " fill="#020202" transform="translate(409,191)"/>
<path d="M0 0 C2.45862401 -0.05383848 4.9160755 -0.09359038 7.375 -0.125 C8.42300781 -0.15013672 8.42300781 -0.15013672 9.4921875 -0.17578125 C11.32897486 -0.19344267 13.16601963 -0.10303261 15 0 C17.45434803 2.45434803 17.76427207 4.18277793 18.65625 7.5234375 C18.95660156 8.626875 19.25695312 9.7303125 19.56640625 10.8671875 C20.02853516 12.60355469 20.02853516 12.60355469 20.5 14.375 C21.1108061 16.65466125 21.72524511 18.93335299 22.34375 21.2109375 C22.61380859 22.22462402 22.88386719 23.23831055 23.16210938 24.28271484 C23.9088292 26.70433245 24.85691721 28.75181266 26 31 C26 31.66 26 32.32 26 33 C28.48000904 26.8397443 30.1191005 20.72480785 31.5625 14.25 C31.97574772 12.39998078 32.39354899 10.55097146 32.81640625 8.703125 C32.99631104 7.89520508 33.17621582 7.08728516 33.36157227 6.25488281 C34 4 34 4 36 0 C40.95 0 45.9 0 51 0 C51 5.92491237 50.95543588 7.91586672 49 13 C46.47553384 19.59583925 44.359815 26.11816874 42.7265625 32.9921875 C41.76725343 36.96352073 40.66176163 40.88915115 39.55078125 44.8203125 C38.9183374 46.9484756 38.9183374 46.9484756 39 49 C38.34 49 37.68 49 37 49 C36.91363281 49.80824219 36.82726562 50.61648437 36.73828125 51.44921875 C35.58173814 60.24531268 35.58173814 60.24531268 32.6875 64 C31.800625 64.66 30.91375 65.32 30 66 C29.113125 66.7425 28.22625 67.485 27.3125 68.25 C21.75119272 72.45855686 13.74485869 71.88992277 7 71 C3.67467121 69.69002199 1.77375193 68.31145994 -1 66 C-0.55530671 60.96014269 1.71343362 58.62365012 5 55 C5.66386719 55.22816406 6.32773437 55.45632812 7.01171875 55.69140625 C8.33623047 56.12259766 8.33623047 56.12259766 9.6875 56.5625 C10.55761719 56.85253906 11.42773438 57.14257812 12.32421875 57.44140625 C15.24631074 58.05141961 17.14400553 57.77703633 20 57 C20.2165625 55.824375 20.2165625 55.824375 20.4375 54.625 C21 52 21 52 22 50 C20.88625 50.04125 19.7725 50.0825 18.625 50.125 C15 50 15 50 13 48 C12.11914028 45.29637116 11.31482109 42.61410094 10.5625 39.875 C9.16511845 34.84971618 7.65730414 29.94916741 5.78295898 25.08056641 C4.31446415 21.17831727 3.03269666 17.21639695 1.75 13.25 C1.46898437 12.41339844 1.18796875 11.57679688 0.8984375 10.71484375 C0.63804687 9.90660156 0.37765625 9.09835938 0.109375 8.265625 C-0.12813477 7.54149414 -0.36564453 6.81736328 -0.61035156 6.07128906 C-1.05153517 3.72604986 -0.73809479 2.24720111 0 0 Z " fill="#020101" transform="translate(547,190)"/>
<path d="M0 0 C2.63632735 2.11376961 4.82393565 4.42425036 7 7 C7.66 7.66 8.32 8.32 9 9 C12.38708864 14.84705449 14.03243589 20.25949904 13 27 C12.18330719 29.80008962 11.17092342 32.31663382 10 35 C9.34 35 8.68 35 8 35 C7.75378906 35.75023437 7.50757813 36.50046875 7.25390625 37.2734375 C4.59816873 43.04821877 -1.58450374 46.7255348 -7.375 49 C-14.33068739 50.95439035 -21.2492309 50.12250945 -27.6875 46.9375 C-29.3271875 45.9784375 -29.3271875 45.9784375 -31 45 C-31 44.34 -31 43.68 -31 43 C-31.61875 42.7525 -32.2375 42.505 -32.875 42.25 C-35.35068687 40.79371361 -35.95125002 39.62187494 -37 37 C-37.66 37 -38.32 37 -39 37 C-42.66040097 30.38186432 -44.12399116 24.55451751 -43 17 C-41.93635234 13.83198047 -40.61620172 10.92215044 -39 8 C-38.34 8 -37.68 8 -37 8 C-36.74476563 7.40445313 -36.48953125 6.80890625 -36.2265625 6.1953125 C-33.82951339 1.90505263 -29.47861569 -0.98558586 -24.9765625 -2.828125 C-16.05213537 -5.29733409 -8.20830903 -4.21408722 0 0 Z M-23 13 C-23 13.66 -23 14.32 -23 15 C-23.66 15 -24.32 15 -25 15 C-27.46692274 18.70038411 -27.80911579 22.70673256 -27 27 C-25.2257031 30.34330326 -22.82992051 32.5105597 -19.5625 34.4375 C-15.37946192 35.35572787 -11.99215327 34.33071776 -8 33 C-8 32.34 -8 31.68 -8 31 C-7.34 31 -6.68 31 -6 31 C-3.66695923 26.47973351 -3.23452543 21.98491975 -4 17 C-6.13685976 14.02365962 -8.5339871 12.18834728 -12 11 C-16.25589957 10.69600717 -19.35176961 10.66513255 -23 13 Z " fill="#020202" transform="translate(288,192)"/>
<path d="M0 0 C1.98 0 3.96 0 6 0 C6 1.65 6 3.3 6 5 C5.38125 4.814375 4.7625 4.62875 4.125 4.4375 C1.95839822 3.76313824 1.95839822 3.76313824 0 5 C0 3.35 0 1.7 0 0 Z " fill="#020102" transform="translate(604,179)"/>
</svg>
