<?xml version="1.0" encoding="UTF-8"?>
<svg version="1.1" xmlns="http://www.w3.org/2000/svg" width="699" height="357">
<path d="M0 0 C0.51046875 -0.36351563 1.0209375 -0.72703125 1.546875 -1.1015625 C22.7830655 -15.78616231 47.00284957 -21.8771562 72.421875 -17.2421875 C97.710077 -12.08358714 119.32065942 2.76275159 133.6875 24.25 C146.08396374 44.61356456 150.88140968 69.72240232 145.8359375 93.1796875 C139.60683647 117.95428759 124.86055371 138.90845156 102.88671875 152.30859375 C101.93410156 152.86675781 100.98148438 153.42492187 100 154 C99.11957031 154.52722656 98.23914063 155.05445313 97.33203125 155.59765625 C78.28093903 166.10397086 54.62765327 168.099242 33.609375 163.1015625 C21.42433426 159.38275136 10.57479099 154.08051223 0 147 C-0.4640625 147.268125 -0.928125 147.53625 -1.40625 147.8125 C-3.92153595 149.23908009 -6.45721624 150.62293399 -9 152 C-9.57911133 152.31598145 -10.15822266 152.63196289 -10.75488281 152.95751953 C-32.52971143 164.72815622 -57.02684437 168.99353309 -81.203125 162.1953125 C-105.61571322 154.50986806 -125.74766771 139.09578274 -137.81640625 116.3828125 C-149.24412199 93.37652009 -151.90319699 67.7734988 -143.78125 43.17578125 C-138.98021405 29.714965 -131.07999068 18.09716273 -121 8 C-120.25363281 7.24203125 -119.50726563 6.4840625 -118.73828125 5.703125 C-105.0046546 -7.46299642 -86.91711646 -15.99402389 -68 -18 C-66.98808594 -18.13277344 -65.97617187 -18.26554687 -64.93359375 -18.40234375 C-41.9009731 -20.91756245 -18.82177666 -12.98153259 0 0 Z " fill="#F6A427" transform="translate(350,82)"/>
<path d="M0 0 C-0.49949727 4.11622747 -2.51753535 5.61046361 -5.625 8.1875 C-13.17671165 14.76966236 -18.52374671 22.07547 -23 31 C-23.495 31.96679688 -23.99 32.93359375 -24.5 33.9296875 C-35.18231713 55.77502603 -35.99310102 79.67571057 -28.81640625 102.81640625 C-25.38800625 112.13038812 -20.44008679 120.16690541 -14.99853516 128.4152832 C-14 130 -14 130 -12.8203125 132.3984375 C-12.10896533 134.17684745 -12.10896533 134.17684745 -10.125 134.9375 C-7.27453572 136.36273214 -5.97515564 138.53105545 -4 141 C-1.88339573 142.31165257 -1.88339573 142.31165257 0 143 C0 144.32 0 145.64 0 147 C-18.55692902 162.22777896 -43.70216582 166.5837978 -67 165 C-90.32930959 161.97349497 -113.38979234 149.2093711 -127.875 130.58984375 C-143.79026719 108.39765006 -150.24223365 83.59867226 -146.22436523 56.52905273 C-142.8806015 37.70723801 -133.43127216 21.45415337 -120 8 C-119.25363281 7.24203125 -118.50726563 6.4840625 -117.73828125 5.703125 C-104.0046546 -7.46299642 -85.91711646 -15.99402389 -67 -18 C-65.98808594 -18.13277344 -64.97617187 -18.26554687 -63.93359375 -18.40234375 C-42.52357614 -20.74037021 -16.57622471 -14.20367346 0 0 Z " fill="#E9001A" transform="translate(349,82)"/>
<path d="M0 0 C4.54380091 3.69265665 8.32238955 7.45137655 12 12 C12.825 12.804375 13.65 13.60875 14.5 14.4375 C22 22.125 22 22.125 22 27 C22.66 27 23.32 27 24 27 C35.71371123 53.64964076 39.26508876 79.66023064 28.6875 107.4375 C26.1519809 113.8177146 23.26823309 119.57885338 19 125 C18.48953125 125.73476562 17.9790625 126.46953125 17.453125 127.2265625 C16.73382813 128.10441406 16.73382813 128.10441406 16 129 C15.34 129 14.68 129 14 129 C13.77441406 129.55558594 13.54882812 130.11117187 13.31640625 130.68359375 C11.61460581 133.67815653 9.42652242 135.68808006 6.9375 138.0625 C3.17045995 141.5170026 3.17045995 141.5170026 1 146 C0.938125 145.38125 0.87625 144.7625 0.8125 144.125 C0.544375 143.42375 0.27625 142.7225 0 142 C-0.7425 141.71125 -1.485 141.4225 -2.25 141.125 C-5.29325058 139.88003385 -6.63687197 138.33730984 -8.59375 135.73046875 C-10.07196452 133.83689819 -10.07196452 133.83689819 -12.34765625 131.76171875 C-29.19372119 114.22097072 -34.54509328 89.92195494 -34.421875 66.39111328 C-34.08342376 53.06459584 -30.01129742 41.84043431 -24 30 C-23.57203125 29.07703125 -23.1440625 28.1540625 -22.703125 27.203125 C-17.71640837 17.05368998 -9.77099985 8.98865764 -1 2 C-0.67 1.34 -0.34 0.68 0 0 Z " fill="#FE5E02" transform="translate(349,83)"/>
<path d="M0 0 C5.67932855 0.1347286 11.06853927 1.46034642 16.4375 3.25 C16.994375 2.940625 17.55125 2.63125 18.125 2.3125 C21.52888498 0.74855285 24.79520078 0.67070788 28.4375 1.25 C32.05853911 3.29667428 33.1891513 4.63504131 34.75 8.5 C34.976875 9.4075 35.20375 10.315 35.4375 11.25 C35.71722656 10.69570313 35.99695313 10.14140625 36.28515625 9.5703125 C38.47184897 5.61879704 39.62742612 3.60348679 43.875 1.75 C52.93392857 0.47857143 52.93392857 0.47857143 57.4375 3.25 C57.4375 2.59 57.4375 1.93 57.4375 1.25 C59.7475 1.58 62.0575 1.91 64.4375 2.25 C65.76856125 6.24318374 65.57397721 10.08744513 65.4375 14.25 C65.1075 14.58 64.7775 14.91 64.4375 15.25 C64.36523498 17.10287502 64.3536878 18.95833878 64.375 20.8125 C64.38402344 21.82441406 64.39304687 22.83632813 64.40234375 23.87890625 C64.41394531 24.66136719 64.42554688 25.44382812 64.4375 26.25 C57.92932496 28.67164653 51.32645059 29.11111882 44.4375 28.25 C39.45917028 25.06386898 38.18427159 20.67418545 36.4375 15.25 C36.1075 15.25 35.7775 15.25 35.4375 15.25 C35.1075 19.21 34.7775 23.17 34.4375 27.25 C32.1275 27.25 29.8175 27.25 27.4375 27.25 C26.7775 21.31 26.1175 15.37 25.4375 9.25 C23.7875 9.25 22.1375 9.25 20.4375 9.25 C19.33113605 11.64068734 19.33113605 11.64068734 18.4375 14.25 C18.7675 14.91 19.0975 15.57 19.4375 16.25 C19.38671875 18.5625 19.38671875 18.5625 19.125 21.25 C19.00705078 22.5803125 19.00705078 22.5803125 18.88671875 23.9375 C18.4375 26.25 18.4375 26.25 16.4375 28.25 C13.875 28.4375 13.875 28.4375 11.4375 28.25 C9.24578872 26.05828872 10.13632078 20.18118148 10.09570312 17.06445312 C10.04335514 14.6481177 10.04335514 14.6481177 9.4375 11.25 C7.53338857 9.65050457 7.53338857 9.65050457 5.4375 9.25 C4.7775 10.9 4.1175 12.55 3.4375 14.25 C3.1075 14.25 2.7775 14.25 2.4375 14.25 C2.1075 18.54 1.7775 22.83 1.4375 27.25 C-0.8725 27.25 -3.1825 27.25 -5.5625 27.25 C-5.62034708 23.12505849 -5.65604407 19.00022056 -5.6875 14.875 C-5.70425781 13.699375 -5.72101563 12.52375 -5.73828125 11.3125 C-5.74472656 10.19101562 -5.75117188 9.06953125 -5.7578125 7.9140625 C-5.76828613 6.87717285 -5.77875977 5.8402832 -5.78955078 4.77197266 C-5.41063368 0.56314082 -4.08021476 0.28633086 0 0 Z M45.4375 9.8125 C44.01779674 13.27302669 44.57448485 15.66516784 45.4375 19.25 C47.31174716 21.530721 47.31174716 21.530721 50.3125 21.625 C53.47498968 21.47559892 53.47498968 21.47559892 55.875 19.6875 C57.78037189 17.22332719 57.78037189 17.22332719 57.3125 13.625 C56.73009286 10.20457945 56.73009286 10.20457945 54.4375 8.25 C49.59443761 7.6610159 49.59443761 7.6610159 45.4375 9.8125 Z " fill="#020202" transform="translate(222.5625,264.75)"/>
<path d="M0 0 C0.33 0.66 0.66 1.32 1 2 C1.66 1.67 2.32 1.34 3 1 C6.79193774 0.78123436 9.58745924 0.85439738 13.1875 2.125 C15.88442969 3.31004356 15.88442969 3.31004356 17.875 2.125 C18.57625 1.75375 19.2775 1.3825 20 1 C26.66673586 0.56283699 32.2996809 1.19978726 38 5 C38.45375 4.525625 38.9075 4.05125 39.375 3.5625 C42.41113933 0.64313526 44.9294277 0.85400462 49.046875 0.8984375 C51.14259227 1.0074148 52.97680357 1.46048095 55 2 C56.99989951 2.02004912 59.0001175 2.02167894 61 2 C61.89115181 10.68873018 62.11624638 19.26860536 62 28 C55.83349979 30.05550007 48.47183936 30.08538284 42.5 27.375 C37.84162707 24.62452617 35.54521785 21.09699174 34.1875 15.875 C34.01628044 13.24963338 34.14663733 11.46526995 35 9 C33.02 9.99 33.02 9.99 31 11 C30.01 10.34 29.02 9.68 28 9 C24.45812169 8.66661404 24.45812169 8.66661404 21 9 C18.77777369 10.75372266 18.77777369 10.75372266 18.98828125 12.91015625 C19.24523833 16.77428349 19.24523833 16.77428349 21 20 C25.7954154 20.50610907 25.7954154 20.50610907 29.9375 18.5 C30.288125 18.005 30.63875 17.51 31 17 C32.49821059 20.37097383 33 22.20442119 33 26 C32.34 26 31.68 26 31 26 C31 26.66 31 27.32 31 28 C25.62596468 29.30512286 21.1785958 28.96429496 16 27 C12.4964213 24.33855133 11.24250205 21.36682975 10.484375 17.09375 C10.21941375 14.38835615 10.05404689 11.71708445 10 9 C7.69 9 5.38 9 3 9 C1.85990324 14.02207913 1.65195635 19.00686259 1.37890625 24.13671875 C1 27 1 27 -1 29 C-3.5625 28.75 -3.5625 28.75 -6 28 C-7.32411006 25.35177988 -7.01892401 23.51061806 -6.87890625 20.5546875 C-6.83056641 19.47832031 -6.78222656 18.40195312 -6.73242188 17.29296875 C-6.64831055 15.60107422 -6.64831055 15.60107422 -6.5625 13.875 C-6.51029297 12.73933594 -6.45808594 11.60367187 -6.40429688 10.43359375 C-6.27435544 7.62213369 -6.13938086 4.81100535 -6 2 C-4.02 2 -2.04 2 0 2 C0 1.34 0 0.68 0 0 Z M12 5 C13 7 13 7 13 7 Z M43 10 C42.11563026 12.63631738 41.9149287 15.22667571 42 18 C42.89757556 20.14780077 42.89757556 20.14780077 45 21 C49.07794425 21.42478586 50.53076119 21.31282587 54 19 C55.09788302 15.47109028 55.22551116 13.61020667 53.9375 10.125 C52.13382292 7.69577723 52.13382292 7.69577723 49 7.5625 C45.82579043 7.80643382 45.82579043 7.80643382 43 10 Z " fill="#020202" transform="translate(373,265)"/>
<path d="M0 0 C2.31 0 4.62 0 7 0 C7.495 14.355 7.495 14.355 8 29 C8.33 29 8.66 29 9 29 C9 31.31 9 33.62 9 36 C7.515 36.495 7.515 36.495 6 37 C6 36.34 6 35.68 6 35 C1.34947128 34.73067479 1.34947128 34.73067479 -3 36 C-7.66725826 36.38893819 -10.07967871 36.45147837 -14.3125 34.375 C-17.40483097 31.6422424 -18.73724492 29.93682468 -20 26 C-20.13777594 20.80125459 -19.45243954 16.04768774 -16 12 C-11.75044151 9.2957355 -7.95696504 8.5719575 -3 8 C-2.34 7.67 -1.68 7.34 -1 7 C-0.59270772 4.67843403 -0.25561323 2.3431213 0 0 Z M-11 17 C-12.01911045 20.89114901 -12.16782969 22.60596507 -10.5625 26.375 C-10.046875 27.24125 -9.53125 28.1075 -9 29 C-4.89354452 29.32235558 -4.89354452 29.32235558 -1.125 27.9375 C0.64273274 24.8930714 0.36823916 22.4368988 0 19 C-1.04374022 16.95548981 -1.04374022 16.95548981 -3 16 C-6.12414314 15.68758569 -7.99825776 15.99941925 -11 17 Z " fill="#030303" transform="translate(476,257)"/>
<path d="M0 0 C2.81244673 2.25272146 5.13070125 4.54985299 6.15234375 8.0234375 C6.70388676 14.31102778 6.70388676 14.31102778 4.65234375 16.9609375 C3.90984375 17.486875 3.90984375 17.486875 3.15234375 18.0234375 C4.47234375 18.6834375 5.79234375 19.3434375 7.15234375 20.0234375 C7.15234375 21.0134375 7.15234375 22.0034375 7.15234375 23.0234375 C0.92248174 25.44616161 -5.23932927 27.79238191 -11.83203125 25.26171875 C-15.43228422 23.37976834 -17.40425243 21.78173423 -18.84765625 18.0234375 C-19.73971073 11.92427431 -18.88243501 6.98091782 -16.11328125 1.51953125 C-12.81714109 -2.37683196 -4.24317302 -2.24269187 0 0 Z M-9.84765625 6.0234375 C-9.51765625 7.0134375 -9.18765625 8.0034375 -8.84765625 9.0234375 C-7.19765625 9.0234375 -5.54765625 9.0234375 -3.84765625 9.0234375 C-3.51765625 8.0334375 -3.18765625 7.0434375 -2.84765625 6.0234375 C-5.15765625 6.0234375 -7.46765625 6.0234375 -9.84765625 6.0234375 Z M-10.84765625 7.0234375 C-9.84765625 9.0234375 -9.84765625 9.0234375 -9.84765625 9.0234375 Z M-2.84765625 7.0234375 C-1.84765625 9.0234375 -1.84765625 9.0234375 -1.84765625 9.0234375 Z M-11.84765625 15.0234375 C-11.1604864 18.04177007 -11.1604864 18.04177007 -9.16015625 19.2734375 C-6.02269149 20.29099364 -4.00425711 19.89653987 -0.84765625 19.0234375 C1.01035614 17.58651795 1.01035614 17.58651795 2.15234375 16.0234375 C1.04107716 14.68441958 1.04107716 14.68441958 -1.7890625 14.92578125 C-2.98402344 14.93738281 -4.17898438 14.94898438 -5.41015625 14.9609375 C-6.60769531 14.96996094 -7.80523437 14.97898437 -9.0390625 14.98828125 C-10.42931641 15.00568359 -10.42931641 15.00568359 -11.84765625 15.0234375 Z " fill="#020202" transform="translate(356.84765625,266.9765625)"/>
<path d="M0 0 C2.18703385 -0.37907282 2.18703385 -0.37907282 4 -1 C3 2 3 2 0 7 C-3.96 6.67 -7.92 6.34 -12 6 C-11.67 6.66 -11.34 7.32 -11 8 C-9.04525678 8.54040236 -9.04525678 8.54040236 -6.75 8.875 C-2.58718688 9.7381032 0.13825067 10.6766782 3 14 C3.73143483 17.8197152 3.34723419 19.43413688 1.3125 22.75 C-1.73931916 25.71933757 -3.81524519 27.00397952 -8.14453125 26.99609375 C-12.804387 26.63288775 -16.16155393 25.84787934 -20 23 C-18.25 18.125 -18.25 18.125 -16 17 C-15.67 17 -15.34 17 -15 17 C-16.3089572 13.87802522 -16.3089572 13.87802522 -19 12 C-19.05395478 10.37536158 -19.09277195 8.75021459 -19.125 7.125 C-19.14820313 6.22007812 -19.17140625 5.31515625 -19.1953125 4.3828125 C-19 2 -19 2 -17 0 C-11.40333858 -1.64607689 -5.60710435 -1.40177609 0 0 Z M-13 15 C-12.67 15.66 -12.34 16.32 -12 17 C-10.02 17 -8.04 17 -6 17 C-6 16.67 -6 16.34 -6 16 C-8.31 15.67 -10.62 15.34 -13 15 Z " fill="#020202" transform="translate(310,267)"/>
<path d="M0 0 C1.99954746 -0.04254356 4.00041636 -0.04080783 6 0 C7 1 7 1 7.0625 4.5625 C7.041875 5.696875 7.02125 6.83125 7 8 C9.64 8 12.28 8 15 8 C15 9.98 15 11.96 15 14 C12.36 14 9.72 14 7 14 C7 16.31 7 18.62 7 21 C7.66 21 8.32 21 9 21 C9.66 21.99 10.32 22.98 11 24 C13.05925139 24.72382467 13.05925139 24.72382467 15 25 C15.33 27.64 15.66 30.28 16 33 C11.52386208 34.73564531 9.89245275 35.27797709 5.1875 33.8125 C2 32 2 32 0 29 C-0.1953125 26.73828125 -0.1953125 26.73828125 -0.125 24.3125 C-0.10695313 23.50425781 -0.08890625 22.69601562 -0.0703125 21.86328125 C-0.04710937 21.24839844 -0.02390625 20.63351562 0 20 C-0.66 19.67 -1.32 19.34 -2 19 C-2 17.35 -2 15.7 -2 14 C-2.99 14 -3.98 14 -5 14 C-5 12.02 -5 10.04 -5 8 C-4.01 7.67 -3.02 7.34 -2 7 C-2 6.34 -2 5.68 -2 5 C-1.34 5 -0.68 5 0 5 C0 3.35 0 1.7 0 0 Z " fill="#020202" transform="translate(320,259)"/>
<path d="M0 0 C2.37531394 -0.0543965 4.74935883 -0.09385864 7.125 -0.125 C7.79015625 -0.14175781 8.4553125 -0.15851563 9.140625 -0.17578125 C13.49516056 -0.21847278 16.95600114 0.40003783 21 2 C20.67 3.98 20.34 5.96 20 8 C17.36 8.66 14.72 9.32 12 10 C12.01160156 11.14339844 12.02320313 12.28679687 12.03515625 13.46484375 C12.04453288 14.95572754 12.05363321 16.44661309 12.0625 17.9375 C12.07087891 18.69224609 12.07925781 19.44699219 12.08789062 20.22460938 C12.09652441 22.14994313 12.05224333 24.07535581 12 26 C11 27 11 27 7.9375 27.0625 C6.968125 27.041875 5.99875 27.02125 5 27 C4.25904227 23.94354936 4.01741457 21.48627028 4.125 18.3125 C4.08375 17.219375 4.0425 16.12625 4 15 C3.01 14.34 2.02 13.68 1 13 C1.33 12.34 1.66 11.68 2 11 C2.66 11 3.32 11 4 11 C3.67 10.01 3.34 9.02 3 8 C2.01 7.67 1.02 7.34 0 7 C0 4.69 0 2.38 0 0 Z " fill="#020101" transform="translate(435,265)"/>
<path d="M0 0 C0.33 0 0.66 0 1 0 C1 1.98 1 3.96 1 6 C0.34 6 -0.32 6 -1 6 C-1 8.31 -1 10.62 -1 13 C-1.66 13 -2.32 13 -3 13 C-2.90460938 13.83144531 -2.80921875 14.66289062 -2.7109375 15.51953125 C-2.60007813 16.60621094 -2.48921875 17.69289062 -2.375 18.8125 C-2.25898438 19.89144531 -2.14296875 20.97039062 -2.0234375 22.08203125 C-2 25 -2 25 -4 28 C-4.19817532 30.73073936 -4.28330807 33.33418582 -4.25 36.0625 C-4.24540771 36.82240234 -4.24081543 37.58230469 -4.23608398 38.36523438 C-4.48381265 47.8144136 -4.48381265 47.8144136 -1 56 C-0.95919217 57.99958364 -0.95745644 60.00045254 -1 62 C-0.34 62.33 0.32 62.66 1 63 C0.34 63.99 -0.32 64.98 -1 66 C-1.65003625 63.79290017 -2.29484745 61.58426108 -2.9375 59.375 C-3.29714844 58.14523438 -3.65679687 56.91546875 -4.02734375 55.6484375 C-8.7064459 38.09710656 -7.29161911 16.66655797 0 0 Z " fill="#C21122" transform="translate(208,121)"/>
<path d="M0 0 C0.66 0.33 1.32 0.66 2 1 C0.38678954 4.22642093 -2.97856941 4.63115006 -6.25 5.8125 C-8.26573906 6.89065404 -8.26573906 6.89065404 -8.5625 9.4375 C-8.7790625 10.7059375 -8.7790625 10.7059375 -9 12 C-10.5625 13.8125 -10.5625 13.8125 -12 15 C-12.66 14.34 -13.32 13.68 -14 13 C-14.61875 13.495 -15.2375 13.99 -15.875 14.5 C-18 16 -18 16 -20 16 C-20.33 16.99 -20.66 17.98 -21 19 C-24.0625 20.1875 -24.0625 20.1875 -27 21 C-20.29729375 12.24924462 -10.37297862 4.04685713 0 0 Z " fill="#DA071D" transform="translate(254,72)"/>
<path d="M0 0 C0.99 0.33 1.98 0.66 3 1 C3.3721042 2.32303717 3.70630173 3.65737935 4 5 C4.66 5.33 5.32 5.66 6 6 C6 7.32 6 8.64 6 10 C3.69 10.33 1.38 10.66 -1 11 C-2.1875 8.3125 -2.1875 8.3125 -3 5 C-1.625 2.125 -1.625 2.125 0 0 Z " fill="#F4C84E" transform="translate(491,194)"/>
<path d="M0 0 C2.475 0.99 2.475 0.99 5 2 C4.01 2.495 4.01 2.495 3 3 C3.61875 3.9075 4.2375 4.815 4.875 5.75 C7 9 7 9 7.9375 10.9375 C10.9527356 16.7906044 14.80352646 21.01200868 20 25 C19.67 25.99 19.34 26.98 19 28 C11.02628342 20.68066137 4.59473442 11.82468558 0 2 C0 1.34 0 0.68 0 0 Z " fill="#C61123" transform="translate(211,194)"/>
<path d="M0 0 C3.03357766 -0.23335213 5.9717495 -0.33882523 9 0 C11 1.75 11 1.75 13 4 C15.92672401 5.51452851 18.94334108 6.77211138 22 8 C18.62486849 9.12504384 18.17931822 8.94097346 15.05859375 7.63671875 C14.31029297 7.32669922 13.56199219 7.01667969 12.79101562 6.69726562 C12.01435547 6.36404297 11.23769531 6.03082031 10.4375 5.6875 C9.65697266 5.36587891 8.87644531 5.04425781 8.07226562 4.71289062 C2.27834356 2.27834356 2.27834356 2.27834356 0 0 Z " fill="#E5A544" transform="translate(361,235)"/>
<path d="M0 0 C3.00045139 3.80255225 5.50708333 7.89347889 8.0625 12 C8.50916016 12.7115625 8.95582031 13.423125 9.41601562 14.15625 C9.84720703 14.8471875 10.27839844 15.538125 10.72265625 16.25 C11.11203369 16.87390625 11.50141113 17.4978125 11.90258789 18.140625 C13.03157713 20.05350199 14.02974217 22.00258905 15 24 C8.89145497 19.21939954 8.89145497 19.21939954 7 15 C6.01 14.34 5.02 13.68 4 13 C2.83203125 10.9765625 2.83203125 10.9765625 1.8125 8.625 C1.46832031 7.85414063 1.12414062 7.08328125 0.76953125 6.2890625 C0 4 0 4 0 0 Z " fill="#E31107" transform="translate(322,192)"/>
<path d="M0 0 C1.67542976 0.28604898 3.34385343 0.61781233 5 1 C5.33 2.65 5.66 4.3 6 6 C5.01 6.66 4.02 7.32 3 8 C0.3125 7.125 0.3125 7.125 -2 6 C-1.125 1.125 -1.125 1.125 0 0 Z " fill="#5B5B59" transform="translate(491,287)"/>
<path d="M0 0 C1.33333333 1.33333333 2.66666667 2.66666667 4 4 C6.02024624 4.92338124 8.06564086 5.79249311 10.125 6.625 C11.76855469 7.29402344 11.76855469 7.29402344 13.4453125 7.9765625 C14.28835938 8.31429687 15.13140625 8.65203125 16 9 C16 9.66 16 10.32 16 11 C8.30529677 9.09718835 1.82119281 6.00712657 -5 2 C-5 1.67 -5 1.34 -5 1 C-2.625 0.375 -2.625 0.375 0 0 Z " fill="#BF1526" transform="translate(251,232)"/>
<path d="M0 0 C-0.33 1.32 -0.66 2.64 -1 4 C-1.66 4 -2.32 4 -3 4 C-3 3.34 -3 2.68 -3 2 C-4.97993541 2.30759178 -6.95893599 2.6212068 -8.9375 2.9375 C-10.03964844 3.11152344 -11.14179688 3.28554687 -12.27734375 3.46484375 C-14.90426929 3.71845136 -14.90426929 3.71845136 -16 5 C-18.67058851 5.14115161 -21.32432238 5.04247107 -24 5 C-17.20229547 0.46819698 -8.03714304 -0.47277312 0 0 Z " fill="#E5A94A" transform="translate(400,64)"/>
<path d="M0 0 C0.66 0 1.32 0 2 0 C1.52412884 6.02770138 -1.19722957 10.76678289 -4 16 C-5.59060619 10.80780693 -3.91783597 6.79742878 -1.5 2.0625 C-1.005 1.381875 -0.51 0.70125 0 0 Z " fill="#F0A93B" transform="translate(490,185)"/>
<path d="M0 0 C2.99220268 1.36370299 5.29026529 2.94908083 7.75 5.125 C8.67039062 5.93324219 8.67039062 5.93324219 9.609375 6.7578125 C10.06828125 7.16773437 10.5271875 7.57765625 11 8 C8.53721199 9.231394 6.7204945 9.07159196 4 9 C4 8.34 4 7.68 4 7 C4.66 7 5.32 7 6 7 C6 6.34 6 5.68 6 5 C4.7934375 5.2784375 4.7934375 5.2784375 3.5625 5.5625 C2.716875 5.706875 1.87125 5.85125 1 6 C0 5 0 5 -0.0625 2.4375 C-0.041875 1.633125 -0.02125 0.82875 0 0 Z " fill="#EBA53A" transform="translate(458,81)"/>
<path d="M0 0 C4.06225548 0.57823096 6.84762346 1.89117737 10.3125 4.0625 C11.19550781 4.61035156 12.07851563 5.15820312 12.98828125 5.72265625 C13.65214844 6.14417969 14.31601562 6.56570312 15 7 C11.98968256 7.93423645 11.13349732 8.04449911 8 7 C8 6.01 8 5.02 8 4 C5.69 4.33 3.38 4.66 1 5 C0.67 3.35 0.34 1.7 0 0 Z " fill="#ECA43F" transform="translate(440,71)"/>
<path d="M0 0 C-2.87209787 2.36798831 -5.36911918 3.64832592 -8.9375 4.6875 C-9.77152344 4.93886719 -10.60554688 5.19023437 -11.46484375 5.44921875 C-14.05592311 6.0121497 -16.35727613 6.09927943 -19 6 C-19 5.34 -19 4.68 -19 4 C-18.11248047 3.81824219 -18.11248047 3.81824219 -17.20703125 3.6328125 C-13.76324363 2.90248234 -10.51573745 2.2109835 -7.25 0.875 C-4.69692993 -0.11786058 -2.71566581 -0.1551809 0 0 Z " fill="#C81526" transform="translate(329,239)"/>
<path d="M0 0 C-1 2 -1 2 -3.9375 3.125 C-8.58374625 4.363999 -13.22896766 4.17279393 -18 4 C-12.23759526 0.15839684 -6.70842135 -0.23538321 0 0 Z " fill="#C50F21" transform="translate(282,65)"/>
<path d="M0 0 C4.95 0.99 4.95 0.99 10 2 C10 2.99 10 3.98 10 5 C10.66 5 11.32 5 12 5 C12.33 6.32 12.66 7.64 13 9 C7.97290493 7.42903279 3.97133531 4.38006951 0 1 C0 0.67 0 0.34 0 0 Z " fill="#C80C20" transform="translate(233,224)"/>
<path d="M0 0 C1.65 0.33 3.3 0.66 5 1 C5 1.66 5 2.32 5 3 C1.79474083 5.62248477 0.37982123 6.03113289 -3.8125 5.6875 C-5.3903125 5.3471875 -5.3903125 5.3471875 -7 5 C-5.75 3.5 -5.75 3.5 -4 2 C-2.68 2 -1.36 2 0 2 C0 1.34 0 0.68 0 0 Z " fill="#F1AA30" transform="translate(447,232)"/>
<path d="M0 0 C0 0.66 0 1.32 0 2 C-0.99 2 -1.98 2 -3 2 C-3 2.99 -3 3.98 -3 5 C-8.45769231 8.10096154 -8.45769231 8.10096154 -11.203125 7.58984375 C-11.79609375 7.39519531 -12.3890625 7.20054688 -13 7 C-11.21190303 5.82786955 -9.41940875 4.66244474 -7.625 3.5 C-6.62726563 2.8503125 -5.62953125 2.200625 -4.6015625 1.53125 C-2 0 -2 0 0 0 Z " fill="#EC9F3B" transform="translate(366,73)"/>
<path d="M0 0 C0.99 0.66 1.98 1.32 3 2 C3 2.66 3 3.32 3 4 C2.01 4 1.02 4 0 4 C0 4.99 0 5.98 0 7 C1.32 7.33 2.64 7.66 4 8 C2.625 9.5 2.625 9.5 1 11 C0.34 11 -0.32 11 -1 11 C-2.0257259 6.58937864 -2.03684712 4.07369424 0 0 Z " fill="#DC0721" transform="translate(211,114)"/>
<path d="M0 0 C-2.64 2.64 -5.28 5.28 -8 8 C-8 5.16032769 -7.59732819 2.76264289 -7 0 C-4 -1 -4 -1 0 0 Z " fill="#E5A03B" transform="translate(473,218)"/>
<path d="M0 0 C1.32 0 2.64 0 4 0 C5.41687119 4.25061356 4.19320039 6.71851625 3 11 C2.67 11 2.34 11 2 11 C1.67 9.02 1.34 7.04 1 5 C0.67 5 0.34 5 0 5 C0 3.35 0 1.7 0 0 Z " fill="#EDA936" transform="translate(491,170)"/>
<path d="M0 0 C2.31 0 4.62 0 7 0 C7 1.65 7 3.3 7 5 C6.34 5 5.68 5 5 5 C5 4.01 5 3.02 5 2 C4.01 2 3.02 2 2 2 C1.67 2.99 1.34 3.98 1 5 C0.67 5 0.34 5 0 5 C0 3.35 0 1.7 0 0 Z " fill="#0A0A0A" transform="translate(476,257)"/>
<path d="M0 0 C1.32 0.33 2.64 0.66 4 1 C2.71283353 2.00578589 1.42011342 3.00446798 0.125 4 C-0.95394531 4.8353125 -0.95394531 4.8353125 -2.0546875 5.6875 C-4 7 -4 7 -6 7 C-6 6.01 -6 5.02 -6 4 C-5.38125 3.896875 -4.7625 3.79375 -4.125 3.6875 C-1.63473516 3.12474627 -1.63473516 3.12474627 0 0 Z " fill="#C51424" transform="translate(344,228)"/>
<path d="M0 0 C0.66 0.33 1.32 0.66 2 1 C0.60624928 3.78750144 -1.16244861 3.89266287 -4 5 C-4.66 5.66 -5.32 6.32 -6 7 C-8.125 6.625 -8.125 6.625 -10 6 C-8.3811004 4.96951963 -6.75467511 3.95085322 -5.125 2.9375 C-4.22007812 2.36902344 -3.31515625 1.80054687 -2.3828125 1.21484375 C-1.20332031 0.61349609 -1.20332031 0.61349609 0 0 Z " fill="#C31124" transform="translate(254,72)"/>
<path d="M0 0 C0.99 0.33 1.98 0.66 3 1 C3 2.32 3 3.64 3 5 C0.69 5.33 -1.62 5.66 -4 6 C-3.67 4.68 -3.34 3.36 -3 2 C-2.34 2 -1.68 2 -1 2 C-1 2.66 -1 3.32 -1 4 C-0.34 4 0.32 4 1 4 C0.67 2.68 0.34 1.36 0 0 Z " fill="#ECB679" transform="translate(494,199)"/>
<path d="M0 0 C2 2 2 2 2 5 C2.66 5 3.32 5 4 5 C5.35439668 7.70879335 5.06501451 10.00933268 5 13 C2.94876752 10.94876752 2.35852882 9.72994937 1.375 7.0625 C0.98441406 6.02802734 0.98441406 6.02802734 0.5859375 4.97265625 C0 3 0 3 0 0 Z " fill="#FD4C14" transform="translate(319,181)"/>
<path d="M0 0 C0.99 0.33 1.98 0.66 3 1 C2.8125 2.8125 2.8125 2.8125 2 5 C-0.5625 6.75 -0.5625 6.75 -3 8 C-2.690625 7.236875 -2.38125 6.47375 -2.0625 5.6875 C-1.32106407 3.81210323 -0.63771783 1.91315348 0 0 Z " fill="#D91816" transform="translate(346,81)"/>
<path d="M0 0 C0 2.31 0 4.62 0 7 C-0.99 7.33 -1.98 7.66 -3 8 C-3.33 5.69 -3.66 3.38 -4 1 C-1 0 -1 0 0 0 Z " fill="#090909" transform="translate(485,286)"/>
<path d="M0 0 C4.75 0.875 4.75 0.875 7 2 C7 2.66 7 3.32 7 4 C5.02 4 3.04 4 1 4 C0.67 2.68 0.34 1.36 0 0 Z " fill="#EDAA30" transform="translate(382,241)"/>
<path d="M0 0 C2.32947183 2.11770166 3.88750845 4.03335588 5 7 C4.67 7.99 4.34 8.98 4 10 C4 9.34 4 8.68 4 8 C3.01 8 2.02 8 1 8 C0.67 5.36 0.34 2.72 0 0 Z " fill="#ECAD3E" transform="translate(484,109)"/>
<path d="M0 0 C2.64 0 5.28 0 8 0 C7.67 1.32 7.34 2.64 7 4 C6.34 4 5.68 4 5 4 C5 3.34 5 2.68 5 2 C3.35 2 1.7 2 0 2 C0 1.34 0 0.68 0 0 Z " fill="#EBA53E" transform="translate(392,64)"/>
<path d="M0 0 C0.99 0.99 1.98 1.98 3 3 C1.35 4.65 -0.3 6.3 -2 8 C-2.20086443 4.28400809 -2.1519437 3.22791555 0 0 Z " fill="#ECA13F" transform="translate(476,208)"/>
<path d="M0 0 C0.66 0.33 1.32 0.66 2 1 C-0.25 3.5625 -0.25 3.5625 -3 6 C-4.32 5.67 -5.64 5.34 -7 5 C-4.69 3.35 -2.38 1.7 0 0 Z " fill="#C21224" transform="translate(242,79)"/>
<path d="M0 0 C0.66 1.32 1.32 2.64 2 4 C1.01 5.485 1.01 5.485 0 7 C-0.99 7 -1.98 7 -3 7 C-1.125 1.125 -1.125 1.125 0 0 Z " fill="#CE0D1F" transform="translate(216,106)"/>
<path d="M0 0 C0.66 0.33 1.32 0.66 2 1 C0.02 3.97 -1.96 6.94 -4 10 C-4.33 9.01 -4.66 8.02 -5 7 C-4.00390625 5.17578125 -4.00390625 5.17578125 -2.5625 3.3125 C-2.08941406 2.68988281 -1.61632812 2.06726563 -1.12890625 1.42578125 C-0.75636719 0.95527344 -0.38382812 0.48476562 0 0 Z " fill="#E40C0C" transform="translate(334,96)"/>
<path d="M0 0 C1.98 0 3.96 0 6 0 C5.67 0.99 5.34 1.98 5 3 C3.35 3 1.7 3 0 3 C0 2.01 0 1.02 0 0 Z " fill="#7A7B78" transform="translate(491,289)"/>
<path d="M0 0 C2 2 2 2 2 4 C-0.9375 3.625 -0.9375 3.625 -4 3 C-4.33 2.34 -4.66 1.68 -5 1 C-2.625 0.375 -2.625 0.375 0 0 Z " fill="#CF0B1D" transform="translate(251,232)"/>
<path d="M0 0 C0.66 0.33 1.32 0.66 2 1 C1.67 1.66 1.34 2.32 1 3 C0.34 2.67 -0.32 2.34 -1 2 C-0.67 1.34 -0.34 0.68 0 0 Z " fill="#000000" transform="translate(364,280)"/>
<path d="" fill="#000000" transform="translate(0,0)"/>
<path d="M0 0 C0.66 0.66 1.32 1.32 2 2 C1.34 2 0.68 2 0 2 C0 1.34 0 0.68 0 0 Z " fill="#000000" transform="translate(361,284)"/>
<path d="M0 0 C0.33 0.66 0.66 1.32 1 2 C0.34 1.67 -0.32 1.34 -1 1 C-0.67 0.67 -0.34 0.34 0 0 Z " fill="#000000" transform="translate(400,283)"/>
<path d="" fill="#000000" transform="translate(0,0)"/>
<path d="" fill="#000000" transform="translate(0,0)"/>
<path d="M0 0 C2 1 2 1 2 1 Z " fill="#000000" transform="translate(394,284)"/>
<path d="" fill="#000000" transform="translate(0,0)"/>
<path d="M0 0 C2 1 2 1 2 1 Z " fill="#000000" transform="translate(424,283)"/>
<path d="" fill="#000000" transform="translate(0,0)"/>
<path d="" fill="#000000" transform="translate(0,0)"/>
<path d="" fill="#000000" transform="translate(0,0)"/>
<path d="" fill="#808080" transform="translate(0,0)"/>
<path d="" fill="#000000" transform="translate(0,0)"/>
<path d="" fill="#000000" transform="translate(0,0)"/>
<path d="" fill="#000000" transform="translate(0,0)"/>
<path d="" fill="#000000" transform="translate(0,0)"/>
<path d="" fill="#000000" transform="translate(0,0)"/>
<path d="" fill="#000000" transform="translate(0,0)"/>
<path d="" fill="#000000" transform="translate(0,0)"/>
<path d="" fill="#000000" transform="translate(0,0)"/>
<path d="" fill="#000000" transform="translate(0,0)"/>
<path d="" fill="#000000" transform="translate(0,0)"/>
<path d="" fill="#000000" transform="translate(0,0)"/>
<path d="" fill="#FFFF00" transform="translate(0,0)"/>
</svg>
