<?xml version="1.0" encoding="UTF-8"?>
<svg version="1.1" xmlns="http://www.w3.org/2000/svg" width="1692" height="647">
<path d="M0 0 C7.86568807 4.4946789 7.86568807 4.4946789 10.40234375 6.59375 C11.25953003 7.29346924 11.25953003 7.29346924 12.1340332 8.00732422 C12.72917725 8.49990723 13.32432129 8.99249023 13.9375 9.5 C19.14811648 13.74115404 24.41877592 17.8692484 29.8125 21.875 C36.34586504 26.73427016 42.78929069 31.69871954 49.20703125 36.70947266 C56.45352484 42.36416978 63.75578123 47.94416132 71.06298828 53.52001953 C74.99930154 56.52757322 78.92356869 59.55074145 82.84765625 62.57421875 C85.10280473 64.30959323 87.36040696 66.04140721 89.62109375 67.76953125 C90.21760742 68.22626221 90.81412109 68.68299316 91.42871094 69.15356445 C92.57299918 70.02957079 93.71813752 70.90446817 94.86425781 71.77807617 C97.02801901 73.43625709 99.06976667 75.06976667 101 77 C101 168.74 101 260.48 101 355 C-85.45 355 -271.9 355 -464 355 C-462.31002316 351.62004632 -461.29029524 350.04280305 -458.73152161 347.4977417 C-458.05734192 346.82225784 -457.38316223 346.14677399 -456.68855286 345.45082092 C-455.57971992 344.35513039 -455.57971992 344.35513039 -454.44848633 343.23730469 C-453.66939911 342.45953171 -452.89031189 341.68175873 -452.08761597 340.88041687 C-449.50698158 338.30628094 -446.91944818 335.73919173 -444.33203125 333.171875 C-442.53511095 331.38122675 -440.73870593 329.59006127 -438.9427948 327.79840088 C-434.69060748 323.55816974 -430.43436053 319.32206006 -426.17576474 315.08826852 C-418.11549434 307.07488539 -410.06215271 299.05456299 -402.01300621 291.03000641 C-399.37490424 288.40208258 -396.73338783 285.77762752 -394.09150696 283.15350342 C-392.4603817 281.5292123 -390.82936897 279.90480816 -389.19848633 278.28027344 C-388.46938553 277.55791 -387.74028473 276.83554657 -386.98908997 276.09129333 C-383.7028839 272.81232381 -380.51927483 269.499192 -377.4875946 265.98248291 C-376.94430018 265.37037185 -376.40100575 264.75826079 -375.84124786 264.12760091 C-373.99386204 262.04523524 -373.99386204 262.04523524 -372.43172437 259.89490724 C-369.56392778 256.42304769 -367.32378897 254.30902582 -362.86519831 253.26821065 C-358.94550554 252.99052804 -355.06789853 252.9707527 -351.14318848 253.03796387 C-349.6265954 253.0344724 -348.11000706 253.02746245 -346.59344435 253.01725054 C-342.43792075 252.99940119 -338.2840534 253.0313026 -334.12874079 253.07147503 C-329.6434969 253.10607172 -325.15834396 253.09432835 -320.67300415 253.08825684 C-312.90592882 253.08406504 -305.13939173 253.10913234 -297.37245178 253.15415955 C-286.14290226 253.21921807 -274.91361261 253.24001534 -263.68389505 253.25006348 C-245.46392057 253.26756599 -227.24423286 253.32078763 -209.02441406 253.39648438 C-191.32716279 253.46993352 -173.62998984 253.52646082 -155.93261719 253.56054688 C-154.279224 253.56376284 -154.279224 253.56376284 -152.59242892 253.56704378 C-143.97182092 253.58367948 -135.35121122 253.59933476 -126.73060083 253.61468029 C-84.48680399 253.69012936 -42.24372515 253.8510797 0 254 C0 170.18 0 86.36 0 0 Z " fill="#12A7DF" transform="translate(518,258)"/>
<path d="M0 0 C182.39781022 0 182.39781022 0 200.1875 13.75 C201.2745569 14.58877847 202.3618071 15.42730648 203.44921875 16.265625 C204.01688965 16.70326172 204.58456055 17.14089844 205.16943359 17.59179688 C208.60672252 20.23600633 212.05397224 22.86719639 215.5 25.5 C223.71214404 31.77589545 231.90529139 38.07604513 240.09375 44.3828125 C246.22085907 49.0994732 252.35643188 53.80479311 258.5 58.5 C266.71204044 64.7760318 274.90529063 71.07604455 283.09375 77.3828125 C284.1353125 78.18460937 285.176875 78.98640625 286.25 79.8125 C286.76828369 80.21243164 287.28656738 80.61236328 287.82055664 81.02441406 C291.04194698 83.50681096 294.27879885 85.96728323 297.52734375 88.4140625 C298.6860498 89.29034302 298.6860498 89.29034302 299.86816406 90.18432617 C301.38934507 91.33417889 302.91334657 92.48031179 304.44042969 93.62231445 C305.13426758 94.14784912 305.82810547 94.67338379 306.54296875 95.21484375 C307.16196045 95.68011475 307.78095215 96.14538574 308.41870117 96.62475586 C310 98 310 98 312 101 C242.37 101 172.74 101 101 101 C101.185625 125.79125 101.37125 150.5825 101.5625 176.125 C101.64424175 191.82033036 101.72202368 207.51552994 101.78125 223.2109375 C101.81257395 231.45671088 101.84490108 239.7024794 101.87890625 247.94824219 C101.88523622 249.49835947 101.88523622 249.49835947 101.89169407 251.07979226 C101.9612035 267.74374116 102.08729822 284.40680286 102.23444474 301.07022643 C102.38429548 318.18315613 102.47298749 335.29562277 102.50541592 352.40918159 C102.52732487 362.96200038 102.5964024 373.51231241 102.72666347 384.06435907 C102.81152189 391.30942369 102.83674019 398.55320074 102.81602204 405.79872572 C102.80581359 409.97447372 102.82096562 414.14585721 102.9072876 418.32081985 C103.44996187 445.92521185 103.44996187 445.92521185 95.49086666 454.59703445 C92.80675919 457.07639429 90.00077907 459.2670482 87.03386229 461.395926 C83.53593414 464.15468485 80.84064752 467.59176258 78 471 C76.77870011 472.29820971 75.54485053 473.58503756 74.28642273 474.84729004 C73.64021469 475.49776306 72.99400665 476.14823608 72.32821655 476.81842041 C71.64586945 477.50031433 70.96352234 478.18220825 70.26049805 478.88476562 C69.1518766 479.99842499 69.1518766 479.99842499 68.02085876 481.13458252 C65.6037614 483.56109641 63.18298865 485.98390009 60.76171875 488.40625 C59.07250268 490.09868182 57.38336096 491.79118785 55.69429016 493.48376465 C52.1683279 497.01569243 48.64032733 500.5455697 45.11108398 504.07421875 C40.5785556 508.6066449 36.05298042 513.145947 31.52908611 517.68698883 C28.05049817 521.17665646 24.56741424 524.66180906 21.08301735 528.14567566 C19.41117761 529.81869874 17.74096669 531.49335108 16.07239342 533.16963196 C13.75046028 535.50129653 11.42235737 537.82661856 9.0925293 540.15039062 C8.40006104 540.84847839 7.70759277 541.54656616 6.99414062 542.26580811 C6.04597725 543.20767975 6.04597725 543.20767975 5.07865906 544.1685791 C4.25438683 544.99366848 4.25438683 544.99366848 3.41346264 545.83542633 C2 547 2 547 0 547 C0 366.49 0 185.98 0 0 Z " fill="#FECE07" transform="translate(23,17)"/>
<path d="M0 0 C106.59 0 213.18 0 323 0 C323 81.84 323 163.68 323 248 C319.18428789 246.47371516 317.19573055 245.60627381 314.171875 243.19921875 C313.46313232 242.64073242 312.75438965 242.08224609 312.02416992 241.50683594 C311.27369385 240.90645508 310.52321777 240.30607422 309.75 239.6875 C308.13724507 238.4146974 306.52395078 237.14257797 304.91015625 235.87109375 C304.09305176 235.2251123 303.27594727 234.57913086 302.43408203 233.91357422 C298.71345992 230.98857561 294.95244205 228.11758497 291.1875 225.25 C289.77985777 224.17589937 288.37230384 223.10168303 286.96484375 222.02734375 C286.29565918 221.51671387 285.62647461 221.00608398 284.93701172 220.47998047 C282.03646915 218.26381094 279.14249694 216.03915532 276.25 213.8125 C275.2084375 213.01070312 274.166875 212.20890625 273.09375 211.3828125 C271.03125 209.79427083 268.96875 208.20572917 266.90625 206.6171875 C260.77914073 201.90052665 254.64353058 197.19525622 248.5 192.5 C243.24615967 188.48416065 237.99377518 184.46647744 232.75 180.4375 C231.75484375 179.67308594 230.7596875 178.90867188 229.734375 178.12109375 C228.83203125 177.42113281 227.9296875 176.72117188 227 176 C226.13031082 175.44004333 225.26062164 174.88008667 224.36457825 174.30316162 C222 172 222 172 221.39872742 168.82354736 C221.415382 166.94490997 221.415382 166.94490997 221.43237305 165.02832031 C221.43127785 163.98868889 221.43127785 163.98868889 221.43016052 162.92805481 C221.43363583 160.64394034 221.4724884 158.36188177 221.51171875 156.078125 C221.52104722 154.49201573 221.52816318 152.90589202 221.53315735 151.31976318 C221.55222486 147.15024866 221.60132237 142.98160859 221.65667725 138.81243896 C221.70787575 134.55606923 221.7306726 130.29955783 221.75585938 126.04296875 C221.80944239 117.69491174 221.89475092 109.34756472 222 101 C220.87485992 101.03108856 219.74971985 101.06217712 218.59048462 101.09420776 C207.91289642 101.37977357 197.23609628 101.58870006 186.55553627 101.72537041 C181.06598682 101.79800532 175.57955311 101.89626384 170.09179688 102.05615234 C164.78113303 102.20988745 159.47343649 102.2923025 154.16071701 102.3282814 C152.14879048 102.35386893 150.13700055 102.40383297 148.12636185 102.48022079 C133.74736841 103.00406085 125.58703649 100.22517976 114.82577515 90.52713013 C114.18410275 89.92890064 113.54243034 89.33067116 112.88131332 88.71431351 C110.11898855 86.19719389 107.17743284 83.99071984 104.1875 81.75 C103.15496094 80.95722656 102.12242187 80.16445312 101.05859375 79.34765625 C100.04925781 78.57292969 99.03992188 77.79820313 98 77 C95.91657754 75.39594908 93.8332462 73.79177983 91.75 72.1875 C86.67457897 68.28129811 81.58863046 64.38897337 76.5 60.5 C68.28795956 54.2239682 60.09470937 47.92395545 51.90625 41.6171875 C45.05078731 36.33983875 38.18349908 31.07824548 31.30883789 25.82592773 C28.01821272 23.31109575 24.72922706 20.79429448 21.44921875 18.265625 C20.62780396 17.63237305 20.62780396 17.63237305 19.78979492 16.98632812 C18.22388338 15.77807336 16.65880663 14.56873694 15.09375 13.359375 C12.91945152 11.70119788 10.73814933 10.06642752 8.53125 8.453125 C7.97026611 8.04094727 7.40928223 7.62876953 6.83129883 7.20410156 C5.28071447 6.06828067 3.72451336 4.94013905 2.16796875 3.8125 C1.45253906 3.214375 0.73710937 2.61625 0 2 C0 1.34 0 0.68 0 0 Z " fill="#34BA8E" transform="translate(296,17)"/>
<path d="M0 0 C2.52566199 1.93268048 4.6517757 4.02879764 6.796875 6.375 C7.33054687 5.91609375 7.86421875 5.4571875 8.4140625 4.984375 C17.68776928 -2.65279529 27.7037746 -6.63431595 39.796875 -5.625 C47.15459546 -4.38999144 53.65161635 -2.22528153 58.796875 3.375 C63.50252892 10.69751383 64.92512823 17.09035439 64.91040039 25.7355957 C64.91054642 26.45809006 64.91069244 27.18058441 64.9108429 27.92497253 C64.91014922 30.30027322 64.90238245 32.67549435 64.89453125 35.05078125 C64.89266513 36.70273292 64.89124214 38.35468515 64.89024353 40.00663757 C64.88643361 44.34507792 64.87661639 48.68348455 64.86553955 53.02191162 C64.8552926 57.45275415 64.85073888 61.88360215 64.84570312 66.31445312 C64.83499271 75.00131925 64.8174083 83.68815154 64.796875 92.375 C55.226875 92.375 45.656875 92.375 35.796875 92.375 C35.767146 89.18021973 35.767146 89.18021973 35.73681641 85.92089844 C35.66991066 78.8839916 35.59227112 71.84723269 35.50934792 64.81049728 C35.45940125 60.54410809 35.41307108 56.27774347 35.375 52.01123047 C35.33812657 47.89383654 35.29176106 43.77664893 35.23881149 39.65943146 C35.22027847 38.08860137 35.20516646 36.51772707 35.19353104 34.94683075 C35.17664972 32.74656547 35.14761083 30.54677156 35.11572266 28.34667969 C35.10239899 27.09425476 35.08907532 25.84182983 35.0753479 24.55145264 C34.81215346 21.54927656 34.43583296 19.86365614 32.796875 17.375 C29.79453602 15.06550848 26.54405738 14.95477187 22.8203125 15.05859375 C18.41769344 15.74703418 15.64487338 18.49480674 12.65911865 21.59391785 C10.35253545 25.03857847 10.28156982 27.06237269 10.25097656 31.18481445 C10.23547005 32.18077385 10.23547005 32.18077385 10.21965027 33.19685364 C10.19030234 35.3775794 10.18872493 37.55737383 10.1875 39.73828125 C10.17251278 41.25572979 10.15578448 42.77316205 10.13739014 44.29057312 C10.09376453 48.27390303 10.0737284 52.25701291 10.05865479 56.24053955 C10.03906623 60.30958033 9.99709825 64.37838409 9.95703125 68.44726562 C9.88178089 76.42314401 9.83352806 84.39885075 9.796875 92.375 C0.226875 92.375 -9.343125 92.375 -19.203125 92.375 C-19.21714355 89.24136963 -19.21714355 89.24136963 -19.23144531 86.04443359 C-19.26525846 79.13120168 -19.32083134 72.21826692 -19.38702774 65.30527306 C-19.42648608 61.11512086 -19.45868245 56.92517829 -19.47412109 52.73486328 C-19.48929878 48.6886324 -19.52376328 44.64297788 -19.57143402 40.59700394 C-19.5862365 39.05575199 -19.59416537 37.51441774 -19.59500885 35.97309494 C-19.59738386 33.80875425 -19.62450193 31.64599958 -19.65722656 29.48193359 C-19.66610901 28.25171478 -19.67499146 27.02149597 -19.68414307 25.7539978 C-20.30215784 21.73021505 -21.68073935 19.53367007 -24.203125 16.375 C-27.41951978 14.76680261 -30.71456667 14.90638769 -34.203125 15.375 C-38.58886227 17.65220973 -41.46319938 20.28318407 -44.203125 24.375 C-44.81540448 27.61699224 -44.81540448 27.61699224 -44.74902344 31.18481445 C-44.75936111 31.84878738 -44.76969879 32.51276031 -44.78034973 33.19685364 C-44.80969766 35.3775794 -44.81127507 37.55737383 -44.8125 39.73828125 C-44.82748722 41.25572979 -44.84421552 42.77316205 -44.86260986 44.29057312 C-44.90623547 48.27390303 -44.9262716 52.25701291 -44.94134521 56.24053955 C-44.96093377 60.30958033 -45.00290175 64.37838409 -45.04296875 68.44726562 C-45.11821911 76.42314401 -45.16647194 84.39885075 -45.203125 92.375 C-54.773125 92.375 -64.343125 92.375 -74.203125 92.375 C-74.203125 61.025 -74.203125 29.675 -74.203125 -2.625 C-64.633125 -2.625 -55.063125 -2.625 -45.203125 -2.625 C-44.873125 -0.975 -44.543125 0.675 -44.203125 2.375 C-43.130625 1.611875 -42.058125 0.84875 -40.953125 0.0625 C-28.61777406 -7.6225328 -12.13622063 -8.15554026 0 0 Z " fill="#0E5740" transform="translate(1156.203125,228.625)"/>
<path d="M0 0 C71.52413793 0 71.52413793 0 82.7890625 10.69921875 C88.72506327 17.2054265 90.97458629 24.28309796 91 33 C90.44066433 41.73050027 87.80476674 47.65018808 81.30859375 53.53125 C79.88907225 54.7079136 78.44630123 55.85641298 77 57 C76.505 57.99 76.505 57.99 76 59 C76.70125 59.0825 77.4025 59.165 78.125 59.25 C85.08384584 61.06535109 90.00059849 66.24783415 94 72 C98.86157355 81.15287453 99.42615673 91.11908566 97 101.125 C93.47923862 111.1960151 86.36052379 119.04998238 77 124 C53.06332319 134.11278206 24.56241818 129 0 129 C0 86.43 0 43.86 0 0 Z M30 20 C30 31.55 30 43.1 30 55 C43.53675214 54.48818276 43.53675214 54.48818276 54.875 48.625 C58.87775 43.68042647 60.52965027 40.61030275 60.28515625 34.2109375 C59.70462702 29.70984786 57.90926224 26.90926224 54.75 23.75 C46.72085696 18.64054534 39.61686112 20 30 20 Z M30 68 C30 81.2 30 94.4 30 108 C34.95 108.0928125 34.95 108.0928125 40 108.1875 C41.02351562 108.21481201 42.04703125 108.24212402 43.1015625 108.27026367 C50.37901882 108.33574388 56.07383089 107.47098725 61.8125 102.625 C66.30634708 97.2323835 68 93.02015799 68 86 C67.07615626 80.96085235 65.68420509 77.58725233 62 74 C52.14281609 67.42854406 41.65838791 68 30 68 Z " fill="#0E5740" transform="translate(703,359)"/>
<path d="M0 0 C2.25000426 1.9431855 4.36621747 3.8354749 6.3046875 6.08984375 C6.3046875 6.74984375 6.3046875 7.40984375 6.3046875 8.08984375 C6.91054688 7.55875 7.51640625 7.02765625 8.140625 6.48046875 C17.82900625 -1.6875819 27.46373657 -5.78033058 40.3046875 -4.91015625 C48.11152614 -4.06279476 54.4880444 -0.95895526 59.91015625 4.79296875 C64.53579436 10.81579374 65.61027256 17.3742593 65.53173828 24.86108398 C65.53203033 25.60337753 65.53232239 26.34567108 65.53262329 27.11045837 C65.53124092 29.53990779 65.51573189 31.96904232 65.5 34.3984375 C65.49626597 36.09236992 65.49342084 37.78630451 65.49142456 39.48023987 C65.48381878 43.92062429 65.46419678 48.36087615 65.4420166 52.8012085 C65.4214921 57.3394593 65.41240876 61.8777317 65.40234375 66.41601562 C65.38094778 75.30735903 65.34579079 84.19856958 65.3046875 93.08984375 C56.0646875 93.08984375 46.8246875 93.08984375 37.3046875 93.08984375 C37.2749585 90.10038696 37.2749585 90.10038696 37.24462891 87.05053711 C37.1767214 80.4487126 37.09993583 73.84703747 37.01716042 67.24538326 C36.96732056 63.24475984 36.92098997 59.24416126 36.8828125 55.2434082 C36.84580348 51.37886559 36.79940228 47.5145372 36.74662399 43.65017891 C36.72816268 42.17951802 36.71302456 40.70881135 36.70134354 39.23808098 C36.68433847 37.17013723 36.65527176 35.10267532 36.62353516 33.03491211 C36.61021149 31.86020859 36.59688782 30.68550507 36.5831604 29.47520447 C36.19287686 24.73057556 35.78499736 20.40097534 32.1171875 17.15234375 C28.04188462 15.61278488 24.58913914 15.19905129 20.44140625 16.81640625 C16.4131028 18.93838194 13.89465347 21.27693388 11.3046875 25.08984375 C10.69240802 28.33183599 10.69240802 28.33183599 10.75878906 31.8996582 C10.74328255 32.8956176 10.74328255 32.8956176 10.72746277 33.91169739 C10.69811484 36.09242315 10.69653743 38.27221758 10.6953125 40.453125 C10.68032528 41.97057354 10.66359698 43.4880058 10.64520264 45.00541687 C10.60157703 48.98874678 10.5815409 52.97185666 10.56646729 56.9553833 C10.54687873 61.02442408 10.50491075 65.09322784 10.46484375 69.16210938 C10.38959339 77.13798776 10.34134056 85.1136945 10.3046875 93.08984375 C1.0646875 93.08984375 -8.1753125 93.08984375 -17.6953125 93.08984375 C-17.7250415 90.14582642 -17.7250415 90.14582642 -17.75537109 87.14233398 C-17.82328319 80.64029276 -17.90006907 74.1384031 -17.98283958 67.63653469 C-18.0326759 63.69644596 -18.07900648 59.75638239 -18.1171875 55.81616211 C-18.15420105 52.00997226 -18.20060338 48.20399972 -18.25337601 44.3979969 C-18.27183494 42.94966527 -18.28697391 41.5012872 -18.29865646 40.05288506 C-18.31566569 38.01607121 -18.3447332 35.97974591 -18.37646484 33.94311523 C-18.38978851 32.78617661 -18.40311218 31.62923798 -18.4168396 30.4372406 C-18.82582931 25.52096023 -19.53661284 21.41894042 -22.8203125 17.65234375 C-26.51390465 15.64495671 -29.62804509 15.29876423 -33.6953125 16.08984375 C-38.08104977 18.36705348 -40.95538688 20.99802782 -43.6953125 25.08984375 C-44.30759198 28.33183599 -44.30759198 28.33183599 -44.24121094 31.8996582 C-44.25154861 32.56363113 -44.26188629 33.22760406 -44.27253723 33.91169739 C-44.30188516 36.09242315 -44.30346257 38.27221758 -44.3046875 40.453125 C-44.31967472 41.97057354 -44.33640302 43.4880058 -44.35479736 45.00541687 C-44.39842297 48.98874678 -44.4184591 52.97185666 -44.43353271 56.9553833 C-44.45312127 61.02442408 -44.49508925 65.09322784 -44.53515625 69.16210938 C-44.61040661 77.13798776 -44.65865944 85.1136945 -44.6953125 93.08984375 C-53.9353125 93.08984375 -63.1753125 93.08984375 -72.6953125 93.08984375 C-72.6953125 61.73984375 -72.6953125 30.38984375 -72.6953125 -1.91015625 C-63.4553125 -1.91015625 -54.2153125 -1.91015625 -44.6953125 -1.91015625 C-44.3653125 0.06984375 -44.0353125 2.04984375 -43.6953125 4.08984375 C-42.73625 3.22359375 -42.73625 3.22359375 -41.7578125 2.33984375 C-30.20132755 -6.15063499 -12.22664461 -8.66496987 0 0 Z " fill="#0E5740" transform="translate(1001.6953125,227.91015625)"/>
<path d="M0 0 C6.2278848 5.59963327 10.77859659 13.8976546 11.84375 22.2265625 C11.885 23.2990625 11.92625 24.3715625 11.96875 25.4765625 C4.27417778 29.09753766 4.27417778 29.09753766 -0.03125 28.4765625 C-1.55078125 26.71875 -1.55078125 26.71875 -2.84375 24.3515625 C-7.03273478 17.58964799 -11.77617294 13.92609938 -19.40625 11.6015625 C-30.68194615 8.9923105 -41.05335192 10.49736141 -51.21875 16.1015625 C-62.05733062 23.12083376 -67.39621849 32.97193017 -70.34375 45.3515625 C-72.79671948 60.30753178 -70.640608 75.95543042 -62.7890625 89.07421875 C-56.92196898 97.0925799 -48.8337613 102.57930225 -39.03125 104.4765625 C-26.20419338 105.40694354 -16.0933582 103.74744488 -5.98046875 95.359375 C-3.16721966 92.64196807 -1.12017683 89.77841459 0.96875 86.4765625 C5.35764325 87.14154633 8.9498985 88.66413927 12.96875 90.4765625 C8.80149668 103.59115382 2.50664634 114.29244101 -9.96875 120.7890625 C-27.11825699 128.80922995 -47.44584528 128.12678427 -65.21875 122.3515625 C-81.0499708 116.27761537 -91.42169678 104.54366534 -98.37109375 89.44921875 C-106.61197298 70.44548674 -106.04910868 47.5275219 -98.68798828 28.38354492 C-91.36549298 10.71721976 -78.3646317 -0.28085078 -61.03125 -7.5234375 C-42.11575493 -15.24510535 -16.22665604 -12.16999203 0 0 Z " fill="#0E5740" transform="translate(802.03125,198.5234375)"/>
<path d="M0 0 C9.24 0 18.48 0 28 0 C28.33 21.78 28.66 43.56 29 66 C37.98132754 57.11339447 37.98132754 57.11339447 46.34375 47.875 C48.82679328 45.06400761 51.50930936 42.46698854 54.203125 39.859375 C56.06831633 38.09069044 56.06831633 38.09069044 57.15649414 35.90820312 C59 34 59 34 62.27807617 33.54589844 C63.6165408 33.54652985 64.95511238 33.56902269 66.29296875 33.609375 C67.35201164 33.61786469 67.35201164 33.61786469 68.43244934 33.62652588 C70.68482626 33.64889589 72.93560503 33.69908801 75.1875 33.75 C76.71547179 33.77006444 78.24346856 33.78831532 79.77148438 33.8046875 C83.51493756 33.84876198 87.25719795 33.91778926 91 34 C86.76926544 38.99937183 82.42209453 43.85265232 77.9375 48.625 C77.29063232 49.31577637 76.64376465 50.00655273 75.97729492 50.71826172 C71.17385091 55.82122494 66.26566395 60.80621066 61.21264648 65.66259766 C57.91134484 68.8862783 55.41984049 72.10746422 53 76 C54.21623047 77.39798828 54.21623047 77.39798828 55.45703125 78.82421875 C65.02532526 89.83502761 74.52427237 100.89221959 83.71875 112.21875 C85.38979595 114.2560526 87.07445727 116.27436185 88.78125 118.28125 C89.4762561 119.1019397 89.4762561 119.1019397 90.18530273 119.93920898 C91.4963716 121.48455501 92.81250718 123.02559821 94.12890625 124.56640625 C96 127 96 127 96 129 C91.52045973 129.27544473 87.04559792 129.47305008 82.56005859 129.60424805 C81.0406297 129.65900658 79.5217649 129.73365798 78.00439453 129.82983398 C70.24243525 130.3088724 63.89884411 130.53580984 57.74639893 125.27217102 C55.3455213 122.96465665 53.15176178 120.54042013 51 118 C50.20424561 117.06994141 49.40849121 116.13988281 48.58862305 115.18164062 C47.18270177 113.4943318 45.80321438 111.78478268 44.4453125 110.05859375 C39.49871845 103.87140024 34.20362818 97.97047865 29 92 C28.67 104.21 28.34 116.42 28 129 C18.76 129 9.52 129 0 129 C0 86.43 0 43.86 0 0 Z " fill="#0E5740" transform="translate(1013,359)"/>
<path d="M0 0 C10.60564006 8.20633133 16.52244887 18.48966764 18.5625 31.75 C19.0575 40.165 19.0575 40.165 19.5625 48.75 C-3.2075 48.75 -25.9775 48.75 -49.4375 48.75 C-45.44137391 62.32232329 -45.44137391 62.32232329 -35.4375 71.75 C-25.51837884 75.47154621 -17.30394369 75.52584367 -7.4375 71.75 C-1.5426591 68.68468273 2.34239467 63.76271395 6.5625 58.75 C8.04734412 59.14595843 9.5253831 59.56750706 11 60 C11.82371094 60.23203125 12.64742187 60.4640625 13.49609375 60.703125 C15.5625 61.75 15.5625 61.75 16.53125 63.4375 C16.62647596 70.48422108 10.4684044 79.27632551 5.75 84.3125 C-4.19499895 93.31310951 -17.44057399 96.14643272 -30.53515625 95.96484375 C-47.35871298 94.71949298 -59.42404888 89.10771342 -70.48046875 76.40234375 C-79.78912031 64.19590301 -81.94178678 48.17238096 -79.9765625 33.25 C-77.7683837 21.40377023 -72.80474895 10.31085618 -63 2.91015625 C-44.83026755 -9.29763274 -18.98761323 -12.45883931 0 0 Z M-43.4375 17.75 C-46.11574038 21.86231042 -48.4375 25.77367903 -48.4375 30.75 C-36.2275 30.75 -24.0175 30.75 -11.4375 30.75 C-14.12245497 20.51122496 -14.12245497 20.51122496 -21.23828125 13.62109375 C-28.74172382 10.64903746 -37.81196094 11.8776128 -43.4375 17.75 Z " fill="#0E5740" transform="translate(1312.4375,229.25)"/>
<path d="M0 0 C8.04167877 6.50118143 11.83784986 14.687232 13.22265625 24.796875 C13.30648003 27.07282729 13.34047879 29.35092663 13.33618164 31.62841797 C13.33632767 32.28278336 13.33647369 32.93714874 13.33662415 33.61134338 C13.33593272 35.75395126 13.32817677 37.89646999 13.3203125 40.0390625 C13.31844558 41.53264315 13.31702297 43.02622442 13.31602478 44.51980591 C13.31222119 48.43572707 13.30240949 52.35161068 13.2913208 56.26751709 C13.28106013 60.26948539 13.27651721 64.27145981 13.27148438 68.2734375 C13.26078514 76.11460242 13.24320598 83.9557297 13.22265625 91.796875 C3.98265625 91.796875 -5.25734375 91.796875 -14.77734375 91.796875 C-15.10734375 90.146875 -15.43734375 88.496875 -15.77734375 86.796875 C-16.51597656 87.20679688 -17.25460937 87.61671875 -18.015625 88.0390625 C-29.60695835 94.19557754 -40.64151751 96.68465624 -53.546875 93.0078125 C-62.23390675 89.80389974 -67.53678215 85.05396852 -71.77734375 76.796875 C-75.24307946 68.5451233 -74.9530055 58.35964382 -72.21484375 49.921875 C-68.37490461 40.75991494 -61.62698211 34.66891635 -52.55078125 30.86328125 C-40.75411495 26.62702136 -28.90449812 27.20495589 -16.77734375 29.796875 C-15.78734375 30.291875 -15.78734375 30.291875 -14.77734375 30.796875 C-15.05449219 30.03761719 -15.33164062 29.27835937 -15.6171875 28.49609375 C-16.16052734 27.00529297 -16.16052734 27.00529297 -16.71484375 25.484375 C-17.25431641 24.00517578 -17.25431641 24.00517578 -17.8046875 22.49609375 C-18.4862034 20.6048187 -19.14162485 18.70403171 -19.77734375 16.796875 C-21.50877229 15.63765372 -21.50877229 15.63765372 -23.77734375 14.796875 C-24.60234375 14.425625 -25.42734375 14.054375 -26.27734375 13.671875 C-33.84268672 11.78053926 -41.6042044 11.75930495 -48.6640625 15.30859375 C-52.70679596 18.1556944 -55.74418046 21.92897194 -58.77734375 25.796875 C-62.83016087 24.57160471 -66.22095139 23.09807006 -69.77734375 20.796875 C-65.11097311 9.62737081 -59.22855698 0.18689557 -47.58984375 -4.640625 C-32.84313794 -10.09421604 -13.19154494 -8.66566529 0 0 Z M-41.27734375 52.359375 C-44.22350661 57.14688965 -44.6765243 61.21862529 -43.77734375 66.796875 C-41.52270254 70.77817182 -39.1356589 73.34410328 -34.77734375 74.796875 C-27.71965034 75.67728256 -22.08470516 73.91301189 -15.77734375 70.796875 C-14.56091083 69.80204298 -14.56091083 69.80204298 -14.66381836 67.84741211 C-14.67167358 66.5984314 -14.67167358 66.5984314 -14.6796875 65.32421875 C-14.68452148 63.97553711 -14.68452148 63.97553711 -14.68945312 62.59960938 C-14.69783203 61.65408203 -14.70621094 60.70855469 -14.71484375 59.734375 C-14.71935547 58.78498047 -14.72386719 57.83558594 -14.72851562 56.85742188 C-14.74034265 54.50384435 -14.7568235 52.15039023 -14.77734375 49.796875 C-16.21363581 49.30117357 -17.6514292 48.8098208 -19.08984375 48.3203125 C-19.89035156 48.04622559 -20.69085937 47.77213867 -21.515625 47.48974609 C-28.41694356 45.37554682 -36.25255916 47.2089708 -41.27734375 52.359375 Z " fill="#0E5740" transform="translate(881.77734375,396.203125)"/>
<path d="M0 0 C8.91144148 8.91144148 11.1132582 20.98404597 11.16075611 33.21025467 C11.15219866 35.2809891 11.12915178 37.35126315 11.10546875 39.421875 C11.09985778 40.88445597 11.0955948 42.34704267 11.09260559 43.80963135 C11.08127468 47.61710807 11.05191248 51.42422904 11.01849365 55.23156738 C10.9875357 59.133496 10.97404589 63.03548338 10.95898438 66.9375 C10.92702833 74.56267922 10.87436038 82.18749399 10.8125 89.8125 C1.5725 89.8125 -7.6675 89.8125 -17.1875 89.8125 C-17.5175 88.1625 -17.8475 86.5125 -18.1875 84.8125 C-18.93773437 85.22242188 -19.68796875 85.63234375 -20.4609375 86.0546875 C-32.2759818 92.27469822 -42.78644867 94.60832577 -55.9921875 91.05859375 C-63.96968111 88.16099349 -69.18039061 84.22331666 -73.0625 76.625 C-77.2551748 67.58714803 -77.75376077 57.40836082 -74.625 47.875 C-71.14438817 39.65587102 -65.24327246 33.62305424 -57.1875 29.8125 C-43.26282346 24.57979923 -31.41971154 25.41134561 -17.1875 28.8125 C-19.28758536 21.75868389 -20.835738 16.83096167 -27.1875 12.8125 C-33.38131466 9.8971534 -40.1145223 9.76444565 -46.72265625 11.46484375 C-52.6598579 13.83768764 -58.2748606 17.98722119 -61.1875 23.8125 C-65.24031712 22.58722971 -68.63110764 21.11369506 -72.1875 18.8125 C-69.09856566 8.66005848 -62.80487428 -0.00864529 -53.38671875 -5.2265625 C-36.05669637 -12.79882805 -15.47423956 -10.61957617 0 0 Z M-42.82421875 49.140625 C-45.86798175 52.4547509 -47.1875 55.35444884 -47.1875 59.8125 C-46.5239047 63.77333445 -45.6227368 67.35786811 -42.7421875 70.27734375 C-38.19201329 73.25082968 -33.47441613 73.69222918 -28.1875 72.8125 C-22.25109906 71.11485747 -22.25109906 71.11485747 -17.1875 67.8125 C-17.10080568 66.3237814 -17.08046506 64.831055 -17.08984375 63.33984375 C-17.09467773 61.99116211 -17.09467773 61.99116211 -17.09960938 60.61523438 C-17.10798828 59.66970703 -17.11636719 58.72417969 -17.125 57.75 C-17.12951172 56.80060547 -17.13402344 55.85121094 -17.13867188 54.87304688 C-17.1504989 52.51946935 -17.16697975 50.16601523 -17.1875 47.8125 C-25.53797654 44.2146883 -35.30318735 43.0376401 -42.82421875 49.140625 Z " fill="#0E5740" transform="translate(1616.1875,231.1875)"/>
<path d="M0 0 C8.60609102 6.73709146 12.07064099 16.34514307 13.375 26.875 C13.45685452 29.12765585 13.49291942 31.38233636 13.48852539 33.63647461 C13.48841209 35.58770485 13.48841209 35.58770485 13.48829651 37.57835388 C13.48319141 38.97801757 13.47797544 40.37768086 13.47265625 41.77734375 C13.47078866 43.22465465 13.46936637 44.67196619 13.46836853 46.11927795 C13.46457018 49.9085976 13.4547631 53.69787826 13.44366455 57.48718262 C13.431583 62.04443812 13.42703541 66.60170673 13.42121124 71.15897369 C13.41154966 78.06434282 13.39237444 84.96962658 13.375 91.875 C4.135 91.875 -5.105 91.875 -14.625 91.875 C-14.955 90.225 -15.285 88.575 -15.625 86.875 C-16.37523437 87.28492188 -17.12546875 87.69484375 -17.8984375 88.1171875 C-29.07182697 93.99940009 -39.74229144 96.80113995 -52.26171875 93.6875 C-62.15320712 90.28678995 -67.68457053 84.36380167 -72.5 75.375 C-75.36612735 66.69080576 -74.87690808 55.25069405 -70.94921875 47.05078125 C-65.36801334 37.88048209 -57.79784505 32.21477471 -47.44921875 29.44140625 C-36.47891568 27.24127631 -25.30642301 27.31452566 -14.625 30.875 C-16.72508536 23.82118389 -18.273238 18.89346167 -24.625 14.875 C-30.81881466 11.9596534 -37.5520223 11.82694565 -44.16015625 13.52734375 C-50.0973579 15.90018764 -55.7123606 20.04972119 -58.625 25.875 C-62.67781712 24.64972971 -66.06860764 23.17619506 -69.625 20.875 C-66.53533791 10.72016656 -60.24249077 2.06202243 -50.828125 -3.1640625 C-35.23716109 -9.96437655 -14.56431772 -9.23644137 0 0 Z M-41.625 52.625 C-44.22299383 56.84673997 -45.1882674 60.01574737 -44.21484375 64.95703125 C-43.07641547 68.63135964 -41.84764906 70.6577814 -39.0625 73.375 C-32.44065075 76.26453422 -26.69617906 75.52833603 -20.0625 72.9375 C-17.11597657 71.74777034 -17.11597657 71.74777034 -14.625 69.875 C-14.53830568 68.3862814 -14.51796506 66.893555 -14.52734375 65.40234375 C-14.53217773 64.05366211 -14.53217773 64.05366211 -14.53710938 62.67773438 C-14.54548828 61.73220703 -14.55386719 60.78667969 -14.5625 59.8125 C-14.56701172 58.86310547 -14.57152344 57.91371094 -14.57617188 56.93554688 C-14.5879989 54.58196935 -14.60447975 52.22851523 -14.625 49.875 C-15.70358276 49.52985352 -15.70358276 49.52985352 -16.80395508 49.17773438 C-18.51904297 48.62890625 -20.23413086 48.08007812 -21.94921875 47.53125 C-28.82514404 45.84489168 -36.69017932 47.25981705 -41.625 52.625 Z " fill="#0E5740" transform="translate(852.625,62.125)"/>
<path d="M0 0 C7.62880585 5.89620734 11.08085889 12.34633528 13.21875 21.71484375 C13.72280215 27.22164462 13.68860327 32.67474513 13.609375 38.19921875 C13.60189526 39.7514777 13.59621055 41.30374622 13.59222412 42.85601807 C13.57710375 46.90034014 13.53794355 50.94406838 13.4934082 54.98815918 C13.45215807 59.13134737 13.43415025 63.27463348 13.4140625 67.41796875 C13.37143233 75.51722718 13.30119821 83.61589271 13.21875 91.71484375 C4.30875 91.71484375 -4.60125 91.71484375 -13.78125 91.71484375 C-13.78125 89.73484375 -13.78125 87.75484375 -13.78125 85.71484375 C-14.35230469 86.11316406 -14.92335938 86.51148438 -15.51171875 86.921875 C-25.25455623 93.28802159 -36.10014139 96.13216761 -47.65234375 94.24609375 C-57.67236365 92.14451654 -63.56185078 87.92793375 -69.5546875 79.7421875 C-74.35430132 71.80906785 -74.63942238 62.30522513 -72.71875 53.40234375 C-70.05912239 44.26814757 -63.90685013 37.37335542 -55.79296875 32.52734375 C-44.20753187 26.76639525 -29.75949354 26.31544687 -17.40625 29.77734375 C-16.54 30.08671875 -15.67375 30.39609375 -14.78125 30.71484375 C-16.26953093 24.48342361 -17.44382267 19.71791424 -22.78125 15.71484375 C-29.16680957 12.0112192 -35.85840992 11.62369878 -43.0546875 13.21875 C-49.99624076 15.54589908 -54.78798068 20.57471356 -59.78125 25.71484375 C-62.75125 24.06484375 -65.72125 22.41484375 -68.78125 20.71484375 C-67.01591451 11.69201791 -61.50984245 4.13791294 -53.95703125 -1.0390625 C-37.85958198 -10.25824799 -15.61808607 -10.36980065 0 0 Z M-40.78125 52.21484375 C-44.0415972 56.29027775 -44.12703428 59.61452562 -43.78125 64.71484375 C-42.46358095 68.44823939 -41.12312159 70.39798716 -38.21875 73.08984375 C-32.83067118 75.63693556 -27.8682104 75.75944492 -22.20703125 73.84375 C-20.01184804 72.87871777 -17.89349456 71.8483543 -15.78125 70.71484375 C-15.12125 70.38484375 -14.46125 70.05484375 -13.78125 69.71484375 C-13.78125 63.11484375 -13.78125 56.51484375 -13.78125 49.71484375 C-23.41969102 45.85946734 -32.46928194 45.2882037 -40.78125 52.21484375 Z " fill="#0E5740" transform="translate(1144.78125,62.28515625)"/>
<path d="M0 0 C7.73105559 6.72325727 11.41520263 14.57388614 12.34313965 24.77062988 C12.50802682 29.009597 12.4514412 33.24374882 12.390625 37.484375 C12.38314526 39.03663395 12.37746055 40.58890247 12.37347412 42.14117432 C12.35835375 46.18549639 12.31919355 50.22922463 12.2746582 54.27331543 C12.23340807 58.41650362 12.21540025 62.55978973 12.1953125 66.703125 C12.15268233 74.80238343 12.08244821 82.90104896 12 91 C3.09 91 -5.82 91 -15 91 C-15 89.02 -15 87.04 -15 85 C-15.57105469 85.39832031 -16.14210938 85.79664063 -16.73046875 86.20703125 C-26.47330623 92.57317784 -37.31889139 95.41732386 -48.87109375 93.53125 C-58.44493489 91.52325336 -65.12391001 87.39466758 -70.7421875 79.3203125 C-75.59646343 70.36553019 -76.1064186 60.20736742 -73.27734375 50.52734375 C-69.44811755 40.8631062 -62.32089099 34.35529728 -53 30 C-42.14847224 26.39960912 -26.6152692 24.6923654 -16 30 C-17.98072847 21.68049317 -17.98072847 21.68049317 -23 15 C-29.81708437 11.53165883 -36.76824986 10.83838938 -44.26953125 12.50390625 C-51.21369664 14.82747976 -56.00614573 19.85926766 -61 25 C-63.97 23.35 -66.94 21.7 -70 20 C-68.58648329 12.0489685 -63.83167763 5.29857466 -57.75390625 0.06640625 C-41.6627752 -11.11651152 -15.99120712 -12.08426447 0 0 Z M-42 51.5 C-45.2603472 55.575434 -45.34578428 58.89968187 -45 64 C-43.68233095 67.73339564 -42.34187159 69.68314341 -39.4375 72.375 C-34.04942118 74.92209181 -29.0869604 75.04460117 -23.42578125 73.12890625 C-21.23059804 72.16387402 -19.11224456 71.13351055 -17 70 C-16.34 69.67 -15.68 69.34 -15 69 C-15 62.4 -15 55.8 -15 49 C-24.63844102 45.14462359 -33.68803194 44.57335995 -42 51.5 Z " fill="#0E5740" transform="translate(1391,63)"/>
<path d="M0 0 C13.89664461 -0.49916109 26.14825933 3.68322637 36.90625 12.46484375 C46.2264412 21.19418438 51.00410035 33.13360403 51.83203125 45.796875 C52.21315007 60.05106228 50.29462845 73.3985255 41.59375 85.15234375 C41.13097656 85.79558594 40.66820312 86.43882812 40.19140625 87.1015625 C32.89881904 96.41425696 22.00833944 101.20054571 10.46875 102.90234375 C9.19 102.98484375 7.91125 103.06734375 6.59375 103.15234375 C5.8615625 103.20390625 5.129375 103.25546875 4.375 103.30859375 C-8.39680107 103.80619639 -20.67072388 100.40803009 -30.65234375 92.3359375 C-40.82135584 82.82051031 -45.92909894 70.47409609 -46.75390625 56.64453125 C-47.25161922 41.19087106 -44.01620188 28.70005202 -35.15625 15.90234375 C-25.5829798 6.32907355 -13.49381914 0.85431647 0 0 Z M-10.59375 26.40234375 C-17.89597832 37.48158672 -17.95217525 52.35382061 -15.72265625 65.04296875 C-13.73197557 72.14664255 -11.00007782 78.34076863 -4.5234375 82.3046875 C-0.57500626 83.88551698 3.42315232 83.67449465 7.59375 83.15234375 C13.56475711 80.33583096 17.00388301 75.84083516 19.5703125 69.88671875 C23.43359303 58.11635003 23.29284852 42.63708081 18.59375 31.15234375 C15.94346324 26.46864733 12.77692193 22.03713354 7.59375 20.15234375 C-0.37079841 19.09486589 -4.91822594 20.56466186 -10.59375 26.40234375 Z " fill="#0E5740" transform="translate(865.40625,221.84765625)"/>
<path d="M0 0 C7.72462575 6.46712854 11.51223905 13.11617586 12.6875 23.25 C12.77017364 25.65569698 12.80537822 28.06334579 12.80102539 30.47045898 C12.80117142 31.15423111 12.80131744 31.83800323 12.8014679 32.54249573 C12.80077755 34.77706197 12.79302677 37.01154228 12.78515625 39.24609375 C12.78328895 40.80550593 12.78186652 42.36491869 12.78086853 43.92433167 C12.77706796 48.00956876 12.76725891 52.09476975 12.75616455 56.17999268 C12.74589731 60.35631828 12.74135957 64.53264976 12.73632812 68.70898438 C12.72563423 76.88934125 12.70805759 85.06966196 12.6875 93.25 C3.1175 93.25 -6.4525 93.25 -16.3125 93.25 C-16.32708252 91.22149902 -16.34166504 89.19299805 -16.35668945 87.10302734 C-16.40710075 80.3893913 -16.47370724 73.6759856 -16.54821491 66.96257591 C-16.59287978 62.89352792 -16.63214426 58.82457914 -16.65893555 54.75537109 C-16.68500758 50.82592069 -16.72543704 46.89685291 -16.77568626 42.96763992 C-16.79232873 41.47104285 -16.80385932 39.97437963 -16.81011391 38.47770309 C-16.81978401 36.37584384 -16.84787527 34.27495763 -16.88012695 32.17333984 C-16.89678154 30.3813063 -16.89678154 30.3813063 -16.91377258 28.55307007 C-17.47831793 23.87635919 -18.90028288 20.46047182 -22.5 17.375 C-26.21368862 15.88952455 -29.41621067 15.46930968 -33.3125 16.25 C-36.22959683 17.60957549 -38.78607464 19.26135032 -41.3125 21.25 C-41.83491776 21.63593826 -42.35733551 22.02187653 -42.89558411 22.41950989 C-45.02967219 25.17650284 -44.71344107 27.47332952 -44.74487305 30.92456055 C-44.7550647 31.597995 -44.76525635 32.27142944 -44.77575684 32.965271 C-44.80592906 35.18917107 -44.81515875 37.41264074 -44.82421875 39.63671875 C-44.84106239 41.17944271 -44.85921221 42.72215292 -44.87861633 44.2648468 C-44.92615704 48.32377831 -44.95593983 52.38265409 -44.98205566 56.44177246 C-45.01184082 60.58434052 -45.05837811 64.72671643 -45.10351562 68.86914062 C-45.18959513 76.99601545 -45.25537116 85.12287004 -45.3125 93.25 C-54.8825 93.25 -64.4525 93.25 -74.3125 93.25 C-74.3125 61.9 -74.3125 30.55 -74.3125 -1.75 C-64.7425 -1.75 -55.1725 -1.75 -45.3125 -1.75 C-44.9825 0.23 -44.6525 2.21 -44.3125 4.25 C-43.69375 3.6725 -43.075 3.095 -42.4375 2.5 C-29.84332564 -6.56780554 -13.60830745 -7.1892945 0 0 Z " fill="#0E5740" transform="translate(984.3125,394.75)"/>
<path d="M0 0 C8.5537866 8.49424748 9.71438162 18.1841659 9.79711914 29.82226562 C9.8006948 32.65760575 9.79157518 35.4928065 9.78125 38.328125 C9.77938205 39.84126743 9.77795993 41.35441046 9.77696228 42.86755371 C9.77316681 46.82618923 9.76336229 50.78478734 9.7522583 54.7434082 C9.74197993 58.79247532 9.73745096 62.84154856 9.73242188 66.890625 C9.721737 74.81772731 9.70416467 82.74479217 9.68359375 90.671875 C0.11359375 90.671875 -9.45640625 90.671875 -19.31640625 90.671875 C-19.33098877 88.64337402 -19.34557129 86.61487305 -19.3605957 84.52490234 C-19.411007 77.8112663 -19.47761349 71.0978606 -19.55212116 64.38445091 C-19.59678603 60.31540292 -19.63605051 56.24645414 -19.6628418 52.17724609 C-19.68891383 48.24779569 -19.72934329 44.31872791 -19.77959251 40.38951492 C-19.79623498 38.89291785 -19.80776557 37.39625463 -19.81402016 35.89957809 C-19.82369026 33.79771884 -19.85178152 31.69683263 -19.8840332 29.59521484 C-19.90068779 27.8031813 -19.90068779 27.8031813 -19.91767883 25.97494507 C-20.48595001 21.26736935 -21.89835041 17.8535882 -25.56640625 14.796875 C-29.70368823 13.10435055 -33.10283264 12.88763749 -37.3671875 14.3984375 C-41.85833987 16.47908436 -45.07235213 18.85906015 -48.31640625 22.671875 C-49.07166389 25.90631085 -49.07166389 25.90631085 -48.97583008 29.48168945 C-48.99155563 30.47764885 -48.99155563 30.47764885 -49.00759888 31.49372864 C-49.0362567 33.67468532 -49.03006942 35.85404574 -49.0234375 38.03515625 C-49.03655838 39.55260702 -49.05186382 41.07004034 -49.06925964 42.58744812 C-49.10907792 46.57086415 -49.11929794 50.55382299 -49.12329102 54.53741455 C-49.13262859 58.60646404 -49.17004593 62.67524558 -49.20507812 66.74414062 C-49.26962184 74.72010276 -49.30029142 82.69566783 -49.31640625 90.671875 C-58.55640625 90.671875 -67.79640625 90.671875 -77.31640625 90.671875 C-77.31640625 59.321875 -77.31640625 27.971875 -77.31640625 -4.328125 C-68.07640625 -4.328125 -58.83640625 -4.328125 -49.31640625 -4.328125 C-48.98640625 -2.018125 -48.65640625 0.291875 -48.31640625 2.671875 C-47.53265625 1.929375 -46.74890625 1.186875 -45.94140625 0.421875 C-33.47289271 -9.9784017 -12.49729207 -10.49668606 0 0 Z " fill="#0E5740" transform="translate(958.31640625,63.328125)"/>
<path d="M0 0 C6.15911797 6.98456677 8.25872813 14.32202342 8.22705078 23.58764648 C8.22734283 24.31043289 8.22763489 25.0332193 8.22793579 25.77790833 C8.22655393 28.14243003 8.21104739 30.5066278 8.1953125 32.87109375 C8.19157829 34.52018563 8.18873325 36.16927974 8.18673706 37.81837463 C8.17913271 42.14039326 8.15951198 46.46227561 8.1373291 50.78424072 C8.11680148 55.20184486 8.1077206 59.6194712 8.09765625 64.03710938 C8.07626281 72.69147549 8.04110703 81.34570505 8 90 C-1.24 90 -10.48 90 -20 90 C-20.04898437 85.38902344 -20.09796875 80.77804688 -20.1484375 76.02734375 C-20.18384509 73.09698397 -20.21981717 70.16665271 -20.2578125 67.23632812 C-20.3179965 62.59061886 -20.37614931 57.94494927 -20.421875 53.29907227 C-20.45889323 49.55123512 -20.50529672 45.80361848 -20.55806351 42.05597115 C-20.57651999 40.62996879 -20.59165984 39.20391931 -20.60334396 37.77784538 C-20.62035638 35.77229291 -20.65052052 33.76686531 -20.68115234 31.76147461 C-20.69447601 30.62230087 -20.70779968 29.48312714 -20.7215271 28.30943298 C-21.115416 23.62837092 -22.52159391 19.43521828 -24 15 C-28.92550584 12.77179498 -33.89040896 11.86817887 -39.08203125 13.7578125 C-43.07232664 15.63821144 -46.17521492 17.54198499 -49 21 C-49.61662263 24.18277223 -49.61662263 24.18277223 -49.54589844 27.78808594 C-49.55623611 28.46166641 -49.56657379 29.13524689 -49.57722473 29.82923889 C-49.60664006 32.04786197 -49.60815151 34.2655723 -49.609375 36.484375 C-49.62435766 38.0256728 -49.64108499 39.56695454 -49.65948486 41.10821533 C-49.7031617 45.15896341 -49.72315798 49.20949493 -49.73822021 53.26043701 C-49.75779027 57.39641121 -49.79976033 61.53215149 -49.83984375 65.66796875 C-49.91514962 73.77861328 -49.96336763 81.8890885 -50 90 C-59.24 90 -68.48 90 -78 90 C-78 58.65 -78 27.3 -78 -5 C-68.76 -5 -59.52 -5 -50 -5 C-49.67 -3.02 -49.34 -1.04 -49 1 C-48.41992188 0.59007813 -47.83984375 0.18015625 -47.2421875 -0.2421875 C-32.71348146 -10.2636382 -14.2074009 -11.33697525 0 0 Z " fill="#0E5740" transform="translate(1252,64)"/>
<path d="M0 0 C33.99 0 67.98 0 103 0 C103 7.26 103 14.52 103 22 C91.12 22 79.24 22 67 22 C67 57.31 67 92.62 67 129 C57.1 129 47.2 129 37 129 C37 93.69 37 58.38 37 22 C24.79 22 12.58 22 0 22 C0 14.74 0 7.48 0 0 Z " fill="#0E5740" transform="translate(692,25)"/>
<path d="M0 0 C27.39 0 54.78 0 83 0 C83 9.19139761 82.89985601 11.5873134 77.75 18.0625 C76.6399999 19.54250013 75.53064275 21.02298266 74.421875 22.50390625 C73.85146484 23.24914551 73.28105469 23.99438477 72.69335938 24.76220703 C70.03471484 28.27563491 67.52270951 31.88842333 65 35.5 C64.00469401 36.91201395 63.00859734 38.32347087 62.01171875 39.734375 C61.51720215 40.43498047 61.02268555 41.13558594 60.51318359 41.85742188 C58.97465797 44.03588281 57.4347484 46.21335975 55.89453125 48.390625 C55.37826172 49.12087891 54.86199219 49.85113281 54.33007812 50.60351562 C53.3696548 51.96195222 52.40877516 53.3200664 51.44726562 54.67773438 C46.9174571 61.0868626 42.46818405 67.54595637 38 74 C52.85 74.33 67.7 74.66 83 75 C83 81.6 83 88.2 83 95 C53.96 95 24.92 95 -5 95 C-5 85.54895854 -4.69703037 83.1896143 0.6875 76.5625 C1.89187584 74.99284094 3.0936205 73.42116014 4.29296875 71.84765625 C4.91091309 71.04859863 5.52885742 70.24954102 6.16552734 69.42626953 C9.09442838 65.55251142 11.79137732 61.52934577 14.5 57.5 C19.37275401 50.31009594 24.3812126 43.23290624 29.51171875 36.22460938 C33.15965788 31.22749688 36.55943912 26.16084133 40 21 C20.2 20.505 20.2 20.505 0 20 C0 13.4 0 6.8 0 0 Z " fill="#0E5740" transform="translate(980,59)"/>
<path d="M0 0 C7.52293969 6.65840832 12.33017211 15.95258169 13 26 C9.37 26.99 5.74 27.98 2 29 C0.9171875 26.9271875 0.9171875 26.9271875 -0.1875 24.8125 C-3.60488242 18.69768932 -7.3286262 14.51749955 -14 12 C-21.42379117 10.2115997 -27.44829202 11.00290757 -34 15 C-41.65313882 21.36542139 -44.86323852 29.73378764 -45.875 39.4375 C-46.37042405 49.99003219 -44.6184879 60.79009232 -37.29296875 68.88671875 C-31.32101855 74.26017285 -25.96002673 75.47454964 -18.00390625 75.30859375 C-11.79891272 74.67114968 -7.79597167 72.16318466 -3.6875 67.5625 C-1.53895711 64.8460861 0.33904366 62.04508663 2 59 C5.9492568 59.55105909 9.34920174 60.38935371 13 62 C12.22749595 71.78505131 6.28013709 80.70659224 -1 87 C-12.99709106 94.72778142 -25.13548237 96.43861362 -38.9375 93.8125 C-51.72731769 90.83141467 -61.61105798 84.436073 -69.375 73.6875 C-73.98217222 66.22205379 -76.42866628 57.71283924 -77 49 C-77.07734375 48.04673828 -77.07734375 48.04673828 -77.15625 47.07421875 C-77.83742762 32.00316393 -73.1321481 16.30129269 -62.9375 5.0625 C-46.22232562 -10.25259995 -18.75526608 -13.60467217 0 0 Z " fill="#0E5740" transform="translate(1481,230)"/>
<path d="M0 0 C9.57 0 19.14 0 29 0 C29 42.57 29 85.14 29 129 C19.43 129 9.86 129 0 129 C0 86.43 0 43.86 0 0 Z " fill="#0E5740" transform="translate(1642,192)"/>
<path d="M0 0 C0 8.58 0 17.16 0 26 C-3.49082996 25.30183401 -5.67358491 24.79822206 -8.75 23.4375 C-17.55095169 20.10830104 -23.04008215 22.41603286 -32 26 C-32.33 49.43 -32.66 72.86 -33 97 C-42.57 97 -52.14 97 -62 97 C-62 65.65 -62 34.3 -62 2 C-52.43 2 -42.86 2 -33 2 C-32.67 3.65 -32.34 5.3 -32 7 C-31.0925 6.236875 -30.185 5.47375 -29.25 4.6875 C-20.95070783 -1.22616568 -9.7137392 -2.4284348 0 0 Z " fill="#0E5740" transform="translate(1404,224)"/>
<path d="M0 0 C9.57 0 19.14 0 29 0 C29 31.35 29 62.7 29 95 C19.43 95 9.86 95 0 95 C0 63.65 0 32.3 0 0 Z " fill="#0E5740" transform="translate(1499,226)"/>
<path d="M0 0 C9.24 0 18.48 0 28 0 C28 31.35 28 62.7 28 95 C18.76 95 9.52 95 0 95 C0 63.65 0 32.3 0 0 Z " fill="#0E5740" transform="translate(1276,59)"/>
<path d="M0 0 C1.82471525 1.86195433 2.36240431 2.96329974 2.53125 5.5625 C0.09375 8.3125 0.09375 8.3125 -2.46875 10.5625 C-5.21687246 9.39983281 -6.95269502 8.13354873 -9.21875 6.125 C-14.4568321 1.68772745 -20.339059 -0.04823828 -27.171875 0.2109375 C-33.93804297 1.24657545 -39.74619422 4.73011734 -44.46875 9.5625 C-48.61804224 16.22530581 -50.35945471 22.72917909 -49.46875 30.5625 C-47.20831372 38.45645884 -44.14663218 44.17681245 -36.90625 48.3125 C-31.79892603 51.0341094 -27.29352047 52.42542896 -21.46875 51.5625 C-15.00329417 49.2828864 -10.1771682 46.35690344 -6.46875 40.5625 C-5.80875 38.2525 -5.14875 35.9425 -4.46875 33.5625 C-10.07875 33.5625 -15.68875 33.5625 -21.46875 33.5625 C-21.46875 30.9225 -21.46875 28.2825 -21.46875 25.5625 C-12.22875 25.5625 -2.98875 25.5625 6.53125 25.5625 C5.59780862 36.76379654 4.77673657 45.67551284 -3.46875 53.5625 C-12.06659661 60.04203658 -20.35024977 62.26599298 -31.03125 61.0625 C-41.57199973 59.07674265 -49.41589561 53.36284821 -55.46875 44.5625 C-60.37501498 35.70627593 -60.73537836 25.73308205 -58.99609375 15.88671875 C-56.59757742 7.57090464 -50.64159859 0.31151763 -43.46875 -4.4375 C-27.92138341 -12.17410691 -13.75323471 -10.04204439 0 0 Z " fill="#34BA8E" transform="translate(740.46875,547.4375)"/>
<path d="M0 0 C2.08178672 1.19206045 4.05199262 2.43480512 5.7578125 4.140625 C6.0878125 2.820625 6.4178125 1.500625 6.7578125 0.140625 C9.7278125 0.140625 12.6978125 0.140625 15.7578125 0.140625 C15.80755587 6.36619933 15.84369378 12.59165584 15.86767578 18.81738281 C15.87768229 20.93166115 15.89129168 23.04592583 15.90869141 25.16015625 C15.93317638 28.21357614 15.94434941 31.26681174 15.953125 34.3203125 C15.96344757 35.25301971 15.97377014 36.18572693 15.98440552 37.146698 C15.98584806 45.74279213 15.56196919 54.36910886 9.7578125 61.140625 C3.91486118 65.74039519 -0.90551336 66.62973661 -8.2421875 66.140625 C-15.01106512 64.55889415 -20.17551988 62.34752303 -24.0546875 56.328125 C-25.39384089 52.73355537 -25.47053678 49.94644631 -25.2421875 46.140625 C-22.2721875 46.140625 -19.3021875 46.140625 -16.2421875 46.140625 C-15.9946875 47.23375 -15.7471875 48.326875 -15.4921875 49.453125 C-14.54132834 53.05644697 -14.54132834 53.05644697 -12.5546875 55.015625 C-8.51514001 56.98081026 -4.86388829 57.5460502 -0.4921875 56.453125 C2.83044165 54.51492466 4.32285375 52.56412636 5.4453125 48.890625 C5.8555929 45.28015752 5.81939944 41.77425468 5.7578125 38.140625 C5.1184375 38.759375 4.4790625 39.378125 3.8203125 40.015625 C-0.57283212 43.06392943 -5.0399454 44.46715058 -10.42578125 43.91796875 C-16.64627279 42.51865213 -20.53350972 40.51431396 -23.9921875 35.203125 C-28.00698415 28.60920265 -27.87611239 21.70244338 -27.2421875 14.140625 C-25.57244436 7.91429366 -21.52154697 3.68061314 -16.2421875 0.140625 C-11.12303934 -1.56575772 -5.10460974 -1.95647063 0 0 Z M-16.2421875 12.140625 C-18.96546233 16.5985886 -18.90036029 21.05985216 -18.2421875 26.140625 C-16.28358888 29.98787228 -14.1738918 33.22790399 -10.2421875 35.140625 C-6.42803939 35.79697936 -2.90392346 35.99432868 0.60546875 34.19140625 C3.87827883 31.64231339 5.82408317 29.15566112 6.7578125 25.140625 C7.26996228 18.68753777 6.52078445 14.47921611 2.2578125 9.328125 C-0.82948532 6.88401422 -4.34767534 6.74676299 -8.17578125 6.7890625 C-11.92820088 7.42747038 -13.64381418 9.41851962 -16.2421875 12.140625 Z " fill="#34BA8E" transform="translate(1240.2421875,564.859375)"/>
<path d="M0 0 C1.81701122 1.20547475 3.3840096 2.59104085 4.92578125 4.1328125 C5.25578125 2.8128125 5.58578125 1.4928125 5.92578125 0.1328125 C8.89578125 0.1328125 11.86578125 0.1328125 14.92578125 0.1328125 C15.02516315 7.07043347 15.09749282 14.00763378 15.14550781 20.94580078 C15.16553857 23.30264511 15.19277117 25.65944028 15.22753906 28.01611328 C15.27643297 31.41711612 15.29883627 34.817458 15.31640625 38.21875 C15.33705139 39.26082611 15.35769653 40.30290222 15.37896729 41.3765564 C15.38135653 49.28695074 14.11239322 56.59213253 8.67578125 62.6328125 C1.6304479 66.4757216 -5.88398013 67.17055273 -13.63671875 65.0703125 C-18.52471116 63.3019603 -21.33633276 60.49486814 -24.07421875 56.1328125 C-25.68557162 52.39740357 -26.07421875 50.23411609 -26.07421875 46.1328125 C-23.10421875 46.1328125 -20.13421875 46.1328125 -17.07421875 46.1328125 C-16.93886719 46.75929688 -16.80351563 47.38578125 -16.6640625 48.03125 C-15.99505578 50.57107192 -15.28051315 52.79694914 -14.07421875 55.1328125 C-9.28156543 57.52913916 -5.21253958 57.49010479 -0.07421875 56.1328125 C2.24391745 54.24170139 3.5949214 52.79453219 4.92578125 50.1328125 C4.99611894 48.25901645 5.01008345 46.38280148 4.98828125 44.5078125 C4.97925781 43.50492188 4.97023438 42.50203125 4.9609375 41.46875 C4.94933594 40.69789063 4.93773437 39.92703125 4.92578125 39.1328125 C4.10078125 39.7721875 3.27578125 40.4115625 2.42578125 41.0703125 C-1.96652025 43.95051021 -6.30781234 44.69719642 -11.41015625 43.65625 C-17.59869071 41.78529772 -22.03890516 39.29915115 -25.32421875 33.5703125 C-28.78587431 25.95467027 -28.83404606 18.19334962 -26.0859375 10.359375 C-24.06793544 5.91821216 -21.47835696 3.1602307 -17.51171875 0.2578125 C-12.0027715 -1.54511569 -5.48088111 -2.29144182 0 0 Z M-16.82421875 12.3203125 C-19.14254357 17.53654334 -19.71661898 21.99023338 -17.94921875 27.3828125 C-16.30575241 31.09339428 -14.78324341 33.23884246 -11.07421875 35.1328125 C-6.31663152 35.88524804 -2.46066324 35.84078416 1.86328125 33.6328125 C5.48694091 29.24049776 7.31478198 24.75618767 6.86328125 19.0078125 C5.70938816 14.23838774 4.08573585 10.82991969 0.17578125 7.7578125 C-6.72661992 5.84047884 -12.26012755 6.6151985 -16.82421875 12.3203125 Z " fill="#34BA8E" transform="translate(1457.07421875,564.8671875)"/>
<path d="M0 0 C1.82159826 1.20119885 3.38693893 2.58615768 4.9296875 4.12890625 C5.2596875 2.80890625 5.5896875 1.48890625 5.9296875 0.12890625 C8.8996875 0.12890625 11.8696875 0.12890625 14.9296875 0.12890625 C15.0040847 7.10316662 15.05840709 14.07719373 15.09448242 21.05175781 C15.10952849 23.42224148 15.12997023 25.7926975 15.15600586 28.16308594 C15.19257256 31.57884565 15.20945618 34.99423587 15.22265625 38.41015625 C15.23814011 39.46255493 15.25362396 40.51495361 15.26957703 41.59924316 C15.27127124 49.07937292 14.4367399 54.81074866 9.8046875 60.94140625 C4.22126875 65.18965965 -2.07562599 66.87833695 -9.0703125 66.12890625 C-15.1820862 64.93662702 -19.11473505 62.95856335 -22.91796875 57.96484375 C-25.41819081 53.98143911 -26.0703125 50.79122989 -26.0703125 46.12890625 C-23.1003125 46.12890625 -20.1303125 46.12890625 -17.0703125 46.12890625 C-16.4515625 47.76859375 -16.4515625 47.76859375 -15.8203125 49.44140625 C-14.41077746 52.67159072 -13.31986134 54.50413183 -10.0703125 56.12890625 C-5.98582618 57.18784715 -3.75290931 57.37361077 0.2421875 55.94140625 C3.10596075 54.01002429 3.75374836 53.27385976 4.9296875 50.12890625 C5.17041944 47.30804897 5.17041944 47.30804897 5.0546875 44.37890625 C5.03664063 43.3940625 5.01859375 42.40921875 5 41.39453125 C4.97679687 40.646875 4.95359375 39.89921875 4.9296875 39.12890625 C4.1046875 39.76828125 3.2796875 40.40765625 2.4296875 41.06640625 C-1.962614 43.94660396 -6.30390609 44.69329017 -11.40625 43.65234375 C-17.6269976 41.77165261 -22.05312979 39.28251766 -25.3203125 33.50390625 C-28.44054349 26.66730257 -28.7843011 19.46039664 -26.85546875 12.23046875 C-24.83006933 6.8092504 -21.48517527 2.45296502 -16.2265625 -0.2109375 C-11.10076403 -1.78024899 -4.99838782 -2.10309525 0 0 Z M-16.8203125 12.31640625 C-19.13863732 17.53263709 -19.71271273 21.98632713 -17.9453125 27.37890625 C-16.30184616 31.08948803 -14.77933716 33.23493621 -11.0703125 35.12890625 C-6.28743868 35.88534099 -2.4462341 35.86077944 1.8671875 33.56640625 C5.54847601 29.21579256 7.26069482 25.26746349 6.8671875 19.56640625 C6.08962734 14.61368607 4.18498247 10.90092373 0.1796875 7.75390625 C-6.72271367 5.83657259 -12.2562213 6.61129225 -16.8203125 12.31640625 Z " fill="#34BA8E" transform="translate(987.0703125,564.87109375)"/>
<path d="M0 0 C2.97 0 5.94 0 9 0 C9.33 12.54 9.66 25.08 10 38 C11.98 36.68 13.96 35.36 16 34 C20.83010594 33.01997851 25.67944491 33.01005681 30.26171875 34.96484375 C35.01473379 38.40255903 35.75176539 42.27122711 36.64697266 47.81958008 C37.27111178 53.44244341 37.20748192 59.03748818 37.125 64.6875 C37.11597656 65.87794922 37.10695313 67.06839844 37.09765625 68.29492188 C37.07434772 71.19683367 37.04163123 74.09830317 37 77 C34.03 77 31.06 77 28 77 C27.98018066 76.21351074 27.96036133 75.42702148 27.93994141 74.61669922 C27.84438767 71.03580958 27.73483064 67.45547902 27.625 63.875 C27.5940625 62.6375 27.563125 61.4 27.53125 60.125 C27.49257812 58.92617188 27.45390625 57.72734375 27.4140625 56.4921875 C27.36693115 54.84259033 27.36693115 54.84259033 27.31884766 53.15966797 C26.98248699 49.82645227 26.27961218 47.09301194 25 44 C21.79729456 42.39864728 18.47536616 42.51138416 15 43 C11.96666136 45.02222576 11.16223028 46.21852572 10.42211914 49.78369141 C10.02390178 52.81788201 9.79863894 55.77902237 9.68359375 58.8359375 C9.64169922 59.89941406 9.59980469 60.96289062 9.55664062 62.05859375 C9.51732422 63.15300781 9.47800781 64.24742187 9.4375 65.375 C9.39431641 66.49261719 9.35113281 67.61023438 9.30664062 68.76171875 C9.20102589 71.50770199 9.0989203 74.25376881 9 77 C6.03 77 3.06 77 0 77 C0 51.59 0 26.18 0 0 Z " fill="#34BA8E" transform="translate(1545,530)"/>
<path d="M0 0 C0.66 0 1.32 0 2 0 C3.67557981 3.76693513 5.33891867 7.53915174 7 11.3125 C7.47695313 12.38435547 7.95390625 13.45621094 8.4453125 14.56054688 C9.12207031 16.10258789 9.12207031 16.10258789 9.8125 17.67578125 C10.23144531 18.62364502 10.65039062 19.57150879 11.08203125 20.5480957 C12 23 12 23 12 26 C12.66 26 13.32 26 14 26 C14.5259375 24.2365625 14.5259375 24.2365625 15.0625 22.4375 C17.39955405 15.35826832 20.77472581 8.70680304 24 2 C27.3 2 30.6 2 34 2 C33.377669 6.93853679 31.23844306 10.88907022 29 15.2578125 C28.60425781 16.04268036 28.20851563 16.82754822 27.80078125 17.63619995 C26.53951925 20.13537992 25.27018196 22.63034339 24 25.125 C22.73121975 27.62747681 21.46416268 30.13080524 20.19921875 32.63522339 C19.41270283 34.19130239 18.62372345 35.74613922 17.83203125 37.29959106 C16.37528485 40.1732715 15.02043917 42.93868249 14 46 C13.34 46 12.68 46 12 46 C10.32442019 42.23306487 8.66108133 38.46084826 7 34.6875 C6.52304687 33.61564453 6.04609375 32.54378906 5.5546875 31.43945312 C5.10351562 30.41142578 4.65234375 29.38339844 4.1875 28.32421875 C3.76855469 27.37635498 3.34960938 26.42849121 2.91796875 25.4519043 C2 23 2 23 2 20 C1.34 20 0.68 20 0 20 C-0.5259375 21.7325 -0.5259375 21.7325 -1.0625 23.5 C-2.65377081 28.27381243 -4.57182692 32.88233747 -6.5625 37.5 C-6.86744385 38.21865234 -7.1723877 38.93730469 -7.48657227 39.67773438 C-9.76128971 44.88064485 -9.76128971 44.88064485 -12 46 C-14.99346482 39.89579079 -17.98389181 33.79010056 -20.97216797 27.68334961 C-21.99001568 25.60422731 -23.0085695 23.52545055 -24.02783203 21.44702148 C-25.48914508 18.46688015 -26.94794975 15.48552278 -28.40625 12.50390625 C-28.86559937 11.56849503 -29.32494873 10.6330838 -29.79821777 9.66932678 C-30.21865356 8.80850998 -30.63908936 7.94769318 -31.07226562 7.06079102 C-31.44532837 6.29912125 -31.81839111 5.53745148 -32.20275879 4.75270081 C-33 3 -33 3 -33 2 C-29.37 2 -25.74 2 -22 2 C-21.28972656 3.57652344 -20.57945312 5.15304687 -19.84765625 6.77734375 C-18.91938931 8.83078273 -17.99099746 10.88416524 -17.0625 12.9375 C-16.59392578 13.97841797 -16.12535156 15.01933594 -15.64257812 16.09179688 C-15.19462891 17.08115234 -14.74667969 18.07050781 -14.28515625 19.08984375 C-13.87144775 20.00628662 -13.45773926 20.92272949 -13.03149414 21.86694336 C-12.17662094 23.93296129 -12.17662094 23.93296129 -11 25 C-7.37 16.75 -3.74 8.5 0 0 Z " fill="#34BA8E" transform="translate(857,563)"/>
<path d="M0 0 C4.3969091 3.29768182 7.02285253 6.92070507 9.5 11.875 C9.995 17.32 9.995 17.32 10.5 22.875 C-0.06 22.875 -10.62 22.875 -21.5 22.875 C-18.67660418 29.93589629 -18.67660418 29.93589629 -13.5 33.875 C-8.89950168 34.55815671 -5.6163054 34.57875775 -1.625 32.0625 C-0.92375 31.340625 -0.2225 30.61875 0.5 29.875 C1.098125 29.2975 1.69625 28.72 2.3125 28.125 C2.704375 27.7125 3.09625 27.3 3.5 26.875 C5.81 28.195 8.12 29.515 10.5 30.875 C7.88588142 36.10323717 5.91828753 39.21511339 0.5 41.875 C-6.33752903 43.92413525 -12.80350737 44.71056588 -19.5 41.875 C-25.07365591 38.69636059 -27.7654381 34.43722996 -29.84375 28.453125 C-31.67354319 21.26465176 -30.7490016 14.53060402 -27.5 7.875 C-21.04867452 -1.85760309 -10.97881567 -3.52890504 0 0 Z M-19.5 11.875 C-19.83 13.195 -20.16 14.515 -20.5 15.875 C-13.57 15.875 -6.64 15.875 0.5 15.875 C-0.03561833 11.00281827 -0.03561833 11.00281827 -2.5625 8.5625 C-9.54474304 4.55142421 -14.41479341 6.41770512 -19.5 11.875 Z " fill="#34BA8E" transform="translate(1618.5,565.125)"/>
<path d="M0 0 C4.3969091 3.29768182 7.02285253 6.92070507 9.5 11.875 C9.995 17.32 9.995 17.32 10.5 22.875 C-0.06 22.875 -10.62 22.875 -21.5 22.875 C-18.67660418 29.93589629 -18.67660418 29.93589629 -13.5 33.875 C-8.89950168 34.55815671 -5.6163054 34.57875775 -1.625 32.0625 C-0.92375 31.340625 -0.2225 30.61875 0.5 29.875 C1.098125 29.2975 1.69625 28.72 2.3125 28.125 C2.704375 27.7125 3.09625 27.3 3.5 26.875 C5.81 28.195 8.12 29.515 10.5 30.875 C7.88588142 36.10323717 5.91828753 39.21511339 0.5 41.875 C-6.31101289 43.91618865 -12.83378093 44.74273198 -19.5 41.875 C-25.18074495 38.29414132 -28.31104741 33.98229077 -30.1875 27.5 C-31.12880407 19.59304581 -30.63331739 12.61099122 -26.140625 5.8203125 C-19.58124907 -2.32819059 -9.73686635 -3.12970704 0 0 Z M-19.5 11.875 C-19.83 13.195 -20.16 14.515 -20.5 15.875 C-13.57 15.875 -6.64 15.875 0.5 15.875 C-0.03561833 11.00281827 -0.03561833 11.00281827 -2.5625 8.5625 C-9.54474304 4.55142421 -14.41479341 6.41770512 -19.5 11.875 Z " fill="#34BA8E" transform="translate(1508.5,565.125)"/>
<path d="M0 0 C5.51173107 3.14956061 7.99545091 7.19788359 10.265625 13.0625 C10.66936101 16.39332208 10.515625 19.7697983 10.515625 23.125 C0.285625 23.125 -9.944375 23.125 -20.484375 23.125 C-18.23153523 30.42195736 -18.23153523 30.42195736 -15.859375 33.125 C-12.06325667 34.72336561 -8.52441407 34.89519809 -4.484375 34.125 C-2.0049132 32.7096624 -0.51589178 31.20606597 1.515625 29.125 C2.175625 28.465 2.835625 27.805 3.515625 27.125 C5.825625 28.445 8.135625 29.765 10.515625 31.125 C8.95652723 36.5818422 5.43535179 39.46418375 0.5859375 42.22265625 C-4.85814764 44.59545562 -10.9377105 44.61905313 -16.5703125 42.90234375 C-21.7154702 40.81277971 -25.29056637 38.15467208 -27.921875 33.1875 C-30.85633883 25.57821932 -30.85437618 16.56263558 -27.796875 9 C-22.50200223 -1.04907191 -10.32675029 -3.63709444 0 0 Z M-18.484375 11.125 C-19.144375 12.775 -19.804375 14.425 -20.484375 16.125 C-13.224375 16.125 -5.964375 16.125 1.515625 16.125 C-0.74378102 10.38947684 -0.74378102 10.38947684 -5.484375 7.125 C-11.28168356 6.64981077 -14.3394325 6.61432728 -18.484375 11.125 Z " fill="#34BA8E" transform="translate(1291.484375,564.875)"/>
<path d="M0 0 C4.9589935 2.9670088 8.37166536 7.05583073 10.9375 12.1875 C12.31667221 19.35919549 12.64067861 26.17345025 8.90234375 32.65234375 C5.30117722 37.45039945 0.41265021 41.54009657 -5.515625 42.921875 C-12.39900811 43.76372761 -17.52124165 43.03858301 -23.625 39.6875 C-28.59685547 35.71001562 -32.10260121 31.74793063 -33.4375 25.4375 C-34.22443573 18.35507845 -33.38115709 12.46829725 -29.4375 6.4375 C-21.9580727 -1.83949656 -10.47297551 -4.71081717 0 0 Z M-21.8125 11.5625 C-24.02900027 15.48400048 -24.63575533 18.94899937 -24.4375 23.4375 C-22.84344023 28.13112043 -20.71859703 30.92468218 -16.4375 33.4375 C-11.77106746 34.77446311 -8.56067004 34.96729719 -4.125 32.875 C-0.07837735 29.20480736 2.74236716 26.02915367 3.0625 20.4375 C2.78972215 15.34239949 0.28572371 12.16072371 -3.25 8.625 C-10.11118466 4.9003569 -16.17654992 6.51980782 -21.8125 11.5625 Z " fill="#34BA8E" transform="translate(813.4375,565.5625)"/>
<path d="M0 0 C4.97725721 2.97793613 8.40745897 7.07491608 10.9375 12.25 C12.52227874 20.33237155 12.17368043 27.40645812 7.5625 34.4375 C2.4791605 39.94543399 -2.61972733 42.72981938 -10.06640625 43.40234375 C-16.4756769 43.49737412 -21.43859687 41.4366225 -26.4375 37.4375 C-31.2408156 32.60757324 -33.72022391 27.98342692 -33.75 21.125 C-33.59242366 14.94634868 -32.89561169 10.12971757 -28.6328125 5.4609375 C-20.7227992 -1.79239545 -10.26958979 -4.61933286 0 0 Z M-19.4375 9.4375 C-23.33428785 13.75556222 -24.81117126 16.43566256 -24.71484375 22.34375 C-24.08841833 27.07282075 -21.14072469 29.79969156 -17.75 32.875 C-13.30877238 34.96991869 -10.09815187 34.87988421 -5.4375 33.4375 C-2.18323674 31.63418214 -0.01217855 29.33699687 2 26.1875 C3.07427279 20.93549967 2.58240977 16.24195575 -0.0625 11.5625 C-6.3383708 5.94724718 -12.29219585 5.12054541 -19.4375 9.4375 Z " fill="#34BA8E" transform="translate(1152.4375,565.5625)"/>
<path d="M0 0 C5.42411618 3.09571509 8.5071535 6.95896051 10.5 12.9375 C11.71301403 28.58736959 11.71301403 28.58736959 6.5 34.9375 C1.1397318 40.56262851 -4.81698787 42.58627659 -12.5 42.9375 C-19.37358731 42.5827342 -24.70510982 39.84087185 -29.5 34.9375 C-33.44527994 29.41866909 -34.93173012 23.39357161 -34.28125 16.6796875 C-33.14116623 10.21190457 -30.71138078 5.58571588 -25.62890625 1.39453125 C-17.7688806 -3.7541461 -8.47898409 -3.80353832 0 0 Z M-21.5 9.9375 C-24.29306137 13.36125265 -25.32721425 16.53146332 -25.5 20.9375 C-24.59906408 25.09628454 -23.17527814 28.16291625 -20.375 31.375 C-16.43081522 33.51857869 -12.98616354 34.26013505 -8.5 33.9375 C-4.79607017 32.72659986 -2.1936918 30.69832326 0.4375 27.8125 C2.04980893 23.44978171 2.38458118 19.51734772 1.5 14.9375 C-0.62799421 11.06455053 -3.27059878 8.61074353 -7.125 6.5 C-12.90452289 5.13116563 -16.74331737 6.83047539 -21.5 9.9375 Z " fill="#34BA8E" transform="translate(1415.5,566.0625)"/>
<path d="M0 0 C3.06381504 2.68083816 4.70917463 4.87752388 6 8.75 C6.0846817 11.26368055 6.11601885 13.74869374 6.09765625 16.26171875 C6.0962413 16.98994339 6.09482635 17.71816803 6.09336853 18.46846008 C6.08777659 20.79151539 6.07522562 23.11447388 6.0625 25.4375 C6.05748396 27.01367048 6.05292123 28.58984248 6.04882812 30.16601562 C6.0378098 34.02738098 6.02055074 37.88867408 6 41.75 C3.03 41.75 0.06 41.75 -3 41.75 C-3.01458252 40.8621582 -3.02916504 39.97431641 -3.04418945 39.05957031 C-3.10534534 35.75672038 -3.17951378 32.45469085 -3.26245117 29.15234375 C-3.29564794 27.72472086 -3.32369631 26.29696837 -3.34643555 24.86914062 C-3.38008013 22.81324185 -3.43239562 20.75852488 -3.48828125 18.703125 C-3.51446533 17.46723633 -3.54064941 16.23134766 -3.56762695 14.95800781 C-4.02697403 11.5498652 -4.49690236 10.08161353 -7 7.75 C-12.64266907 6.99912971 -12.64266907 6.99912971 -17.4375 9.5625 C-20.09653707 13.2851519 -20.16995773 16.49299936 -20.31640625 20.94921875 C-20.35830078 22.15771484 -20.40019531 23.36621094 -20.44335938 24.61132812 C-20.48267578 25.87396484 -20.52199219 27.13660156 -20.5625 28.4375 C-20.60568359 29.71173828 -20.64886719 30.98597656 -20.69335938 32.29882812 C-20.7995486 35.44910852 -20.90159533 38.59946839 -21 41.75 C-23.97 41.75 -26.94 41.75 -30 41.75 C-30 27.89 -30 14.03 -30 -0.25 C-27.03 -0.25 -24.06 -0.25 -21 -0.25 C-20.67 0.74 -20.34 1.73 -20 2.75 C-19.566875 2.275625 -19.13375 1.80125 -18.6875 1.3125 C-14.10471874 -2.93081598 -5.41363659 -2.25568191 0 0 Z " fill="#34BA8E" transform="translate(1200,565.25)"/>
<path d="M0 0 C3.44293446 1.38925426 5.13257633 2.36630437 6.88769531 5.671875 C9.68104711 13.14979732 9.33506805 20.70798153 9.1875 28.5625 C9.17242111 29.96678247 9.15873839 31.37108066 9.14648438 32.77539062 C9.11134406 36.18400115 9.06214123 39.5917927 9 43 C6.03 43 3.06 43 0 43 C-0.01981934 42.14245117 -0.03963867 41.28490234 -0.06005859 40.40136719 C-0.13829521 37.21052358 -0.22499343 34.0200526 -0.31738281 30.82958984 C-0.35559338 29.45044757 -0.39046002 28.07120833 -0.421875 26.69189453 C-0.46769624 24.70583033 -0.52666263 22.72008321 -0.5859375 20.734375 C-0.63306885 18.94338379 -0.63306885 18.94338379 -0.68115234 17.11621094 C-0.98266004 14.16946952 -1.36619547 12.44018251 -3 10 C-6.13400885 8.43299558 -9.63155095 8.14835439 -13 9 C-16.81573064 12.84201223 -17.51513459 15.48388822 -17.609375 20.83203125 C-17.64160156 22.12431641 -17.67382812 23.41660156 -17.70703125 24.74804688 C-17.7217735 26.10286009 -17.73609112 27.45767798 -17.75 28.8125 C-17.77817759 30.18688639 -17.80810754 31.56123805 -17.83984375 32.93554688 C-17.91047274 36.2904241 -17.96320774 39.64460896 -18 43 C-20.97 43 -23.94 43 -27 43 C-27 29.14 -27 15.28 -27 1 C-24.03 1 -21.06 1 -18 1 C-17.67 1.66 -17.34 2.32 -17 3 C-15.94619141 2.27103516 -15.94619141 2.27103516 -14.87109375 1.52734375 C-10.07152697 -1.02589517 -5.3016012 -0.61780177 0 0 Z " fill="#34BA8E" transform="translate(944,564)"/>
<path d="M0 0 C3.93878978 2.98363326 5.80068782 6.38455077 7.125 11.05859375 C7.37665339 17.06681843 6.09994993 21.42115216 2.125 26.05859375 C-3.29355325 29.96629395 -8.40936018 29.84708641 -14.875 29.05859375 C-19.37176548 26.92854694 -21.89981531 24.63270567 -23.875 20.05859375 C-25.26820354 13.98820688 -25.03294261 9.52426365 -21.875 4.05859375 C-15.83578984 -1.98061641 -7.89986292 -3.96638951 0 0 Z " fill="#0E5740" transform="translate(1298.875,22.94140625)"/>
<path d="M0 0 C3.93792318 2.56821077 6.74612583 5.61725165 8.875 9.875 C9.46606487 15.55831608 9.14743416 20.02277003 5.875 24.875 C0.69953302 29.54554337 -2.52104098 30.23284069 -9.36328125 30.15234375 C-14.58448823 29.62800755 -17.11136068 26.9953382 -20.5 23.25 C-22.96618875 18.12791567 -23.15711198 13.27451884 -21.5 7.81640625 C-19.42721217 3.51352081 -16.54727029 1.39940484 -12.20703125 -0.46875 C-7.74149206 -1.87627455 -4.35396189 -1.56742628 0 0 Z " fill="#0E5740" transform="translate(1520.125,189.125)"/>
<path d="M0 0 C2.72772061 1.67338888 4.86584445 3.62557528 7 6 C6 9 6 9 4.1875 10.25 C1.56884267 11.14782537 0.59104265 10.86368088 -2 10 C-3.66519519 9.65939189 -5.33157466 9.32441604 -7 9 C-7.33 10.32 -7.66 11.64 -8 13 C-7.02417969 13.54269531 -6.04835938 14.08539062 -5.04296875 14.64453125 C-3.75766633 15.3669275 -2.47251813 16.08959818 -1.1875 16.8125 C-0.54490234 17.16892578 0.09769531 17.52535156 0.75976562 17.89257812 C8.40309176 22.20927527 8.40309176 22.20927527 10 27 C10.39509723 32.23503836 9.93380851 35.59928724 7 40 C2.82820954 43.50809652 -0.54570537 44.90755433 -6 45 C-10.70327428 44.0992034 -14.09217818 42.84297741 -17.625 39.5625 C-19 37 -19 37 -19.125 34.8125 C-17.39540091 32.02592369 -15.06743434 31.78317473 -12 31 C-11.505 31.66 -11.01 32.32 -10.5 33 C-6.89659788 35.8827217 -4.53014958 35.30200997 0 35 C0 33.02 0 31.04 0 29 C-0.97582031 28.46890625 -1.95164062 27.9378125 -2.95703125 27.390625 C-4.24244561 26.67754842 -5.52758768 25.96398083 -6.8125 25.25 C-7.45509766 24.90195312 -8.09769531 24.55390625 -8.75976562 24.1953125 C-13.53104257 21.52537514 -16.24278836 19.43389457 -17.875 14.1875 C-18.07910327 8.98286669 -16.2575504 5.48619592 -12.9375 1.5625 C-8.61495745 -0.73672476 -4.78398804 -1.02514029 0 0 Z " fill="#34BA8E" transform="translate(1054,564)"/>
<path d="M0 0 C2.97 0 5.94 0 9 0 C9 5.28 9 10.56 9 16 C11.64 16 14.28 16 17 16 C17 18.64 17 21.28 17 24 C14.36 24 11.72 24 9 24 C9 35.22 9 46.44 9 58 C6.03 58 3.06 58 0 58 C0 46.78 0 35.56 0 24 C-1.32 24 -2.64 24 -4 24 C-4 21.36 -4 18.72 -4 16 C-2.68 16 -1.36 16 0 16 C0 10.72 0 5.44 0 0 Z " fill="#34BA8E" transform="translate(1525,549)"/>
<path d="M0 0 C2.97 0 5.94 0 9 0 C9 5.28 9 10.56 9 16 C11.64 16 14.28 16 17 16 C17 18.64 17 21.28 17 24 C14.36 24 11.72 24 9 24 C9 35.22 9 46.44 9 58 C6.03 58 3.06 58 0 58 C0 46.78 0 35.56 0 24 C-1.32 24 -2.64 24 -4 24 C-4 21.36 -4 18.72 -4 16 C-2.68 16 -1.36 16 0 16 C0 10.72 0 5.44 0 0 Z " fill="#34BA8E" transform="translate(1365,549)"/>
<path d="M0 0 C2.97 0 5.94 0 9 0 C9 5.28 9 10.56 9 16 C11.31 16 13.62 16 16 16 C16 18.64 16 21.28 16 24 C13.69 24 11.38 24 9 24 C9 35.22 9 46.44 9 58 C6.03 58 3.06 58 0 58 C0 46.78 0 35.56 0 24 C-1.32 24 -2.64 24 -4 24 C-4 21.36 -4 18.72 -4 16 C-2.68 16 -1.36 16 0 16 C0 10.72 0 5.44 0 0 Z " fill="#34BA8E" transform="translate(1072,549)"/>
<path d="M0 0 C0.66 0.33 1.32 0.66 2 1 C1.44271087 4.34373475 0.64826111 7.03312999 -1 10 C-2.051875 9.773125 -3.10375 9.54625 -4.1875 9.3125 C-7.90300099 8.73375513 -7.90300099 8.73375513 -10.8125 10.0625 C-14.19351104 13.05710978 -14.8465454 16.56767878 -15.31884766 20.97607422 C-15.35026855 21.9920166 -15.38168945 23.00795898 -15.4140625 24.0546875 C-15.47207031 25.71757813 -15.47207031 25.71757813 -15.53125 27.4140625 C-15.5621875 28.55617188 -15.593125 29.69828125 -15.625 30.875 C-15.68300781 32.62296875 -15.68300781 32.62296875 -15.7421875 34.40625 C-15.83610319 37.27067864 -15.92177983 40.13510692 -16 43 C-18.97 43 -21.94 43 -25 43 C-25 29.14 -25 15.28 -25 1 C-22.03 1 -19.06 1 -16 1 C-15.67 1.99 -15.34 2.98 -15 4 C-14.071875 3.01 -14.071875 3.01 -13.125 2 C-8.80247394 -0.76641668 -5.01359955 -0.54129128 0 0 Z " fill="#34BA8E" transform="translate(1333,564)"/>
<path d="M0 0 C0.66 0.33 1.32 0.66 2 1 C1.44271087 4.34373475 0.64826111 7.03312999 -1 10 C-2.051875 9.773125 -3.10375 9.54625 -4.1875 9.3125 C-7.90300099 8.73375513 -7.90300099 8.73375513 -10.8125 10.0625 C-14.19351104 13.05710978 -14.8465454 16.56767878 -15.31884766 20.97607422 C-15.35026855 21.9920166 -15.38168945 23.00795898 -15.4140625 24.0546875 C-15.47207031 25.71757813 -15.47207031 25.71757813 -15.53125 27.4140625 C-15.5621875 28.55617188 -15.593125 29.69828125 -15.625 30.875 C-15.68300781 32.62296875 -15.68300781 32.62296875 -15.7421875 34.40625 C-15.83610319 37.27067864 -15.92177983 40.13510692 -16 43 C-18.97 43 -21.94 43 -25 43 C-25 29.14 -25 15.28 -25 1 C-22.03 1 -19.06 1 -16 1 C-15.67 1.99 -15.34 2.98 -15 4 C-14.071875 3.01 -14.071875 3.01 -13.125 2 C-8.80247394 -0.76641668 -5.01359955 -0.54129128 0 0 Z " fill="#34BA8E" transform="translate(1117,564)"/>
<path d="M0 0 C0.66 0.33 1.32 0.66 2 1 C1.44271087 4.34373475 0.64826111 7.03312999 -1 10 C-2.051875 9.773125 -3.10375 9.54625 -4.1875 9.3125 C-7.89512844 8.74577314 -7.89512844 8.74577314 -10.8125 10 C-15.09746827 13.91768527 -15.12390105 19.41836406 -15.4140625 24.93359375 C-15.49312635 27.10126099 -15.56323442 29.26927092 -15.625 31.4375 C-15.68300781 33.1071582 -15.68300781 33.1071582 -15.7421875 34.81054688 C-15.83590966 37.54020476 -15.92162294 40.26986563 -16 43 C-18.97 43 -21.94 43 -25 43 C-25 29.14 -25 15.28 -25 1 C-22.03 1 -19.06 1 -16 1 C-15.67 1.99 -15.34 2.98 -15 4 C-14.195625 3.34 -13.39125 2.68 -12.5625 2 C-8.59939799 -0.67674909 -4.63518261 -0.56549228 0 0 Z " fill="#34BA8E" transform="translate(778,564)"/>
<path d="M0 0 C1.7734375 1.52734375 1.7734375 1.52734375 3 3 C1.68 5.31 0.36 7.62 -1 10 C-2.0725 9.79375 -3.145 9.5875 -4.25 9.375 C-8.55420249 8.87477049 -8.55420249 8.87477049 -12 11 C-13.90141287 14.85055455 -14.29274274 18.12811953 -14.4140625 22.39453125 C-14.47207031 24.19760742 -14.47207031 24.19760742 -14.53125 26.03710938 C-14.5621875 27.28298828 -14.593125 28.52886719 -14.625 29.8125 C-14.68300781 31.71032227 -14.68300781 31.71032227 -14.7421875 33.64648438 C-14.83630657 36.76417851 -14.92194361 39.88186914 -15 43 C-17.97 43 -20.94 43 -24 43 C-24 29.14 -24 15.28 -24 1 C-21.03 1 -18.06 1 -15 1 C-14.67 1.99 -14.34 2.98 -14 4 C-13.360625 3.34 -12.72125 2.68 -12.0625 2 C-8.1168291 -0.57676467 -4.62046338 -0.9604334 0 0 Z " fill="#34BA8E" transform="translate(1659,564)"/>
<path d="M0 0 C2.97 0 5.94 0 9 0 C9 13.86 9 27.72 9 42 C6.03 42 3.06 42 0 42 C0 28.14 0 14.28 0 0 Z " fill="#34BA8E" transform="translate(896,565)"/>
<path d="M0 0 C3.5625 0.375 3.5625 0.375 5.5625 2.0625 C6.5625 4.375 6.5625 4.375 6.5625 6.9375 C5.5625 9.375 5.5625 9.375 3.3125 11.3125 C0.5625 12.375 0.5625 12.375 -2.1875 11.625 C-4.4375 10.375 -4.4375 10.375 -5.4375 9.375 C-5.625 5.9375 -5.625 5.9375 -5.4375 2.375 C-3.4375 0.375 -3.4375 0.375 0 0 Z " fill="#34BA8E" transform="translate(900.4375,540.625)"/>
</svg>
